<svg xmlns="http://www.w3.org/2000/svg" xmlns:xlink="http://www.w3.org/1999/xlink" width="17" height="13" viewBox="0 0 17 13">
    <defs>
        <path id="a" d="M8 7.309L3.918 5.554l4.147-.416a.664.664 0 0 0 .598-.725.669.669 0 0 0-.732-.595l-4.14.413L8 2.39l5.665 2.482L8 7.31v-.001zm3.732 4.715c-1.094.37-4.264 1.229-7.46.013V7.15l3.464 1.489c.225.084.349.081.528 0l3.468-1.489v4.875-.001zm3.87-7.75L8.268 1.055a.675.675 0 0 0-.54 0L.399 4.273A.666.666 0 0 0 0 4.881c0 .263.16.5.402.608l.352.15v6.288c0 .367.298.663.666.663a.663.663 0 0 0 .667-.663V6.21l.849.364v5.908c0 .264.156.5.398.608 1.57.683 3.128.91 4.512.91 2.681 0 4.693-.855 4.82-.91a.663.663 0 0 0 .398-.608V6.578l2.534-1.09a.663.663 0 1 0 .003-1.216l.001.002z"/>
    </defs>
    <g fill="none" fill-rule="evenodd">
        <path fill="#8A85A6" fill-rule="nonzero" d="M8 6.309L3.918 4.554l4.147-.416a.664.664 0 0 0 .598-.725.669.669 0 0 0-.732-.595l-4.14.413L8 1.39l5.665 2.482L8 6.31v-.001zm3.732 4.715c-1.094.37-4.264 1.229-7.46.013V6.15l3.464 1.489c.225.084.349.081.528 0l3.468-1.489v4.875-.001zm3.87-7.75L8.268.055a.675.675 0 0 0-.54 0L.399 3.273A.666.666 0 0 0 0 3.881c0 .263.16.5.402.608l.352.15v6.288c0 .367.298.663.666.663a.663.663 0 0 0 .667-.663V5.21l.849.364v5.908c0 .264.156.5.398.608 1.57.683 3.128.91 4.512.91 2.681 0 4.693-.855 4.82-.91a.663.663 0 0 0 .398-.608V5.578l2.534-1.09a.663.663 0 1 0 .003-1.216l.001.002z"/>
        <g transform="translate(0 -1)">
            <mask id="b" fill="#fff">
                <use xlink:href="#a"/>
            </mask>
            <g fill="#8A85A6" fill-rule="nonzero" mask="url(#b)">
                <path d="M-4-5h24v24H-4z"/>
            </g>
        </g>
    </g>
</svg>
