<svg xmlns="http://www.w3.org/2000/svg" width="16" height="19" viewBox="0 0 16 19">
    <path fill="#8A85A6" fill-rule="evenodd" d="M15.193 11.82c-.607-.6-1.234-1.22-1.234-4.147A5.968 5.968 0 0 0 8.943 1.79a1.143 1.143 0 1 0-1.885 0A5.968 5.968 0 0 0 2.04 7.673c0 2.927-.627 3.547-1.234 4.146C-.91 13.516.347 16 2.39 16h3.324a2.286 2.286 0 0 0 4.572 0h3.324c2.043 0 3.3-2.485 1.583-4.18zM8 16.856A.858.858 0 0 1 7.143 16h1.714a.858.858 0 0 1-.857.857zm5.61-2.571H2.39c-.6 0-.898-.728-.477-1.15 1.021-1.02 1.842-1.99 1.842-5.463A4.25 4.25 0 0 1 8 3.43a4.25 4.25 0 0 1 4.245 4.244c0 3.488.83 4.45 1.842 5.463a.675.675 0 0 1-.477 1.15z"/>
</svg>
