<svg xmlns="http://www.w3.org/2000/svg" width="10" height="11" viewBox="0 0 10 11">
    <path fill="#6647FF" fill-rule="evenodd" d="M3.304 6.188H2.41a.264.264 0 0 1-.268-.258v-.86c0-.141.12-.258.268-.258h.893c.147 0 .267.117.267.258v.86c0 .141-.12.258-.267.258zm2.41-.258v-.86a.264.264 0 0 0-.268-.258h-.892a.264.264 0 0 0-.268.258v.86c0 .141.12.258.268.258h.892a.264.264 0 0 0 .268-.258zm2.143 0v-.86a.264.264 0 0 0-.268-.258h-.893a.264.264 0 0 0-.267.258v.86c0 .141.12.258.267.258h.893a.264.264 0 0 0 .268-.258zM5.714 7.992v-.86a.264.264 0 0 0-.268-.257h-.892a.264.264 0 0 0-.268.258v.86c0 .141.12.257.268.257h.892a.264.264 0 0 0 .268-.258zm-2.143 0v-.86a.264.264 0 0 0-.267-.257H2.41a.264.264 0 0 0-.268.258v.86c0 .141.12.257.268.257h.893a.264.264 0 0 0 .267-.258zm4.286 0v-.86a.264.264 0 0 0-.268-.257h-.893a.264.264 0 0 0-.267.258v.86c0 .141.12.257.267.257h.893a.264.264 0 0 0 .268-.258zM10 2.406V9.97C10 10.539 9.52 11 8.929 11H1.07C.48 11 0 10.538 0 9.969V2.406c0-.57.48-1.031 1.071-1.031h1.072V.258c0-.142.12-.258.268-.258h.893c.147 0 .267.116.267.258v1.117H6.43V.258c0-.142.12-.258.267-.258h.893c.148 0 .268.116.268.258v1.117H8.93c.591 0 1.071.462 1.071 1.031zM8.929 9.84V3.438H1.07V9.84c0 .07.06.129.134.129h7.59a.132.132 0 0 0 .134-.13z"/>
</svg>
