<svg xmlns="http://www.w3.org/2000/svg" width="16" height="16" viewBox="0 0 16 16">
    <path fill="#8A85A6" fill-rule="evenodd" d="M13.76 12.48l-1.25 1.32v-1.313l1.25-.007zM1.332 2.916H3.68v.904c0 .386.297.7.666.7.37 0 .666-.314.666-.7v-.904h5.97v.904c0 .386.296.7.665.7.37 0 .666-.314.666-.7v-.904h2.348v8.166h-2.818c-.405 0-.672.232-.672.7v2.824H1.332V2.916zm14.002-1.398c.369 0 .666.314.663.7v9.593a.714.714 0 0 1-.193.493l-3.308 3.49a.658.658 0 0 1-.473.206H.666C.297 16 0 15.687 0 15.301V2.217c0-.385.297-.699.666-.695h3.017V.699C3.683.313 3.98 0 4.35 0c.37 0 .666.313.666.699v.823h5.973V.699c0-.386.297-.699.666-.699.369 0 .666.313.666.699v.82h3.014zm-8.81 3.9h-1.28c-.369 0-.67.313-.67.701 0 .389.301.702.67.702h.607v4.585c0 .388.3.702.67.702.369 0 .67-.314.67-.702v-5.29a.68.68 0 0 0-.667-.699zm3.592 0h-1.28c-.369 0-.67.313-.67.701 0 .389.301.702.67.702h.607v4.585c0 .388.3.702.67.702.369 0 .669-.314.669-.702v-5.29a.68.68 0 0 0-.666-.699z"/>
</svg>
