<svg xmlns="http://www.w3.org/2000/svg" width="24" height="18" viewBox="0 0 24 18">
    <path fill="#8A85A6" fill-rule="evenodd" d="M11.574 0C5.184 0 0 3.741 0 8.358c0 1.981.952 3.798 2.543 5.232-.35.937-.888 1.314-1.49 1.732-.447.31-1.295.792-.99 1.736.206.619.84.993 1.532.936 2.318-.184 4.468-.771 6.309-1.707 1.153.277 2.387.43 3.665.43 6.393 0 11.573-3.738 11.573-8.359C23.147 3.741 17.967 0 11.573 0zm0 14.788c-1.306 0-2.628-.177-3.91-.563-1.298.764-3.163 1.849-5.413 2.17 1.286-.964 2.282-2.475 2.46-3.552-1.532-1.045-2.782-2.608-2.782-4.485 0-2.849 3.468-6.43 9.645-6.43 6.176 0 9.644 3.581 9.644 6.43 0 2.853-3.468 6.43-9.644 6.43z"/>
</svg>
