<svg xmlns="http://www.w3.org/2000/svg" xmlns:xlink="http://www.w3.org/1999/xlink" width="11" height="13" viewBox="0 0 11 13">
    <defs>
        <path id="a" d="M10.655 1.674L9.38.357A1.16 1.16 0 0 0 8.548 0H4.32c-.65 0-1.178.546-1.178 1.219v1.218H1.179C.528 2.438 0 2.984 0 3.657v8.124C0 12.454.528 13 1.179 13h5.5c.65 0 1.178-.546 1.178-1.219v-1.219h1.964c.651 0 1.179-.545 1.179-1.218V2.536a1.24 1.24 0 0 0-.345-.862zM6.53 11.781H1.326a.15.15 0 0 1-.147-.152v-7.82a.15.15 0 0 1 .147-.153h1.817v5.688c0 .673.528 1.219 1.178 1.219H6.68v1.066a.15.15 0 0 1-.148.152zm3.143-2.437H4.47a.15.15 0 0 1-.148-.153v-7.82a.15.15 0 0 1 .148-.152H7.07v2.234a.6.6 0 0 0 .59.61h2.16V9.19a.15.15 0 0 1-.147.153zm.147-6.5H8.25V1.219h.236c.04 0 .077.016.105.044l1.187 1.228a.155.155 0 0 1 .043.108v.245z"/>
    </defs>
    <use fill="#FF4747" fill-rule="evenodd" xlink:href="#a"/>
</svg>
