<svg xmlns="http://www.w3.org/2000/svg" width="9" height="12" viewBox="0 0 9 12">
    <path fill="#EDA355" fill-rule="evenodd" d="M6.75 5.813v.656a.282.282 0 0 1-.281.281H2.53a.282.282 0 0 1-.281-.281v-.657c0-.154.127-.28.281-.28H6.47c.154 0 .281.126.281.28zM6.469 7.5H2.53a.282.282 0 0 0-.281.281v.657c0 .154.127.28.281.28H6.47a.282.282 0 0 0 .281-.28V7.78a.282.282 0 0 0-.281-.281zM9 3.091v7.784C9 11.496 8.496 12 7.875 12h-6.75A1.125 1.125 0 0 1 0 10.875v-9.75C0 .504.504 0 1.125 0h4.784c.297 0 .583.12.794.33L8.67 2.297c.21.208.33.497.33.794zM6 1.216V3h1.784L6 1.216zm1.875 9.659v-6.75H5.437a.561.561 0 0 1-.562-.563V1.126h-3.75v9.75h6.75z"/>
</svg>
