<svg xmlns="http://www.w3.org/2000/svg" width="735" height="622" viewBox="0 0 735 622">
    <g fill="none" fill-rule="evenodd">
        <path fill="#6AFFB8" d="M594.221 636.044c-73.945-137.903-86.884-206.008-38.816-204.316 48.067 1.692 73.947 61.629 77.638 179.81-1.413-175.865 16.395-263.376 53.427-262.532 55.547 1.267 73.263 129.267 0 268.428-48.843 92.774-79.592 98.977-92.249 18.61z"/>
        <g stroke="#52E29D" stroke-linecap="round" stroke-linejoin="round" stroke-width="6">
            <path d="M690.127 376.484c-9.817 149.028-22.536 233.648-38.157 253.86M683.987 456.955l-22.07-37.344M682.66 473.582l25.015-23.16M678.131 515.774l-25.925-37.784M672.278 559.344l31.98-23.548M666.155 586.93l-23.815-38.35"/>
        </g>
        <g stroke="#52E29D" stroke-linecap="round" stroke-linejoin="round" stroke-width="6">
            <path d="M561.471 468.237c45.544 100.84 66.823 160.535 63.837 179.084M585.525 522.974l-27.141-16.905M590.458 534.305l7.984-23.68M602.23 563.45l-29.765-15.88M613.633 593.949l12.314-26.308M619.302 614.083l-28.61-16.97"/>
        </g>
        <g>
            <path fill="#6AFFB8" d="M82.572 638.046c43.372-81.213 50.961-121.322 22.768-120.326-28.194.997-43.373 36.295-45.538 105.895.829-103.572-9.617-155.109-31.337-154.611-32.58.745-42.972 76.127 0 158.082 28.648 54.637 46.684 58.29 54.107 10.96z"/>
            <g stroke="#52E29D" stroke-linecap="round" stroke-linejoin="round" stroke-width="4">
                <path d="M26.561 485.285c5.801 87.663 13.317 137.44 22.548 149.33M30.19 532.62l13.041-21.967M30.974 542.401l-14.782-13.624M33.65 567.22l15.319-22.226M37.108 592.85l-18.897-13.853M40.727 609.077l14.072-22.56"/>
            </g>
            <g stroke="#52E29D" stroke-linecap="round" stroke-linejoin="round" stroke-width="4">
                <path d="M102.317 539.684c-26.773 59.21-39.302 94.251-37.589 105.124M88.175 571.822l15.884-9.958M85.274 578.475l-4.625-13.874M78.349 595.586l17.415-9.361M71.637 613.49l-7.15-15.407M68.292 625.307l16.742-9.999"/>
            </g>
        </g>
        <g>
            <path fill="#F4F4F4" d="M442.308 1.557c-60.895-11.24-122.17 42.513-207.005 29.087C150.47 17.218-8.737 67.906 84.25 209.486c92.988 141.58 35.93 197.052 117.916 251.985 81.987 54.933 169.713 88.652 206.315-98.046 36.603-186.698 203.735-150.94 208.68-234.91C622.104 44.548 503.203 12.8 442.307 1.558z"/>
            <path fill="#F5F3F3" d="M536.234 163L497 192.014s.164.623 1.138 1.007c.975.384 1.539.288 1.539.288l41.247-28.19s-2.377-.551-3.24-1.194c-.864-.645-1.45-.925-1.45-.925"/>
            <g transform="translate(198 252)">
                <path fill="#9F8FF0" d="M14 15h271v146c0 7.732-6.268 14-14 14H28c-7.732 0-14-6.268-14-14V15z"/>
                <rect width="297" height="15" fill="#EAE5FF" rx="7.5"/>
            </g>
            <g transform="matrix(-1 0 0 1 410 102)">
                <path fill="#FFC6B2" d="M58.849 77.302s-1.352-14.64 1.526-16.68c.725-.515 2.883-.26 4.112-.796 6.616-2.881 12.35-22.868 10.584-30.385-1.39-5.913.363-4.352-12.076-8.23-12.44-3.878-16.713 8.56-17.783 16.258-1.012 7.276.824 12.914 3.784 16.808L42.21 69.713l16.639 7.59z"/>
                <path fill="#22343D" d="M44.758 40.45c2.93-3.615 2.187-9.546 5.678-12.361 1.56 1.759 4.732.935 5.862-1.522.443-.966.588-2.056.998-3.039.412-.982 1.268-1.915 2.138-1.76.412.074.744.376 1.063.666 2.598 2.35 5.818 7.487 8.847 9.076 2.883 1.514 6.708 2.474 9.271-.262 2.231-2.382 2.267-6.286 1.979-9.583-.164-1.89-.839-7.104-2.131-8.136-1.976-1.574-4.846.197-7.032 1.923.066-2.404-1.852-4.136-3.867-4.361-2.016-.225-4.088.676-6.068 1.57-1.98.892-4.043 1.808-6.065 1.616-1.885-.177-4.08-1.167-5.506.505-1.699 1.993-.111 5.134-.706 7.782.145-.65-2.65 1.425-2.939 1.984-.867 1.683-.619 3.71-.816 5.514-.421 3.845-1.737 6.725-.706 10.388"/>
                <path fill="#FFF" d="M66.205 51.284c-1.377-1.872-2.526-2.983-3.446-3.33-1.117-.422-3.09-.326-5.916.289 0 0 3.23 1.692 5.282 1.663l4.08 1.378z"/>
                <path fill="#FFB2A0" d="M57.513 41.575c-.351.957-1.791 1.305-3.216.779-1.426-.526-2.294-1.729-1.943-2.686.353-.956 1.791-1.304 3.217-.779 1.425.528 2.294 1.729 1.942 2.686M72.467 45.22c-.352.958-1.792 1.306-3.217.78s-2.294-1.729-1.943-2.686c.353-.956 1.791-1.304 3.218-.778 1.424.527 2.293 1.727 1.942 2.685"/>
                <path fill="#FF7B5B" d="M63.023 44.554c.012-.064.28-.087.732.013.448.08 1.087.346 1.77.357.668.017 1.529-.535 1.162-1.153-.304-.71-1.485-.767-2.714-.943-.304-.043-.604-.087-.9-.131-.29-.029-.81-.172-1.083-.561-.494-.765-.304-1.45-.238-1.974a7.947 7.947 0 0 1 1.036-2.752c.891-1.431 1.808-1.975 1.877-1.886.11.112-.602.823-1.263 2.217a8.696 8.696 0 0 0-.752 2.558c-.074.494-.073 1.032.108 1.25.077.092.168.136.458.177l.895.125c.609.098 1.178.145 1.817.309.623.156 1.303.57 1.585 1.23.346.668.002 1.552-.52 1.853-.502.341-1.03.415-1.498.379-.925-.133-1.462-.513-1.865-.693-.394-.203-.62-.305-.607-.375"/>
                <path fill="#22343D" d="M69.285 38.973c-.188.206-.891-.134-1.78-.262-.882-.155-1.657-.052-1.772-.305-.134-.233.724-.865 1.927-.669 1.205.191 1.824 1.056 1.625 1.236M56.667 35.377c.07-.252 1.02-.265 2.142.161 1.142.43 1.796 1.285 1.598 1.478-.19.197-.956-.184-1.96-.558-1.004-.386-1.857-.809-1.78-1.081M54.71 32.048c-.053-.558.772-1.772 3.352-1.778 2.623-.022 3.666 1.653 3.416 2.191-.23.545-1.23.574-3.534.596-2.316.001-3.18-.402-3.233-1.01M66.453 33.78c.18-.496 1.37-1.198 3.57-.165 2.244 1.036 2.458 2.881 2.028 3.239-.416.369-1.277-.007-3.25-.915-1.972-.93-2.545-1.62-2.348-2.16"/>
                <path fill="#FFC6B2" d="M38.292 62.057l5.737-.492L47.754 51l7.219.841.608 10.216c7.623 1.484 11.582 2.373 11.878 2.665.295.293-1.028 3.983-3.97 11.069L38.292 74.47l-1.78-11.075 1.78-1.338z"/>
                <path fill="#FF7B5B" d="M67.222 64.32c6.726 2.289 11.32 8.886 10.791 16.285l-4.964 69.517H36.005c-8.424 0-15.406-6.533-15.965-14.94-1.595-24.006-2.269-41.729-2.022-53.167C18.265 70.575 27.615 61.47 39 61.47v.022c0 4.82 6.492 8.728 14.5 8.728 6.364 0 11.77-2.468 13.722-5.9z"/>
                <path fill="#FFC6B2" d="M87.087 55.8l-1.24-4.006c-1.184-10.219-4.476-14.192-9.875-11.92-5.399 2.273-5.08 2.828.96 1.664 1.483 1.444 1.401 2.327-.244 2.649-2.47.483-3.11 7.66-.716 8.372 1.596.475 2.725.712 3.386.712l1.133 5.23 6.596-2.7z"/>
                <path fill="#E65C3B" d="M78.66 57.78l9.53-2.923c13.96 35.033 19.356 55.105 16.192 60.216-.586.946-4.054 1.642-5.006 1.88-2.796.698-10.548-5.12-23.254-17.454-1.429-1.754-2.143-6.622-2.143-14.605 0-7.984.714-12.311 2.143-12.983l10.152 16.483-7.614-30.615z"/>
                <path fill="#FFC6B2" d="M43.034 140.403h7.427c5.044-4.948 9.271-6.09 12.682-3.425 3.411 2.666 4.924 5.607 4.539 8.823l-1.118 3.975H42.847l.187-9.373z"/>
                <path fill="#E65C3B" d="M.575 146.332a2.402 2.402 0 0 1-.506-1.988 6.251 6.251 0 0 1 .009-1.12 7.284 7.284 0 0 1 .915-2.887c6.961-30.071 11.299-47.44 13.013-52.105 2.876-7.83 3.333-16.657 10.99-23.57 12.705-8.655 14.09 4.022 12.472 8.198-1.537 7.616-4.167 10.825-7.736 22.858-1.87 6.304-8.767 23.905-11.356 31.834a272.644 272.644 0 0 1-3.22 9.237c1.85.026 3.537.038 5.058.038 4.825 0 12.42.601 22.786 1.803V150H6.216a6.17 6.17 0 0 1-5.64-3.668z"/>
                <rect width="53" height="4" x="55" y="146" fill="#FFF" rx="2"/>
                <path fill="#FDFDFD" d="M90.484 106h52.487a4 4 0 0 1 3.76 5.367l-13.092 36A4 4 0 0 1 129.88 150H74.537a2 2 0 0 1-1.88-2.683l14.068-38.684A4 4 0 0 1 90.484 106z"/>
                <circle cx="113" cy="127" r="5" fill="#E1E1E1"/>
            </g>
            <path stroke="#C2C2C2" stroke-width="2" d="M452.5 233h3a2 2 0 0 1 2 2v2.5c0 1.933-3.567 4.5-5.5 4.5"/>
            <path fill="#C2C2C2" d="M435 229h15a2 2 0 0 1 2 2v13a8 8 0 0 1-8 8h-3a8 8 0 0 1-8-8v-13a2 2 0 0 1 2-2z"/>
            <g transform="translate(138 192)">
                <path fill="#D8D8D8" d="M15.142 11.69H5.754V7.789c0-1.499 1.2-2.744 2.699-2.76a2.73 2.73 0 0 1 2.752 2.726v.606c0 .503.405.908.909.908h1.211a.906.906 0 0 0 .909-.908v-.606A5.76 5.76 0 0 0 8.46 2c-3.18.011-5.735 2.631-5.735 5.81v3.88h-.909A1.818 1.818 0 0 0 0 13.509v6.057c0 1.003.814 1.817 1.817 1.817h13.325a1.818 1.818 0 0 0 1.817-1.817v-6.057a1.818 1.818 0 0 0-1.817-1.817zm-5.148 5.755a1.514 1.514 0 1 1-3.029 0v-1.817a1.514 1.514 0 1 1 3.029 0v1.817z"/>
                <rect width="75" height="23" x="23" fill="#E7E7E7" rx="4"/>
                <path fill="#C2C2C2" d="M40.428 10.556l2.43-.792.468 1.44-2.448.792 1.548 2.106-1.242.9-1.548-2.124-1.512 2.07-1.206-.918 1.548-2.034L36 11.15l.468-1.44 2.448.846V8h1.512v2.556zm8.334 0l2.43-.792.468 1.44-2.448.792 1.548 2.106-1.242.9-1.548-2.124-1.512 2.07-1.206-.918 1.548-2.034-2.466-.846.468-1.44 2.448.846V8h1.512v2.556zm8.334 0l2.43-.792.468 1.44-2.448.792 1.548 2.106-1.242.9-1.548-2.124-1.512 2.07-1.206-.918 1.548-2.034-2.466-.846.468-1.44 2.448.846V8h1.512v2.556zm8.334 0l2.43-.792.468 1.44-2.448.792 1.548 2.106-1.242.9-1.548-2.124-1.512 2.07-1.206-.918 1.548-2.034-2.466-.846.468-1.44 2.448.846V8h1.512v2.556zm8.334 0l2.43-.792.468 1.44-2.448.792 1.548 2.106-1.242.9-1.548-2.124-1.512 2.07-1.206-.918 1.548-2.034-2.466-.846.468-1.44 2.448.846V8h1.512v2.556zm8.334 0l2.43-.792.468 1.44-2.448.792 1.548 2.106-1.242.9-1.548-2.124-1.512 2.07-1.206-.918 1.548-2.034-2.466-.846.468-1.44 2.448.846V8h1.512v2.556z"/>
            </g>
            <g transform="translate(425 67)">
                <rect width="70" height="35" fill="#E7E7E7" rx="9"/>
                <path fill="#E7E7E7" d="M6.385 29C2.424 37.632 1.94 41.76 4.931 41.383 7.923 41.007 12.886 36.88 19.822 29H6.385z"/>
                <rect width="50" height="4" x="10" y="8" fill="#D8D8D8" rx="2"/>
                <rect width="50" height="4" x="10" y="16" fill="#D8D8D8" rx="2"/>
                <rect width="25" height="4" x="10" y="24" fill="#D8D8D8" rx="2"/>
            </g>
            <g transform="matrix(-1 0 0 1 292 88)">
                <rect width="57" height="35" fill="#E7E7E7" rx="9"/>
                <path fill="#E7E7E7" d="M6.385 29C2.424 37.632 1.94 41.76 4.931 41.383 7.923 41.007 12.886 36.88 19.822 29H6.385z"/>
                <rect width="41" height="4" x="8" y="8" fill="#D8D8D8" rx="2"/>
                <rect width="41" height="4" x="8" y="16" fill="#D8D8D8" rx="2"/>
                <rect width="25" height="4" x="8" y="25" fill="#D8D8D8" rx="2"/>
            </g>
        </g>
    </g>
</svg>
