<svg xmlns="http://www.w3.org/2000/svg" xmlns:xlink="http://www.w3.org/1999/xlink" width="257" height="232" viewBox="0 0 257 232">
    <defs>
        <path id="a" d="M.013.39h69.891v34.28H.013z"/>
    </defs>
    <g fill="none" fill-rule="evenodd">
        <path fill="#F4F4F4" d="M180.927 15.67c-26.47-4.833-53.107 18.277-89.984 12.505-36.878-5.772-106.084 16.02-65.663 76.89 40.422 60.87 15.619 84.72 51.258 108.337 35.64 23.617 73.774 38.114 89.685-42.153 15.91-80.268 88.563-64.895 90.712-100.996 2.15-36.1-49.537-49.75-76.008-54.583z"/>
        <path fill="#FF7B5B" d="M56.531 156.11l-.674-1.367-18.777 14.242 8.192 13.174 18.69-15.645z"/>
        <path fill="#D7D4D4" d="M38.007 169.148l6.97 12.547.446-.207-6.207-11.731z"/>
        <path fill="#F5F3F3" d="M56.245 155.5L38.06 168.985s.076.29.528.468c.451.178.713.133.713.133l19.118-13.1s-1.102-.256-1.502-.554c-.4-.3-.672-.43-.672-.43"/>
        <path fill="#FF7B5B" d="M58.886 155.957L38.96 169.282l6.472 12.279 1.043 1.7L66.4 168.498s-2.098-3.136-3.359-5.03c-1.26-1.893-3.734-6.359-3.868-6.645-.135-.286-.288-.865-.288-.865"/>
        <path fill="#775298" d="M223.219 63.968l.563-1.151 15.673 11.989-6.837 11.09-15.602-13.17z"/>
        <path fill="#D7D4D4" d="M238.799 75.062l-6.007 10.4-.384-.172 5.35-9.724z"/>
        <path fill="#F5F3F3" d="M223.529 63.74l15.27 11.322s-.064.243-.444.393c-.378.15-.598.111-.598.111l-16.054-11s.925-.215 1.261-.465c.336-.252.565-.361.565-.361"/>
        <path fill="#775298" d="M221.31 64.123l16.734 11.189-5.435 10.311-.875 1.428-16.735-12.399s1.763-2.633 2.821-4.223c1.059-1.59 3.136-5.34 3.249-5.58.113-.24.241-.726.241-.726"/>
        <path fill="#FF7B5B" d="M34.33 42.39s-1.184.82-.592 2.187 3.186 5.422 6.69 5.285c.144-.005-4.414-7.472-4.414-7.472H34.33z"/>
        <path fill="#775298" d="M28.968 117.149s-4.382-3.92-5.786-3.218c-1.714.858-11.526 10.482-11.142 15.016.157 1.857 2.317.266 6.164-3.73 3.85-3.995 8.696-2.283 8.696-2.283l2.068-5.785zM39.616 123.758l-5.29-3.177s-13.715 12.87-11.572 14.587c1.625 1.301 2.58.134 6.429-3.861 3.847-3.995 8.723-1.698 8.723-1.698l1.71-5.85z"/>
        <path fill="#F3A683" d="M71.935 81.414l.993 14.103-22.025-5.743z"/>
        <path fill="#112129" d="M50.903 90.259s19.265 1.215 21.83.358c0 0 3.766 37.026-2.933 41.02-6.7 3.996-21.734-1.854-21.734-1.854l4.06-7.99 8.751-.571v-14.268l-.628.142-9.346-16.837z"/>
        <path fill="#22343D" d="M26.754 115.515s-4.845 1.997-3.277 6.849c0 0 16.54 12.984 24.59 9.988 4.509-1.678 9.353-14.487 12.742-25.428l11.925-16.307s-5.625.282-7.5.275c-3.587-.014-14.33-.633-14.33-.633s-5.612 29.394-7.612 30.107c-2 .713-16.538-4.851-16.538-4.851"/>
        <path fill="#FFC6B2" d="M55.393 53.392s11.545-10.845 13.54-13.699C70.93 36.84 75.207 27.28 80.48 23.284l-2.566-5.422s1.569-.856 2.566 1.427c0 0 3.705-7.42 4.56-7.277.856.142-1.71 5.707-1.71 5.707s3.565-5.137 4.562-4.994c.997.144-2.566 5.776-2.566 5.776s3.99-4.634 4.56-4.063c.571.57-3.135 4.063-3.135 4.063s3.99-2.294 4.419-1.539c.427.757-3.991 2.755-3.991 2.755s-.428 3.282-3.136 4.709c0 0-5.362 14.502-10.208 19.21L58.266 59.833l-2.873-6.441zM41.61 59.012S30.672 70.47 27.803 72.44c-2.87 1.97-12.458 6.162-16.498 11.404l-5.392-2.62s-.87 1.562 1.401 2.582c0 0-7.446 3.64-7.311 4.498.134.858 5.717-1.659 5.717-1.659s-5.165 3.52-5.032 4.52c.134 1 5.792-2.515 5.792-2.515s-4.665 3.951-4.1 4.527c.564.577 4.087-3.1 4.087-3.1S4.138 94.05 4.89 94.484c.751.435 2.788-3.968 2.788-3.968s3.282-.397 4.733-3.095c0 0 13.721-5.465 18.47-10.273l17.076-12.112-6.346-6.024z"/>
        <path fill="#FFF" d="M45.712 54.447l-5.533 5.421 1.403 6.113s5.451 13.101 6.275 16.297c1.281 4.97-.79 12.548-.79 12.548s9.24-.768 17.649-1.054c8.408-.285 11.159-2.997 11.159-2.997s-7.29-24.308-12.323-31.102c-5.035-6.794-6.866-8.92-6.866-8.92l-7.411 1.621-3.563 2.073z"/>
        <path fill="#FFF" d="M61.95 58.871l5.765-3.687s.88-3.951-6.072-8.61l-8.152 5.113 8.459 7.184zM41.345 59.44c-3.16.444-8.936 8.463-9.58 8.447 0 0 4.064 6.641 7.284 6.857 0 0 14.17-16.972 2.296-15.304"/>
        <path fill="#FFC6B2" d="M52.501 54.222s-4.594-3.436-4.434-4.806c.04-.345.677-.905.842-1.402.89-2.676-3.404-9.569-6.042-11.022-2.076-1.142-1.166-1.243-5.535 1.356s-1.88 7.093.071 9.417c1.845 2.197 3.957 3.138 5.857 3.297l2.702 6.008 6.54-2.848z"/>
        <path fill="#FFC6B2" d="M44.212 58.992c-.869-2.134.776-4.821 3.675-6.005 2.9-1.184 5.954-.414 6.824 1.72.868 2.132-2.049 5.338-3.677 6.003-1.629.665-5.954.415-6.822-1.718M37.403 47.765s-1.49-.082-1.655.912c-.166.994 2.731.994 3.807.248l-2.152-1.16z"/>
        <path fill="#FF7B5B" d="M38.148 48.677c-.283-1.797-2.195-3.132-2.1-4.883.917.007 1.506-1.13 1.089-2.1-.165-.382-.443-.709-.62-1.085-.178-.377-.225-.87.047-1.081.13-.1.304-.118.47-.135 1.36-.14 3.688.268 4.938-.196 1.19-.442 2.467-1.301 2.343-2.762-.108-1.27-1.23-2.302-2.26-3.08-.59-.447-2.277-1.615-2.914-1.51-.971.163-1.207 1.46-1.277 2.546-.68-.648-1.681-.544-2.272-.017-.591.527-.87 1.364-1.128 2.173-.258.808-.531 1.647-1.114 2.184-.543.501-1.403.88-1.29 1.732.134 1.014 1.458 1.375 2.07 2.24-.15-.212-.278 1.142-.191 1.373.26.692.913 1.15 1.384 1.679 1.004 1.128 1.495 2.263 2.825 2.922"/>
        <path fill="#FFF" d="M46.472 44.569l-3.394 1.758s4.077 2.963 3.394-1.758"/>
        <path fill="#FFB2A0" d="M41.802 45.266c.185.352-.09.862-.613 1.138-.525.277-1.1.214-1.285-.138-.185-.353.089-.862.613-1.138.525-.276 1.1-.215 1.285.138M46.759 41.876c.186.352-.09.862-.613 1.138-.524.277-1.1.214-1.285-.138-.185-.353.089-.862.614-1.138.524-.276 1.098-.215 1.284.138"/>
        <path fill="#FF7B5B" d="M44.102 44.445c-.015-.02.048-.104.195-.21.14-.109.384-.225.565-.42.18-.19.244-.584-.03-.64-.286-.097-.61.231-.982.542l-.273.228c-.084.076-.261.19-.445.167-.35-.056-.5-.29-.634-.447a3.11 3.11 0 0 1-.527-1.02c-.182-.634-.1-1.042-.056-1.039.06-.003.08.39.312.947.117.276.291.59.545.887.124.151.28.291.391.296.046.001.083-.014.17-.087.09-.075.18-.15.27-.228.187-.15.35-.304.563-.446.208-.14.505-.23.77-.139.284.074.45.405.401.636a.894.894 0 0 1-.28.534c-.28.234-.53.29-.688.36-.161.062-.25.1-.267.079"/>
        <path fill="#FFA192" d="M43.26 51.062s2.166.012 3.34-.711c0 0-.993 1.221-2.982 1.538l-.358-.827z"/>
        <path fill="#22343D" d="M44.2 41.34c-.02.107-.323.14-.643.282-.324.131-.559.326-.65.266-.092-.05.061-.437.5-.62.438-.187.821-.029.792.072M39.956 44.127c-.082-.06.046-.41.358-.76.315-.356.719-.475.761-.375.045.097-.2.323-.477.637-.28.312-.554.564-.642.498"/>
        <path fill="#FF7B5B" d="M38.31 43.588c-.175-.13-.312-.687.36-1.438.678-.768 1.435-.633 1.526-.42.097.21-.155.508-.75 1.183-.603.673-.945.818-1.135.675M41.876 40.63c-.097-.181.01-.71.883-1.08.886-.38 1.476.04 1.468.258-.002.217-.336.37-1.113.705-.784.33-1.134.316-1.238.117"/>
        <path fill="#775298" d="M228.164 45.895c.058.057-.884 1.116-2.836 2.27-1.927 1.152-4.96 2.295-8.45 2.32-3.489.027-6.54-1.071-8.484-2.195-1.968-1.125-2.924-2.17-2.868-2.228.081-.103 1.151.779 3.122 1.745 1.952.97 4.893 1.932 8.224 1.908 3.332-.026 6.258-1.031 8.196-2.03 1.957-.994 3.013-1.893 3.096-1.79M206.878 44.294c-.054.117-1.095-.315-2.85-.707-.874-.207-1.934-.366-3.117-.513a102.107 102.107 0 0 0-3.881-.334 75.228 75.228 0 0 1-3.916-.358c-1.203-.16-2.286-.35-3.177-.592-1.79-.467-2.803-1.02-2.767-1.099.046-.118 1.111.247 2.883.566.884.169 1.951.3 3.14.418 1.19.109 2.505.198 3.892.296 1.388.1 2.715.226 3.919.399 1.202.189 2.281.409 3.163.69 1.772.541 2.75 1.16 2.711 1.234"/>
        <g transform="translate(178.729 14.173)">
            <mask id="b" fill="#fff">
                <use xlink:href="#a"/>
            </mask>
            <path fill="#775298" d="M7.043 7.333c3.326-.706 6.773-.098 10.127.461 3.354.56 6.837 1.065 10.116.163C33.206 6.33 37.7.342 43.842.39c2.527.02 4.91 1.1 7.374 1.672 3.059.71 6.244.635 9.344 1.141 3.098.507 6.3 1.755 8.05 4.364 2.078 3.096 1.508 7.463-.672 10.488-2.18 3.025-5.671 4.867-9.248 5.91-2.495.729-5.154 1.15-7.313 2.598-2.184 1.465-3.61 3.824-5.645 5.49-5.107 4.18-13.053 2.982-18.328-.983-1.325-.997-2.553-2.153-4.043-2.882-6.055-2.967-14.765.961-19.98-4.438-5.296-5.483-4.542-14.675 3.662-16.417" mask="url(#b)"/>
        </g>
        <path fill="#FFB2A0" d="M184.11 127.7s5.548 11.907 6.197 9.703c.648-2.206.433-7.501.086-8.257-.35-.756-2.617-4.096-2.617-4.096l-3.667 2.65z"/>
        <path fill="#FFC6B2" d="M224.231 31.426c.513.658.17-.049.752.901 2.415-.084 4.038-2.131 4.038-2.131s3.835.101 3.79-.584c-.043-.687-3.676-.43-3.676-.43s3.843-1.209 3.632-1.812c-.21-.603-4.647 1.32-4.647 1.32s4.478-2.782 3.816-3.228c-.661-.445-4.968 1.984-4.968 1.984s3.743-3.08 3.182-3.476c-.56-.397-5.752 3.61-5.752 3.61.076-1.971-1.337-1.902-1.337-1.902l.059 4.812s.874.633 1.111.936M167.386 9.646c-.821.152-.184-.134-1.25.191-1.75-1.67-1.517-4.294-1.517-4.294s-2.934-2.473-2.447-2.956c.489-.485 3.034 2.122 3.034 2.122s-2.07-3.458-1.514-3.77c.556-.31 2.6 4.076 2.6 4.076s-1.504-5.056-.713-4.95c.79.106 2.4 4.785 2.4 4.785s-.757-4.79-.076-4.714c.682.075 1.91 6.523 1.91 6.523 1.25-1.524 2.259-.534 2.259-.534l-3.169 3.49s-1.14-.038-1.517.031M187.291 29.747c-1.062-.174-3.627 1.533-4.911 4.315-.718 1.558-1.213 3.14-.388 5.672.388 1.192 1.201 1.341 1.382 1.875.23.676-.53 2.805-.53 2.805l3.03 1.225c.196-1.463.42-2.935 1.909-3.57.557-.238 1.153-.389 1.679-.69 1.42-.815 2.177-2.596 2.76-4.055.435-1.09-2.27-7.14-4.93-7.577"/>
        <path fill="#FFB2A0" d="M183.686 71.098l-5.075-2.039s-15.06 27.958-14.997 35.714c.063 7.757 20.684 23.287 20.684 23.287l3.478-3.01s-6.367-11.113-9.77-15.031c-3.404-3.92 5.68-38.92 5.68-38.92"/>
        <path fill="#FFC6B2" d="M208.88 102.945s11.184-5.312 8.937-5.781c-2.247-.467-7.503.177-8.227.585-.725.41-3.865 2.944-3.865 2.944l3.156 2.252z"/>
        <path fill="#FFC6B2" d="M188.67 70.856l-7.698 2.803s-7.7 33.906-4.76 39.229c2.938 5.325 11.193 1.8 22.952-4.624l9.848-5.381-3.287-2.19s-11.46 2.247-14.679 4.49c0 0 1.68-4.765 3.92-11.49 2.238-6.725 3.782-13.59-6.296-22.837M179.194 47.757c0-2.253.725-3.882 2.975-3.882s5.36.79 5.36 3.043-1.772 5.912-4.024 5.912c-2.25 0-4.31-2.82-4.31-5.073"/>
        <path fill="#FFC6B2" d="M180.972 43.552s-6.997-7.58-8.397-15.007c-1.4-7.425-3.779-19.474-3.779-19.474l-2.66.766s-1.26 16.468 0 18.99c1.26 2.521 7.415 19.31 9.288 23.72l5.548-8.995zM188.49 49.46s.537-2.357 9.385-5.562c8.849-3.205 25.542-13.592 25.542-13.592l1.665 1.907s-9.07 10.488-14.346 12.328c-5.277 1.84-16.485 9.094-17.638 9.674-1.744.878-1.723 1.983-4.609-4.754"/>
        <path fill="#22343D" d="M180.972 43.552s-7.11 2.307-7.11 13.136c0 0 .005 14.832 1.68 17.53 0 0 2.725.699 6.12 0 3.561-.733 7.007-3.362 7.007-3.362l5.593-16.807-.67-7.875-7.603-1.47s2.182 10.205-5.71 5.817c-1.534-.852 2.256-6.642 2.256-6.642l-1.563-.327z"/>
        <path fill="#22343D" d="M174.956 52.36l-3.503-7.306s.502-4.433 6.933-6.02c0 0 .65 2.233 1.364 3.087.712.853 2.787 1.76 2.787 1.76l-7.58 8.479zM188.2 55.297l11.14-2.286s1.936-4.017-2.656-8.795c0 0-8.689.525-9.813.618-1.108.093-.347.946-.347.946l1.676 9.517zM175.525 70.606s-10.537 19.5-12.277 22.985c0 0 31.084 14.294 43.702-2.911 0 0-7.178-15.209-18.274-20.999l-4.787-1.434-8.177 2.265"/>
        <path fill="#FFC6B2" d="M191.814 37.14s1.2-1.202 1.938-.37-2.676 2.033-2.676 2.033l.738-1.663z"/>
        <path fill="#775298" d="M213.767 20.753c.012.042-.452.242-1.337.453-.883.213-2.193.406-3.82.439-1.627.032-3.56-.113-5.677-.4-2.118-.281-4.42-.694-6.841-.958-2.417-.26-4.741-.306-6.8.027-2.059.327-3.842 1.002-5.203 1.79-1.362.795-2.31 1.677-2.892 2.344-.586.668-.848 1.094-.908 1.058-.032-.017.143-.497.673-1.246.527-.746 1.457-1.73 2.844-2.621 1.386-.885 3.228-1.646 5.368-2.026 2.143-.386 4.54-.357 7-.093 2.461.269 4.765.705 6.86 1.022 2.093.323 3.984.52 5.577.557 3.194.09 5.127-.478 5.156-.346"/>
        <path fill="#FF7B5B" d="M185.702 36.458c-.003.047-.345.08-.867-.093a1.174 1.174 0 0 1-.424-.235.68.68 0 0 1-.174-.256.577.577 0 0 1 .003-.436c.017-.026.017-.086.05-.087l.1-.003c.066-.01.143.013.218.027.138.026.181.022.28.028a2.2 2.2 0 0 0 .529-.053c.728-.154 1.216-.684 1.435-1.12.23-.44.25-.77.31-.767.043-.005.129.346-.06.876a2.22 2.22 0 0 1-.536.82c-.269.26-.642.475-1.065.568a2.313 2.313 0 0 1-.899.023c-.037-.007-.032-.015-.04-.01-.004.004-.006.011-.006.021.015.052.043.1.082.143.077.088.19.154.301.209.451.22.772.287.763.345"/>
        <path fill="#FFF" d="M183.203 36.588l4.103 1.618s-3.605 2.49-4.103-1.618"/>
        <path fill="#FFB2A0" d="M189.059 37.366c-.146.278-.598.326-1.01.11-.412-.218-.628-.619-.482-.895.146-.278.597-.326 1.01-.11.411.218.628.619.482.895M184.48 34.935c-.125.288-.572.37-.999.186-.428-.186-.673-.568-.55-.856.125-.287.572-.37 1-.185.426.185.672.568.548.855"/>
        <path fill="#FFA192" d="M182.96 41.093s1.438 1.206 2.938.817c0 0-.517.777-2.509.492 0 0 .166-.856-.43-1.31"/>
        <path fill="#22343D" d="M188.665 34.786a.326.326 0 1 1-.65 0 .326.326 0 0 1 .65 0M186.005 33.827a.326.326 0 1 1-.651 0 .326.326 0 0 1 .65 0"/>
        <path fill="#775298" d="M189.71 33.92c-.1.042-.295-.193-.588-.383-.288-.199-.58-.288-.579-.397-.01-.104.398-.19.792.076.397.264.475.672.375.703M185.02 32.38c-.006-.12.343-.272.81-.256.477.011.828.285.78.4-.045.116-.377.067-.794.057-.42-.015-.788-.07-.795-.2"/>
        <path fill="#22343D" d="M186.486 132.539s1.707 6.065 3.47 5.568c1.762-.496.437-8.961.437-8.961l-1.759-2.782s1.652 14.17-2.148 6.175M208.01 98.912s1.242-1.356 2.746-1.581c1.505-.226 6.884-.867 7.674-.151.79.715-4.36 3.114-4.36 3.114s1.795-1.144 1.05-1.57c-1.317-.753-7.11.188-7.11.188M205.876 100.536l1.684 3.423.92-.51-2.247-3.373zM187.046 123.679l-4.134 3.729 1.225 1.022 3.47-3.78zM100.624 86.548c-1.176-2.92-1.628-6.172-3.382-8.785-2.524-3.76-7.373-5.627-9.421-9.668-.87-1.716-1.143-3.679-1.152-5.602-.017-3.808 1.122-7.856 4.06-10.275 3.374-2.78 8.439-2.741 12.392-.874 3.952 1.868 6.972 5.258 9.54 8.8 2.567 3.54 4.815 7.34 7.806 10.531 2.217 2.366 4.846 4.406 6.516 7.186 4.579 7.62-.132 17.262-8.214 20.013-7.102 2.416-15.688-5.22-18.145-11.326"/>
        <path fill="#FFC6B2" d="M90.506 140.294c.703.578-.064.178.959.844-.228 2.558-2.591 4.169-2.591 4.169s-.1 4.071-.86 3.988c-.76-.083-.273-3.92-.273-3.92s-1.555 4.01-2.213 3.754c-.658-.254 1.723-4.856 1.723-4.856s-3.337 4.6-3.796 3.875c-.458-.725 2.479-5.163 2.479-5.163s-3.626 3.806-4.036 3.19c-.41-.615 4.327-5.908 4.327-5.908-2.192-.024-2.037-1.518-2.037-1.518l5.34.317s.655.96.978 1.228M141.522 63.506c.913.16.204-.142 1.39.203 1.947-1.77 1.689-4.554 1.689-4.554s3.266-2.622 2.724-3.135c-.545-.513-3.378 2.25-3.378 2.25s2.305-3.667 1.686-3.997c-.62-.329-2.894 4.322-2.894 4.322s1.673-5.36.794-5.249c-.879.113-2.672 5.074-2.672 5.074s.843-5.079.085-4.998c-.76.08-1.987 6.733-1.987 6.733-1.788-1.458-3.04-.525-3.04-.525l3.914 3.842s1.269-.039 1.689.034M119.166 85.742c1.652-.258 6.69 3.01 5.408 9.647-.108.558-.835 1.785-1.016 2.292-.228.643 1.554 2.994 1.554 2.994l-4.601 1.472c-.196-1.391.134-3.425-1.353-4.029-.556-.226-1.151-.37-1.676-.656-1.416-.774-2.173-2.469-2.755-3.855-.434-1.037-.765-2.152-.752-3.276.03-2.832 2.535-4.174 5.19-4.589"/>
        <path fill="#FFC6B2" d="M128.378 103.92c0-2.39-.757-3.301-3.261-3.301-2.505 0-5.811.912-5.811 3.3 0 2.39 1.769 5.38 4.274 5.38s4.798-2.99 4.798-5.38"/>
        <path fill="#FFC6B2" d="M126.4 99.461s7.789-8.04 9.347-15.913c1.557-7.874 4.205-20.652 4.205-20.652l2.96.813s1.403 17.462 0 20.136c-1.402 2.674-9.347 21.247-9.19 26L126.4 99.46zM112.518 103.353s-2.649.446-6.699 9.658c-4.05 9.211-16.512 26.36-16.512 26.36l2.026 1.867s12.15-9.062 14.486-14.559c2.336-5.497 5.296-12.331 6.699-12.035 1.401.298 7.32-7.874 0-11.291"/>
        <path fill="#FF7B5B" d="M133.368 111.074l3.627-10.02s-.56-4.7-7.717-6.385l-4.055 5.848 8.145 10.557zM113.727 102.584s-4.279.361-7.746 7.986c0 0 3.813 5.27 6.603 5.449 0 0 10.363-8.868 1.143-13.435"/>
        <path fill="#FFC6B2" d="M125.482 193.008s-6.176 12.625-6.898 10.287c-.72-2.338-.483-7.953-.095-8.755.388-.802 2.913-4.343 2.913-4.343l4.08 2.811z"/>
        <path fill="#654287" d="M125.954 132.985l5.647-2.162s16.762 29.647 16.693 37.873c-.07 8.224-23.021 24.693-23.021 24.693l-3.872-3.192s10.88-16.011 14.667-20.167c1.894-2.078-11.666-12.261-13.72-22.06-2.054-9.798 3.606-14.985 3.606-14.985"/>
        <path fill="#FFC6B2" d="M91.996 186.394s-11.553 8.524-11.072 6.132c.482-2.395 3.39-7.281 4.12-7.825.73-.543 4.674-2.588 4.674-2.588l2.278 4.28z"/>
        <path fill="#775298" d="M110.588 143.483l16.71-9.694s.663 33.676-3.349 40.957c-4.01 7.282-32.322 11.895-32.322 11.895l-1.909-4.528s17.467-10.418 22.83-12.457c5.363-2.04-1.96-26.173-1.96-26.173"/>
        <path fill="#775298" d="M120.54 127.157s-12.304 4.361-9.952 16.326c2.352 11.965 6.272 14.208 6.272 14.208l7.056-11.59L131 130.922l-7.084-.9-3.377-2.865z"/>
        <path fill="#FF7B5B" d="M126.4 99.461s9.059 5.082 9.059 16.565c0 0-1.151 13.092-3.016 15.954 0 0-3.032.74-6.812 0-3.963-.777-7.798-3.566-7.798-3.566l-3.096-16.029-2.408-9.359 1.305-.431 6.813-.749s-.979 10.188 6.629 5.128c1.602-1.065-1.995-6.377-1.995-6.377l1.32-1.136z"/>
        <path fill="#FFF" d="M131.945 56.066l18.993 11.09 10.683-20.2-17.806-9.904zM158.367 152.77l13.583-8.418-11.221-19.61-12.418 8.06z"/>
        <path fill="#22343D" d="M91.486 69.208c.036-.032.455.35 1.118 1.127.66.778 1.562 1.962 2.466 3.559a25.88 25.88 0 0 1 2.447 5.95c.663 2.326 1.109 4.94 2.129 7.457.53 1.243 1.171 2.401 1.935 3.425a18.56 18.56 0 0 0 2.506 2.687c1.799 1.515 3.683 2.558 5.362 3.16 1.677.61 3.114.884 4.113.983.998.11 1.561.127 1.562.192.003.04-.56.127-1.584.107-1.024-.008-2.515-.204-4.27-.767-1.758-.556-3.743-1.584-5.64-3.132a18.529 18.529 0 0 1-2.652-2.776c-.808-1.065-1.49-2.283-2.045-3.587-1.063-2.631-1.483-5.268-2.101-7.562a27.662 27.662 0 0 0-2.241-5.877 30.6 30.6 0 0 0-2.223-3.636c-.584-.824-.926-1.271-.882-1.31M114.82 56.232c.14-.021.275 1.85 1.322 4.619a20.821 20.821 0 0 0 2.415 4.556c.558.796 1.2 1.58 1.926 2.362.722.785 1.508 1.583 2.25 2.477 1.49 1.806 2.515 3.757 3.48 5.48.957 1.738 1.72 3.393 2.108 4.873.404 1.475.429 2.745.3 3.587-.134.847-.344 1.275-.379 1.264-.066-.018.042-.47.08-1.29.033-.82-.07-2.012-.523-3.407-.437-1.4-1.224-2.978-2.206-4.68-.996-1.702-2.03-3.614-3.453-5.334-.714-.861-1.489-1.656-2.215-2.46-.73-.802-1.393-1.636-1.953-2.47a19.428 19.428 0 0 1-2.343-4.775 17.274 17.274 0 0 1-.782-3.49c-.096-.839-.07-1.308-.027-1.312"/>
        <path fill="#FF7B5B" d="M120.643 92.956c-.007-.054.302-.102.594-.446.067-.08.135-.195.134-.262a.418.418 0 0 0-.139-.27.394.394 0 0 0-.323-.108c-.137.01-.303.078-.52.111-.477.063-.849-.206-1.093-.424a3.89 3.89 0 0 1-.586-.671c-.285-.42-.373-.724-.33-.747.05-.027.223.225.544.577.16.175.362.376.601.57.235.188.524.359.811.313.153-.02.33-.09.547-.105a.75.75 0 0 1 .6.231.712.712 0 0 1 .206.553c-.043.222-.16.325-.257.421-.419.367-.803.307-.79.257"/>
        <path fill="#FFF" d="M122.887 93.273L119.24 94.6s3.095 2.711 3.647-1.327"/>
        <path fill="#FFB2A0" d="M118.876 93.047c.145.277-.07.677-.482.895-.412.216-.864.168-1.01-.11-.146-.276.07-.677.482-.894.412-.217.864-.168 1.01.109M123.2 90.827c.12.29-.133.668-.563.846-.43.178-.876.087-.995-.202-.12-.29.132-.668.563-.846.43-.178.876-.088.995.202"/>
        <path fill="#FFA192" d="M119.348 98.215s1.22.249 2.776-.14c0 0-.767.746-2.02.919 0 0-.281-.52-.756-.779"/>
        <path fill="#22343D" d="M120.594 90.007a.326.326 0 1 1-.422.496.326.326 0 0 1 .422-.496M118.143 91.419a.326.326 0 1 1-.422.496.326.326 0 0 1 .422-.496M120.609 88.649c-.033.104-.337.1-.672.202-.337.09-.593.255-.676.184-.086-.06.113-.425.57-.555.457-.132.819.072.778.169M116.374 91.209c-.081-.06.047-.41.359-.76.315-.356.718-.475.76-.376.046.097-.2.324-.477.637-.28.313-.553.565-.642.499"/>
        <path fill="#FFC6B2" d="M114.999 93.92s-1.17-.983-1.732-.093c-.561.89 2.527 1.358 2.527 1.358L115 93.92z"/>
        <path fill="#775298" d="M86.868 183.624s-1.678.73-2.115 1.168c-.438.438-4.449 7.373-3.938 8.249.51.876 4.533-2.098 4.533-2.098s-3.366.638 1.52-7.32M119.597 192.795s-1.191 1.289-1.375 1.88c-.184.592-.513 8.599.347 9.136.858.539 3.206-3.88 3.206-3.88s-2.807 2.201-2.178-7.118"/>
    </g>
</svg>
