<svg xmlns="http://www.w3.org/2000/svg" xmlns:xlink="http://www.w3.org/1999/xlink" width="553" height="513" viewBox="0 0 553 513">
    <defs>
        <path id="a" d="M.028.839h150.79v73.769H.029z"/>
    </defs>
    <g fill="none" fill-rule="evenodd">
        <path fill="#F4F4F4" d="M389.63 47.192c-56.847-10.394-114.05 39.31-193.245 26.895-79.195-12.414-227.82 34.455-141.013 165.37 86.807 130.913 33.541 182.206 110.078 233 76.538 50.795 158.433 81.974 192.602-90.659 34.17-172.633 190.193-139.57 194.808-217.212 4.616-77.643-106.382-107-163.23-117.394z"/>
        <path fill="#FF7B5B" d="M121.966 348.94l-1.455-2.94L80 376.649 97.674 405 138 371.332z"/>
        <path fill="#D7D4D4" d="M82 377l15.038 27 .962-.445-13.392-25.245z"/>
        <path fill="#F5F3F3" d="M121.348 347.632l-39.233 29.014s.164.623 1.138 1.007c.975.384 1.538.288 1.538.288l41.248-28.19s-2.377-.552-3.24-1.194c-.864-.645-1.45-.925-1.45-.925"/>
        <path fill="#FF7B5B" d="M127.047 348.614l-42.992 28.674 13.963 26.423 2.25 3.66 42.993-31.773s-4.528-6.748-7.247-10.823c-2.719-4.075-8.056-13.684-8.346-14.3-.292-.615-.62-1.861-.62-1.861"/>
        <path fill="#775298" d="M481.596 150.656l1.215-2.477 33.815 25.8-14.751 23.864-33.662-28.34z"/>
        <path fill="#D7D4D4" d="M515.21 174.53l-12.96 22.38-.83-.37 11.543-20.924z"/>
        <path fill="#F5F3F3" d="M482.264 150.165l32.946 24.365s-.138.523-.957.845c-.818.323-1.29.24-1.29.24l-34.638-23.67s1.997-.463 2.721-1.003c.725-.541 1.218-.777 1.218-.777"/>
        <path fill="#775298" d="M477.478 150.99l36.103 24.078-11.725 22.19-1.89 3.072-36.104-26.68s3.804-5.667 6.086-9.089c2.284-3.422 6.765-11.492 7.009-12.009.244-.515.521-1.561.521-1.561"/>
        <path fill="#FF7B5B" d="M74.066 104.22s-2.553 1.765-1.276 4.707c1.276 2.942 6.873 11.669 14.435 11.374.31-.011-9.526-16.08-9.526-16.08h-3.633z"/>
        <path fill="#775298" d="M62.499 265.1s-9.456-8.436-12.483-6.925c-3.698 1.846-24.868 22.557-24.04 32.314.34 3.996 4.998.572 13.3-8.027 8.304-8.597 18.76-4.912 18.76-4.912l4.463-12.45zM85.472 279.323l-11.415-6.838s-29.588 27.698-24.965 31.391c3.506 2.8 5.567.289 13.87-8.309 8.301-8.597 18.82-3.654 18.82-3.654l3.69-12.59z"/>
        <path fill="#F3A683" d="M155.2 188.199l2.142 30.35-47.518-12.36z"/>
        <path fill="#112129" d="M109.824 207.233s41.565 2.616 47.1.772c0 0 8.123 79.678-6.331 88.274-14.454 8.599-46.89-3.991-46.89-3.991l8.758-17.194 18.882-1.229V243.16l-1.355.307-20.164-36.234z"/>
        <path fill="#22343D" d="M57.722 261.583s-10.454 4.3-7.071 14.74c0 0 35.687 27.941 53.053 21.492 9.729-3.61 20.18-31.173 27.49-54.72l25.73-35.09s-12.135.606-16.183.59c-7.737-.029-30.916-1.362-30.916-1.362s-12.108 63.255-16.422 64.79c-4.314 1.534-35.68-10.44-35.68-10.44"/>
        <path fill="#FFC6B2" d="M119.51 127.897s24.91-23.337 29.215-29.48c4.304-6.14 13.532-26.713 24.908-35.31l-5.535-11.669s3.384-1.841 5.535 3.07c0 0 7.994-15.965 9.84-15.66 1.846.307-3.69 12.284-3.69 12.284s7.69-11.055 9.842-10.747c2.15.308-5.536 12.428-5.536 12.428s8.61-9.972 9.84-8.744c1.23 1.228-6.765 8.744-6.765 8.744s8.61-4.937 9.533-3.31c.922 1.629-8.61 5.927-8.61 5.927s-.923 7.062-6.765 10.133c0 0-11.569 31.208-22.024 41.34l-33.588 34.856-6.2-13.862zM89.775 139.992s-23.601 24.654-29.793 28.894c-6.19 4.239-26.878 13.261-35.594 24.54l-11.634-5.635s-1.876 3.36 3.024 5.554c0 0-16.064 7.834-15.774 9.68.29 1.846 12.334-3.57 12.334-3.57s-11.143 7.575-10.855 9.726c.288 2.15 12.496-5.412 12.496-5.412s-10.065 8.503-8.846 9.742c1.217 1.242 8.818-6.67 8.818-6.67s-5.024 8.55-3.4 9.486c1.62.935 6.014-8.541 6.014-8.541s7.08-.854 10.212-6.66c0 0 29.604-11.76 39.85-22.107l36.84-26.065-13.692-12.962z"/>
        <path fill="#FFF" d="M98.623 130.167l-11.937 11.667 3.027 13.155s11.76 28.193 13.539 35.071c2.763 10.695-1.707 27.001-1.707 27.001s19.938-1.652 38.08-2.267c18.14-.613 24.076-6.449 24.076-6.449s-15.73-52.31-26.588-66.931c-10.862-14.62-14.812-19.197-14.812-19.197l-15.99 3.49-7.688 4.46z"/>
        <path fill="#FFF" d="M133.657 139.69l12.438-7.937s1.9-8.502-13.1-18.529l-17.588 11.004 18.25 15.461zM89.202 140.912c-6.82.955-19.28 18.212-20.67 18.18 0 0 8.77 14.29 15.717 14.753 0 0 30.571-36.52 4.953-32.933"/>
        <path fill="#FFC6B2" d="M113.272 129.684s-9.912-7.395-9.568-10.343c.087-.742 1.46-1.948 1.818-3.018 1.922-5.757-7.344-20.59-13.037-23.717-4.479-2.459-2.516-2.676-11.941 2.917-9.425 5.592-4.055 15.264.154 20.265 3.979 4.728 8.536 6.754 12.636 7.096l5.83 12.929 14.108-6.13z"/>
        <path fill="#FFC6B2" d="M95.388 139.948c-1.875-4.591 1.675-10.375 7.929-12.922 6.256-2.548 12.844-.89 14.722 3.7 1.874 4.589-4.42 11.49-7.934 12.92-3.513 1.431-12.844.892-14.717-3.698M80.698 115.789s-3.215-.178-3.571 1.962c-.358 2.139 5.892 2.139 8.214.534l-4.643-2.496z"/>
        <path fill="#FF7B5B" d="M82.306 117.75c-.611-3.865-4.737-6.74-4.531-10.506 1.977.014 3.247-2.431 2.347-4.52-.354-.822-.954-1.526-1.337-2.335-.382-.81-.484-1.87.103-2.327.278-.216.654-.254 1.014-.29 2.932-.3 7.955.577 10.653-.421 2.57-.95 5.322-2.801 5.055-5.943-.234-2.736-2.654-4.955-4.877-6.63-1.274-.962-4.913-3.475-6.286-3.248-2.096.35-2.603 3.14-2.755 5.478-1.466-1.395-3.628-1.17-4.903-.037-1.275 1.134-1.878 2.936-2.433 4.676-.557 1.74-1.146 3.546-2.403 4.701-1.172 1.079-3.027 1.894-2.783 3.726.289 2.183 3.145 2.959 4.466 4.82-.325-.456-.601 2.46-.414 2.955.564 1.489 1.97 2.474 2.988 3.613 2.166 2.428 3.225 4.87 6.096 6.289"/>
        <path fill="#FFF" d="M100.264 108.91l-7.324 3.783s8.798 6.376 7.324-3.782"/>
        <path fill="#FFB2A0" d="M90.188 110.41c.4.759-.193 1.855-1.323 2.45-1.131.595-2.372.46-2.773-.298-.399-.758.193-1.854 1.324-2.449 1.132-.594 2.371-.461 2.772.297M100.883 103.115c.4.759-.193 1.855-1.323 2.45-1.131.595-2.372.46-2.773-.298-.399-.758.193-1.854 1.325-2.449 1.13-.594 2.37-.461 2.77.297"/>
        <path fill="#FF7B5B" d="M95.151 108.643c-.034-.044.103-.224.42-.45.302-.235.828-.485 1.22-.905.386-.408.525-1.257-.067-1.376-.616-.21-1.315.497-2.117 1.166l-.589.489c-.181.165-.564.41-.96.361-.756-.122-1.078-.627-1.368-.963a6.685 6.685 0 0 1-1.137-2.196c-.393-1.363-.217-2.242-.122-2.234.132-.007.175.839.675 2.037.251.595.627 1.27 1.175 1.91.268.324.604.626.843.636.1.003.18-.03.368-.188.192-.16.386-.323.582-.489.404-.325.753-.654 1.215-.961.449-.302 1.09-.494 1.662-.298.612.16.971.872.865 1.368-.07.505-.32.877-.606 1.149-.604.503-1.143.625-1.483.776-.348.132-.54.215-.576.168"/>
        <path fill="#FFA192" d="M93.334 122.884s4.672.026 7.207-1.532c0 0-2.144 2.63-6.435 3.31l-.772-1.778z"/>
        <path fill="#22343D" d="M95.36 101.962c-.042.231-.695.302-1.386.607-.699.282-1.205.701-1.4.572-.2-.106.13-.94 1.076-1.336.945-.4 1.772-.06 1.71.157M86.204 107.96c-.176-.131.1-.882.773-1.635.681-.766 1.55-1.022 1.643-.809.097.21-.433.696-1.03 1.371-.605.673-1.194 1.215-1.386 1.072"/>
        <path fill="#FF7B5B" d="M82.655 106.8c-.378-.28-.673-1.48.775-3.095 1.463-1.652 3.097-1.361 3.293-.902.21.45-.334 1.091-1.617 2.544-1.303 1.448-2.04 1.761-2.45 1.453M90.347 100.435c-.21-.391.021-1.53 1.906-2.323 1.91-.82 3.184.084 3.166.554-.004.467-.723.795-2.4 1.517-1.693.709-2.446.678-2.672.252"/>
        <path fill="#775298" d="M492.265 111.763c.124.124-1.907 2.404-6.118 4.885-4.158 2.481-10.704 4.94-18.231 4.995-7.528.056-14.11-2.306-18.304-4.725-4.247-2.42-6.31-4.672-6.19-4.795.176-.222 2.485 1.677 6.736 3.755 4.212 2.087 10.558 4.158 17.744 4.106 7.188-.054 13.503-2.218 17.684-4.367 4.22-2.14 6.5-4.073 6.679-3.854M446.34 108.32c-.116.252-2.362-.68-6.147-1.523-1.887-.444-4.175-.787-6.727-1.103-2.558-.283-5.387-.508-8.373-.72-2.99-.209-5.85-.45-8.45-.77-2.595-.345-4.93-.754-6.854-1.273-3.86-1.006-6.047-2.197-5.97-2.365.1-.254 2.399.53 6.222 1.217 1.907.364 4.209.645 6.772.9 2.569.234 5.406.426 8.398.636 2.995.214 5.859.487 8.456.859 2.593.407 4.922.88 6.823 1.485 3.825 1.165 5.935 2.498 5.85 2.656"/>
        <g transform="translate(385.608 43.5)">
            <mask id="b" fill="#fff">
                <use xlink:href="#a"/>
            </mask>
            <path fill="#775298" d="M15.195 15.78c7.176-1.52 14.612-.21 21.848.993 7.238 1.204 14.752 2.29 21.826.35C71.644 13.624 81.341.737 94.59.84c5.453.044 10.595 2.369 15.91 3.6 6.599 1.528 13.472 1.364 20.159 2.454 6.685 1.091 13.59 3.776 17.37 9.39 4.481 6.663 3.253 16.06-1.451 22.57-4.704 6.51-12.236 10.474-19.954 12.72-5.382 1.567-11.118 2.473-15.777 5.59-4.712 3.153-7.79 8.228-12.18 11.813-11.016 8.996-28.162 6.418-39.541-2.114-2.86-2.145-5.51-4.633-8.723-6.202-13.065-6.386-31.856 2.068-43.109-9.551-11.426-11.8-9.799-31.58 7.902-35.328" mask="url(#b)"/>
        </g>
        <path fill="#FFB2A0" d="M397.217 287.807s11.971 25.62 13.372 20.878c1.396-4.747.934-16.141.185-17.768-.754-1.627-5.647-8.814-5.647-8.814l-7.91 5.704z"/>
        <path fill="#FFC6B2" d="M483.78 80.628c1.106 1.416.367-.105 1.621 1.94 5.212-.183 8.712-4.588 8.712-4.588s8.275.219 8.178-1.257c-.094-1.478-7.931-.926-7.931-.926s8.29-2.6 7.836-3.898c-.453-1.297-10.025 2.84-10.025 2.84s9.66-5.986 8.232-6.946c-1.427-.958-10.72 4.269-10.72 4.269s8.078-6.626 6.867-7.48c-1.207-.853-12.41 7.768-12.41 7.768.163-4.241-2.885-4.092-2.885-4.092l.127 10.355s1.887 1.363 2.397 2.015M361.136 33.758c-1.772.326-.397-.289-2.696.412-3.774-3.594-3.274-9.243-3.274-9.243s-6.33-5.32-5.28-6.36c1.056-1.043 6.548 4.566 6.548 4.566s-4.468-7.442-3.267-8.11c1.2-.67 5.61 8.77 5.61 8.77s-3.246-10.88-1.54-10.652c1.704.228 5.18 10.295 5.18 10.295s-1.635-10.306-.165-10.143c1.471.162 4.119 14.036 4.119 14.036 2.698-3.28 4.875-1.148 4.875-1.148l-6.837 7.508s-2.459-.08-3.273.069M404.081 77.015c-2.29-.375-7.826 3.298-10.596 9.286-1.549 3.351-2.617 6.756-.837 12.206.837 2.564 2.592 2.885 2.983 4.034.496 1.454-1.144 6.037-1.144 6.037l6.536 2.635c.424-3.149.906-6.316 4.12-7.683 1.201-.512 2.488-.836 3.621-1.485 3.063-1.753 4.698-5.586 5.955-8.725.94-2.344-4.899-15.365-10.638-16.305"/>
        <path fill="#FFB2A0" d="M396.303 166l-10.948-4.387s-32.491 60.164-32.357 76.855c.135 16.692 44.625 50.111 44.625 50.111l7.504-6.475s-13.737-23.916-21.08-32.348c-7.342-8.434 12.256-83.755 12.256-83.755"/>
        <path fill="#FFC6B2" d="M450.66 234.534s24.13-11.432 19.28-12.441c-4.847-1.005-16.186.38-17.748 1.26-1.565.88-8.34 6.333-8.34 6.333l6.809 4.848z"/>
        <path fill="#FFC6B2" d="M407.055 165.479l-16.607 6.033s-16.614 72.963-10.272 84.418c6.342 11.46 24.152 3.875 49.52-9.95l21.248-11.58-7.092-4.713s-24.725 4.837-31.668 9.661c0 0 3.622-10.253 8.455-24.724 4.83-14.473 8.161-29.246-13.584-49.145M386.613 115.772c0-4.85 1.562-8.355 6.418-8.355 4.855 0 11.565 1.7 11.565 6.548 0 4.85-3.825 12.724-8.682 12.724-4.854 0-9.301-6.067-9.301-10.917"/>
        <path fill="#FFC6B2" d="M390.448 106.723S375.35 90.41 372.33 74.429c-3.022-15.98-8.153-41.909-8.153-41.909l-5.737 1.65s-2.72 35.436 0 40.864c2.716 5.426 15.996 41.557 20.038 51.045l11.969-19.356zM406.667 119.437s1.16-5.073 20.25-11.97 55.105-29.25 55.105-29.25l3.594 4.105s-19.568 22.57-30.953 26.529c-11.385 3.96-35.567 19.569-38.053 20.817-3.763 1.89-3.717 4.268-9.943-10.23"/>
        <path fill="#22343D" d="M390.448 106.723s-15.34 4.963-15.34 28.268c0 0 .011 31.917 3.625 37.724 0 0 5.878 1.503 13.204 0 7.683-1.578 15.118-7.237 15.118-7.237l12.066-36.167-1.443-16.947-16.405-3.163s4.707 21.96-12.32 12.519c-3.31-1.835 4.867-14.293 4.867-14.293l-3.372-.704z"/>
        <path fill="#22343D" d="M377.469 125.676l-7.558-15.722s1.083-9.538 14.958-12.956c0 0 1.403 4.808 2.942 6.645 1.537 1.836 6.014 3.79 6.014 3.79l-16.356 18.243zM406.042 131.996l24.033-4.919s4.179-8.643-5.729-18.926c0 0-18.745 1.129-21.172 1.33-2.39.2-.748 2.035-.748 2.035l3.616 20.48zM378.696 164.94s-22.733 41.966-26.487 49.464c0 0 67.063 30.76 94.287-6.265 0 0-15.487-32.728-39.428-45.188l-10.327-3.086-17.641 4.874"/>
        <path fill="#FFC6B2" d="M413.839 92.923s2.589-2.585 4.182-.796c1.593 1.79-5.774 4.376-5.774 4.376l1.592-3.58z"/>
        <path fill="#775298" d="M461.204 57.66c.025.09-.975.521-2.885.974-1.905.458-4.733.873-8.242.945-3.51.07-7.682-.242-12.249-.86-4.569-.605-9.535-1.494-14.759-2.063-5.215-.557-10.23-.658-14.67.058-4.443.704-8.289 2.157-11.225 3.854-2.94 1.71-4.986 3.607-6.241 5.043-1.263 1.437-1.83 2.355-1.96 2.278-.069-.037.309-1.07 1.454-2.681 1.137-1.607 3.144-3.725 6.136-5.643 2.99-1.904 6.964-3.54 11.582-4.36 4.623-.83 9.795-.766 15.1-.199 5.312.579 10.281 1.518 14.8 2.2 4.517.694 8.598 1.119 12.035 1.199 6.89.192 11.06-1.03 11.124-.745"/>
        <path fill="#FF7B5B" d="M400.653 91.456c-.008.101-.745.171-1.871-.2-.279-.1-.608-.228-.913-.507a1.464 1.464 0 0 1-.378-.55 1.239 1.239 0 0 1 .009-.939c.036-.054.035-.183.105-.186l.218-.006c.141-.02.307.027.47.057.298.057.39.047.604.062.37.008.757-.03 1.14-.115 1.571-.33 2.625-1.472 3.096-2.412.496-.945.538-1.657.67-1.648.093-.012.277.744-.132 1.885-.208.558-.57 1.2-1.153 1.763a4.827 4.827 0 0 1-2.298 1.222 5.004 5.004 0 0 1-1.94.05c-.08-.015-.07-.033-.085-.022-.01.009-.016.026-.014.047a.79.79 0 0 0 .176.307c.167.188.41.33.65.45.973.475 1.665.618 1.646.742"/>
        <path fill="#FFF" d="M395.262 91.735l8.852 3.483s-7.78 5.357-8.852-3.483"/>
        <path fill="#FFB2A0" d="M407.895 93.41c-.314.597-1.289.702-2.18.235-.887-.467-1.354-1.33-1.038-1.925.314-.596 1.288-.7 2.178-.234.888.467 1.355 1.33 1.04 1.925M398.015 88.18c-.268.618-1.233.797-2.154.398-.923-.398-1.452-1.222-1.185-1.84.268-.619 1.232-.797 2.155-.399.92.399 1.451 1.222 1.184 1.84"/>
        <path fill="#FFA192" d="M394.735 101.43s3.104 2.595 6.341 1.76c0 0-1.116 1.67-5.413 1.057 0 0 .357-1.841-.928-2.817"/>
        <path fill="#22343D" d="M407.046 87.859a.701.701 0 1 1-1.403-.002.701.701 0 0 1 1.403.002M401.306 85.794a.701.701 0 1 1-1.403-.002.701.701 0 0 1 1.403.002"/>
        <path fill="#775298" d="M409.3 85.993c-.217.092-.635-.414-1.27-.823-.62-.428-1.249-.62-1.247-.854-.022-.225.857-.407 1.709.164.855.568 1.024 1.446.808 1.513M399.183 82.595c-.014-.219.74-.494 1.748-.466 1.027.02 1.785.518 1.681.725-.098.21-.813.121-1.714.103-.906-.026-1.7-.124-1.715-.362"/>
        <path fill="#22343D" d="M402.345 298.219s3.683 13.05 7.484 11.982c3.804-1.068.945-19.284.945-19.284l-3.795-5.988s3.564 30.493-4.634 13.29M448.783 225.855s2.679-2.918 5.924-3.403c3.247-.487 14.853-1.865 16.557-.325 1.705 1.54-9.406 6.703-9.406 6.703s3.872-2.463 2.265-3.38c-2.841-1.621-15.34.405-15.34.405M444.18 229.35l3.632 7.365 1.983-1.099-4.846-7.255zM403.552 279.152l-8.918 8.025 2.642 2.199 7.487-8.136zM217.096 199.248c-2.536-6.285-3.511-13.282-7.296-18.906-5.446-8.092-15.906-12.108-20.326-20.803-1.877-3.693-2.466-7.918-2.485-12.058-.036-8.194 2.42-16.903 8.758-22.11 7.282-5.982 18.208-5.899 26.737-1.88 8.527 4.02 15.042 11.315 20.583 18.935 5.539 7.62 10.389 15.796 16.84 22.664 4.784 5.092 10.457 9.482 14.06 15.463 9.878 16.4-.285 37.148-17.723 43.067-15.323 5.2-33.847-11.232-39.148-24.372"/>
        <path fill="#FFC6B2" d="M195.267 314.907c1.517 1.245-.138.382 2.068 1.817-.492 5.504-5.59 8.97-5.59 8.97s-.215 8.762-1.853 8.582c-1.64-.177-.59-8.435-.59-8.435s-3.356 8.629-4.776 8.08c-1.419-.548 3.72-10.45 3.72-10.45s-7.202 9.896-8.191 8.337c-.988-1.56 5.348-11.11 5.348-11.11s-7.824 8.19-8.708 6.864c-.883-1.323 9.337-12.713 9.337-12.713-4.73-.052-4.395-3.267-4.395-3.267l11.52.682s1.412 2.068 2.11 2.643M305.333 149.663c1.972.345.442-.307 3 .436 4.201-3.81 3.644-9.8 3.644-9.8s7.046-5.643 5.878-6.745c-1.176-1.105-7.288 4.841-7.288 4.841s4.973-7.89 3.637-8.6c-1.337-.71-6.244 9.3-6.244 9.3s3.61-11.537 1.713-11.296c-1.895.243-5.766 10.918-5.766 10.918s1.82-10.929.184-10.756c-1.637.173-4.286 14.49-4.286 14.49-3.858-3.137-6.559-1.13-6.559-1.13l8.444 8.268s2.737-.083 3.643.074M257.1 197.513c3.565-.555 14.435 6.478 11.668 20.761-.231 1.2-1.8 3.84-2.19 4.931-.494 1.384 3.351 6.444 3.351 6.444l-9.926 3.167c-.423-2.994.289-7.37-2.918-8.67-1.2-.487-2.485-.795-3.617-1.412-3.056-1.666-4.688-5.312-5.943-8.296-.937-2.23-1.651-4.63-1.624-7.05.065-6.093 5.47-8.981 11.2-9.875"/>
        <path fill="#FFC6B2" d="M276.977 236.631c0-5.141-1.634-7.103-7.037-7.103-5.403 0-12.537 1.962-12.537 7.103 0 5.142 3.816 11.577 9.222 11.577 5.403 0 10.352-6.435 10.352-11.577"/>
        <path fill="#FFC6B2" d="M272.71 227.036s16.803-17.3 20.164-34.244c3.361-16.945 9.073-44.443 9.073-44.443l6.386 1.75s3.026 37.577 0 43.333c-3.025 5.754-20.165 45.72-19.828 55.95l-15.795-22.346zM242.757 235.412s-5.713.958-14.451 20.782c-8.739 19.823-35.625 56.727-35.625 56.727l4.37 4.018s26.214-19.502 31.255-31.33c5.04-11.83 11.425-26.537 14.451-25.9 3.024.642 15.796-16.945 0-24.297"/>
        <path fill="#FF7B5B" d="M287.743 252.026l7.824-21.563s-1.206-10.114-16.65-13.74l-8.747 12.587 17.573 22.716zM245.366 233.758s-9.23.776-16.712 17.183c0 0 8.227 11.344 14.247 11.727 0 0 22.357-19.082 2.465-28.91"/>
        <path fill="#FFC6B2" d="M270.728 428.346s-13.325 27.168-14.882 22.138c-1.556-5.032-1.042-17.116-.206-18.841.837-1.726 6.284-9.346 6.284-9.346l8.804 6.05z"/>
        <path fill="#654287" d="M271.746 299.179l12.184-4.652s36.164 63.798 36.014 81.5c-.15 17.699-49.667 53.138-49.667 53.138l-8.353-6.868s23.47-34.456 31.643-43.399c4.087-4.472-25.17-26.386-29.601-47.472-4.432-21.086 7.78-32.247 7.78-32.247"/>
        <path fill="#FFC6B2" d="M198.482 414.112s-24.925 18.345-23.888 13.197c1.04-5.154 7.314-15.67 8.888-16.84 1.576-1.168 10.086-5.569 10.086-5.569l4.914 9.212z"/>
        <path fill="#775298" d="M238.593 321.77l36.052-20.86s1.43 72.468-7.224 88.137c-8.654 15.67-69.735 25.597-69.735 25.597l-4.118-9.744s37.684-22.419 49.254-26.806c11.57-4.39-4.229-56.323-4.229-56.323"/>
        <path fill="#775298" d="M260.064 286.637s-26.545 9.385-21.47 35.134c5.074 25.747 13.531 30.574 13.531 30.574l15.224-24.942 15.285-32.663-15.285-1.936-7.285-6.167z"/>
        <path fill="#FF7B5B" d="M272.71 227.036s19.543 10.937 19.543 35.648c0 0-2.484 28.174-6.506 34.332 0 0-6.541 1.593-14.697 0-8.55-1.673-16.826-7.675-16.826-7.675l-6.678-34.492-5.196-20.14 2.817-.93 14.698-1.61s-2.111 21.924 14.301 11.036c3.457-2.294-4.303-13.724-4.303-13.724l2.847-2.445z"/>
        <path fill="#FFF" d="M284.672 133.651l40.977 23.867 23.048-43.472-38.415-21.31zM341.677 341.755l29.307-18.115-24.211-42.2-26.79 17.346z"/>
        <path fill="#22343D" d="M197.381 161.934c.078-.07.982.75 2.413 2.423 1.425 1.675 3.369 4.222 5.32 7.66 1.958 3.422 3.896 7.765 5.279 12.806 1.432 5.003 2.392 10.627 4.593 16.045 1.143 2.676 2.528 5.167 4.177 7.37a39.982 39.982 0 0 0 5.406 5.784c3.88 3.26 7.945 5.503 11.567 6.8 3.619 1.313 6.719 1.902 8.874 2.115 2.153.236 3.37.273 3.37.413.007.088-1.206.273-3.417.23-2.21-.017-5.426-.438-9.214-1.65-3.79-1.196-8.073-3.409-12.168-6.74a39.918 39.918 0 0 1-5.72-5.975c-1.744-2.292-3.217-4.913-4.413-7.718-2.293-5.663-3.2-11.337-4.533-16.273a59.435 59.435 0 0 0-4.834-12.647c-1.78-3.44-3.545-6.047-4.797-7.825-1.26-1.774-1.997-2.735-1.903-2.818M247.725 134.01c.301-.047.594 3.981 2.85 9.938a44.767 44.767 0 0 0 5.212 9.804c1.204 1.714 2.589 3.402 4.156 5.085 1.557 1.69 3.252 3.405 4.855 5.33 3.213 3.885 5.424 8.084 7.507 11.79 2.066 3.743 3.712 7.303 4.549 10.488.872 3.175.924 5.908.648 7.72-.29 1.822-.744 2.745-.819 2.72-.144-.038.09-1.012.173-2.777.072-1.762-.153-4.33-1.128-7.33-.945-3.014-2.642-6.41-4.76-10.073-2.15-3.661-4.38-7.776-7.45-11.477-1.54-1.854-3.212-3.564-4.778-5.296-1.575-1.723-3.007-3.518-4.214-5.314-2.425-3.595-4.043-7.178-5.057-10.276a37.092 37.092 0 0 1-1.687-7.51c-.207-1.805-.151-2.814-.057-2.823"/>
        <path fill="#FF7B5B" d="M260.287 213.038c-.015-.116.652-.22 1.282-.96.146-.171.292-.42.29-.565a.898.898 0 0 0-.3-.582.85.85 0 0 0-.697-.23c-.295.022-.654.168-1.124.238-1.028.137-1.83-.443-2.357-.913a8.379 8.379 0 0 1-1.264-1.444c-.614-.904-.805-1.558-.711-1.606.109-.058.48.483 1.172 1.241.346.377.783.81 1.298 1.226.508.405 1.13.773 1.75.675.329-.042.712-.195 1.18-.227a1.622 1.622 0 0 1 1.293.498c.309.333.482.726.445 1.19-.092.476-.344.699-.554.906-.903.79-1.732.66-1.703.553"/>
        <path fill="#FFF" d="M265.13 213.719l-7.87 2.857s6.677 5.835 7.87-2.857"/>
        <path fill="#FFB2A0" d="M256.475 213.232c.314.597-.151 1.46-1.04 1.927-.89.466-1.864.362-2.179-.235-.314-.595.152-1.457 1.04-1.925.89-.467 1.864-.362 2.179.233M265.804 208.455c.258.624-.286 1.439-1.214 1.822-.929.382-1.89.188-2.148-.435-.257-.623.287-1.437 1.216-1.82.927-.383 1.889-.19 2.146.433"/>
        <path fill="#FFA192" d="M257.493 224.355s2.633.535 5.99-.302c0 0-1.655 1.605-4.358 1.978 0 0-.606-1.118-1.632-1.676"/>
        <path fill="#22343D" d="M260.183 206.691a.7.7 0 0 1 .08.987.7.7 0 1 1-1.07-.905.701.701 0 0 1 .99-.082M254.894 209.73a.7.7 0 1 1-.907 1.067.7.7 0 1 1 .907-1.068M260.214 203.768c-.07.225-.727.216-1.449.435-.728.196-1.28.55-1.46.397-.185-.128.245-.914 1.232-1.194.985-.285 1.766.154 1.677.362M251.078 209.277c-.176-.13.1-.881.773-1.632.68-.768 1.55-1.024 1.641-.81.098.208-.433.695-1.029 1.37-.605.673-1.194 1.216-1.385 1.072"/>
        <path fill="#FFC6B2" d="M248.11 215.113s-2.524-2.117-3.736-.202c-1.21 1.916 5.452 2.924 5.452 2.924l-1.716-2.722z"/>
        <path fill="#775298" d="M187.417 408.15s-3.618 1.572-4.562 2.515c-.944.942-9.598 15.866-8.496 17.752 1.102 1.885 9.78-4.515 9.78-4.515s-7.262 1.373 3.278-15.751M258.032 427.886s-2.57 2.774-2.967 4.048c-.397 1.272-1.107 18.503.747 19.66 1.853 1.158 6.918-8.35 6.918-8.35s-6.055 4.737-4.698-15.318"/>
        <g transform="rotate(-26 183.734 -35.142)">
            <rect width="1" height="14" x="6" y="11" fill="#F89C1D" rx=".5"/>
            <path stroke="#F89C1D" stroke-linecap="round" stroke-linejoin="round" stroke-width="3" d="M6 24c.005 3.365-.276 5.733-.84 7.101C4.2 33.425 2.721 35.073 0 37"/>
            <path fill="#2C2745" d="M41.653 17.414l-.372-5.315 13.035-5.317a1 1 0 0 0-.273-1.92L27.918 2.102a1 1 0 0 0-.467.062L3.965 11.287a1 1 0 0 0 .156 1.91L14.79 15.44l.66 9.439 16.171.002 10.032-7.466z"/>
        </g>
        <g transform="rotate(41 227.668 563.578)">
            <rect width="1" height="14" x="6" y="11" fill="#F89C1D" rx=".5"/>
            <path stroke="#F89C1D" stroke-linecap="round" stroke-linejoin="round" stroke-width="3" d="M6 24c.005 3.365-.276 5.733-.84 7.101C4.2 33.425 2.721 35.073 0 37"/>
            <path fill="#2C2745" d="M41.653 17.414l-.372-5.315 13.035-5.317a1 1 0 0 0-.273-1.92L27.918 2.102a1 1 0 0 0-.467.062L3.965 11.287a1 1 0 0 0 .156 1.91L14.79 15.44l.66 9.439 16.171.002 10.032-7.466z"/>
        </g>
    </g>
</svg>
