<svg xmlns="http://www.w3.org/2000/svg" width="24" height="24" viewBox="0 0 24 24">
    <g fill="none" fill-rule="evenodd" stroke="#BEBEBE" stroke-width="2">
        <path d="M23 8.25A7.233 7.233 0 0 0 15.75 1a7.25 7.25 0 0 0-6.886 9.523l.193.585-.436.435-7.584 7.584a.125.125 0 0 0-.037.089v3.659c0 .069.056.125.125.125h5.25a.125.125 0 0 0 .125-.125V20h2.875a.125.125 0 0 0 .125-.125V17h2.745c.036 0 .07-.015.093-.042l1.502-1.69.557.105A7.25 7.25 0 0 0 23 8.25z"/>
        <path d="M14 7.875a2.125 2.125 0 1 0 4.25 0 2.125 2.125 0 0 0-4.25 0z"/>
    </g>
</svg>
