<svg xmlns="http://www.w3.org/2000/svg" width="230" height="50" viewBox="0 0 230 50">
    <g fill="none" fill-rule="nonzero">
        <path fill="#6947FF" d="M19.26 47.828L3.154 15.524l5.893 3.938v4.818c0 .3.147.58.395.747l8.984 6.01a.883.883 0 0 0 .972.002l9.117-6.01a.897.897 0 0 0 .403-.75v-1.597l7.127 14.087-16.787 11.06.002-.001zM2.501 37.041l7.05-4.711L16.6 46.468 2.502 37.04l-.001.001zm24.65-16.404v3.157l-8.23 5.424-8.107-5.419v-3.148l7.612 5.09a.89.89 0 0 0 .972.001l7.753-5.105zm-9.088-7.695l.97-.65.983.65-.983.645-.97-.645zM9.97 7.948l6.179 4.13-.177.116a.906.906 0 0 0-.395.748c0 .3.15.58.397.745l2.57 1.716a.86.86 0 0 0 .969.002l2.608-1.715a.895.895 0 0 0 .402-.748.902.902 0 0 0-.402-.75l-2.608-1.718a.872.872 0 0 0-.97.002l-.79.53-6.181-4.129 7.35-4.913 16.656 10.978-16.656 10.973-16.42-10.973 7.467-4.994h.001zm19.216 11.337l8.495-5.595a.9.9 0 0 0 0-1.498L19.4.146a.876.876 0 0 0-.973.002S.42 12.19.411 12.194c-.372.251-.538.79-.3 1.194L8.75 30.72.41 36.294a.896.896 0 0 0-.395.746c0 .3.147.58.395.747l17.892 11.965c.278.167.616.33.935.2.334-.133.993-.63 1.253-.804.932-.613 1.868-1.228 2.8-1.845 1.262-.83 2.523-1.658 3.783-2.492 1.348-.887 2.697-1.774 4.043-2.663 1.195-.785 2.388-1.572 3.583-2.36.652-.429 1.307-.86 1.96-1.292.34-.221.668-.442 1.004-.66a.895.895 0 0 0 .37-.506.909.909 0 0 0-.083-.692c-.099-.179-.168-.37-.262-.548-.172-.334-.338-.67-.508-1.005-.542-1.07-1.082-2.141-1.622-3.21-.687-1.355-1.372-2.709-2.059-4.062l-2.042-4.04a1822.926 1822.926 0 0 0-2.273-4.489l.002.001z"/>
        <path fill="#352480" d="M55.462 29.996c-.032-.551.293-.844.813-.844h3.58c.49 0 .749.26.847.78.26 1.166 1.237 1.75 3.156 1.75 2.116 0 2.8-.81 2.8-1.75 0-1.33-1.627-1.914-3.613-2.596-3.221-1.102-7.29-2.43-7.29-7.39 0-4.54 3.71-6.81 7.583-6.81 3.808 0 7.453 2.042 7.843 6.744.032.55-.292.842-.813.842h-3.58c-.489 0-.748-.26-.847-.777-.26-1.2-1.106-1.751-2.603-1.751-1.627 0-2.376.811-2.376 1.751 0 1.362 1.335 2.01 3.222 2.69 3.255 1.136 7.682 2.303 7.682 7.296 0 4.54-3.646 6.808-8.008 6.808-4.263 0-8.006-2.042-8.396-6.743zm32.428-9.111v14.59c0 .518-.292.81-.813.81h-3.254c-.52 0-.813-.292-.813-.81v-.67c-.766 1.126-2.152 1.933-4.232 1.933-3.026 0-5.206-2.333-5.206-6.385v-9.468c0-.519.292-.81.813-.81h3.254c.52 0 .813.291.813.81v9.046c0 1.622.944 2.333 2.18 2.333 1.466 0 2.378-.81 2.378-2.722v-8.657c0-.519.293-.81.813-.81h3.254c.52 0 .813.291.813.81zm18.575 10.148c-1.009 3.372-4.198 5.705-8.006 5.705-4.947 0-8.623-3.727-8.623-8.56 0-4.83 3.676-8.558 8.623-8.558 3.808 0 6.997 2.335 8.006 5.707.196.551-.13.907-.684.907h-3.579c-.423 0-.716-.194-.977-.55-.586-.81-1.595-1.266-2.766-1.266-2.115 0-3.743 1.525-3.743 3.76 0 2.24 1.628 3.763 3.743 3.763 1.171 0 2.18-.454 2.766-1.232.261-.39.522-.585.977-.585h3.579c.554 0 .88.358.684.909zm18.163 0c-1.007 3.372-4.198 5.705-8.004 5.705-4.948 0-8.625-3.727-8.625-8.56 0-4.83 3.677-8.558 8.625-8.558 3.806 0 6.997 2.335 8.004 5.707.196.551-.129.907-.683.907h-3.58c-.423 0-.715-.194-.976-.55-.585-.81-1.594-1.266-2.765-1.266-2.117 0-3.745 1.525-3.745 3.76 0 2.24 1.628 3.763 3.745 3.763 1.17 0 2.18-.454 2.765-1.232.261-.39.52-.585.976-.585h3.58c.554 0 .879.358.683.909zm13.668-4.604c-.502-1.844-1.938-2.496-3.374-2.496-1.83 0-3.097.88-3.599 2.496h6.973zm4.86 1.75c0 .422-.033.812-.066 1.2-.064.52-.39.745-.878.745h-10.868c.592 1.927 2.11 2.694 3.807 2.694.91 0 1.822-.325 2.408-.813.326-.257.585-.42 1.008-.42l3.124-.032c.586 0 .912.387.651.906-1.268 2.82-3.938 4.28-7.256 4.28-5.405 0-8.853-3.73-8.853-8.56s3.579-8.56 8.722-8.56c4.752 0 8.2 3.666 8.2 8.56h.001zm15.042 3.243c0 3.729-3.19 5.317-6.77 5.317-3.318 0-6.312-1.491-6.704-4.927-.065-.552.261-.845.781-.845h3.19c.49 0 .65.26.878.682.26.552.88.875 1.855.875 1.367 0 1.888-.453 1.888-1.102 0-2.335-8.493-.195-8.493-6.484 0-3.664 3.189-5.319 6.605-5.319 3.027 0 5.989 1.494 6.38 4.93.065.55-.26.842-.781.842h-3.19c-.488 0-.652-.258-.878-.713-.229-.518-.783-.843-1.53-.843-1.205 0-1.726.453-1.726 1.103 0 2.399 8.495.162 8.495 6.484zm14.949 0c0 3.729-3.19 5.317-6.77 5.317-3.319 0-6.312-1.491-6.704-4.927-.065-.552.261-.845.782-.845h3.189c.488 0 .65.26.878.682.261.552.88.875 1.856.875 1.367 0 1.887-.453 1.887-1.102 0-2.335-8.493-.195-8.493-6.484 0-3.664 3.19-5.319 6.606-5.319 3.026 0 5.988 1.494 6.378 4.93.065.55-.26.842-.78.842h-3.19c-.488 0-.651-.258-.879-.713-.228-.518-.781-.843-1.53-.843-1.204 0-1.724.453-1.724 1.103 0 2.399 8.494.162 8.494 6.484z"/>
        <path fill="#6647FF" d="M192.897 14.4v21.075c0 .518-.293.81-.813.81h-3.58c-.521 0-.815-.292-.815-.81V27.11h-6.51v8.365c0 .518-.292.81-.812.81h-3.58c-.521 0-.814-.292-.814-.81V14.4c0-.52.293-.81.813-.81h3.58c.521 0 .814.29.814.81v7.716h6.509V14.4c0-.52.294-.81.814-.81h3.58c.521 0 .814.29.814.81m16.793 6.485v14.59c0 .518-.292.81-.813.81h-3.255c-.52 0-.814-.292-.814-.81v-.67c-.764 1.126-2.15 1.933-4.23 1.933-3.028 0-5.206-2.333-5.206-6.385v-9.468c0-.519.291-.81.813-.81h3.253c.522 0 .814.291.814.81v9.046c0 1.622.944 2.333 2.18 2.333 1.466 0 2.376-.81 2.376-2.722v-8.657c0-.519.293-.81.814-.81h3.255c.52 0 .814.291.814.81m15.041 7.295c0-2.431-1.628-3.955-3.873-3.955-2.246 0-3.872 1.524-3.872 3.954 0 2.432 1.626 3.956 3.872 3.956 2.245 0 3.873-1.524 3.873-3.956m4.88 0c0 4.83-3.515 8.56-7.776 8.56-2.179 0-3.763-.732-4.85-1.97v.706c0 .519-.294.81-.815.81h-3.253c-.522 0-.813-.291-.813-.81V14.401c0-.52.29-.81.813-.81h3.253c.521 0 .816.29.816.81v7.188c1.086-1.236 2.67-1.969 4.849-1.969 4.261 0 7.777 3.729 7.777 8.56"/>
    </g>
</svg>
