<svg xmlns="http://www.w3.org/2000/svg" width="24" height="24" viewBox="0 0 24 24">
    <path fill="#BEBEBE" fill-rule="evenodd" d="M18.718 13.543a8.437 8.437 0 1 0-13.437 0A5.998 5.998 0 0 0 0 19.5v1.336A3.168 3.168 0 0 0 3.164 24h17.672A3.168 3.168 0 0 0 24 20.836V19.5a5.998 5.998 0 0 0-5.282-5.957zM12 2.25a6.187 6.187 0 1 1 0 12.375A6.187 6.187 0 0 1 12 2.25zm9.75 18.586c0 .505-.41.914-.914.914H3.164a.914.914 0 0 1-.914-.914V19.5A3.75 3.75 0 0 1 6 15.75h1.788a8.442 8.442 0 0 0 8.424 0H18a3.75 3.75 0 0 1 3.75 3.75v1.336z"/>
</svg>
