<svg xmlns="http://www.w3.org/2000/svg" width="16" height="16" viewBox="0 0 16 16">
    <path fill="#CAC0FF" fill-rule="evenodd" d="M13.76 12.48l-1.25 1.32v-1.313l1.25-.007zM1.332 2.916H3.68v.904c0 .386.297.7.666.7.37 0 .666-.314.666-.7v-.904h5.97v.904c0 .386.296.7.665.7.37 0 .666-.314.666-.7v-.904h2.348v8.166h-2.818c-.405 0-.672.232-.672.7v2.824H1.332V2.916zM11.654 0c.335 0 .611.26.659.596l.007.103v.82h3.014c.335 0 .611.258.656.595l.007.103v9.594a.722.722 0 0 1-.125.41l-.068.083-3.308 3.49a.663.663 0 0 1-.368.197l-.105.009H.666a.677.677 0 0 1-.659-.596L0 15.301V2.217c0-.35.246-.641.567-.689l.1-.006h3.016V.699C3.683.313 3.98 0 4.35 0c.336 0 .612.26.66.596l.006.103v.823h5.973V.699c0-.386.297-.699.666-.699zm-5.13 5.417h-1.28c-.369 0-.67.314-.67.702 0 .389.301.702.67.702h.607v4.585c0 .388.3.702.67.702.369 0 .67-.314.67-.702v-5.29a.68.68 0 0 0-.667-.699zm3.592 0h-1.28c-.369 0-.67.314-.67.702 0 .389.301.702.67.702h.607v4.585c0 .388.3.702.67.702.369 0 .67-.314.67-.702v-5.29a.68.68 0 0 0-.667-.699z"/>
</svg>