<svg xmlns="http://www.w3.org/2000/svg" xmlns:xlink="http://www.w3.org/1999/xlink" width="16" height="16" viewBox="0 0 16 16">
    <defs>
        <path id="a" d="M14.63 9.94H1.33V1.33h13.298v8.61h.003-.001zM15.295 0c.368 0 .664.296.667.664v9.944a.663.663 0 0 1-.664.664h-3.827l2.124 3.69a.666.666 0 0 1-1.153.665l-2.508-4.355H6.025l-2.508 4.355a.665.665 0 0 1-1.153-.664l2.124-3.694H.664A.663.663 0 0 1 0 10.605V.665C0 .295.296 0 .664 0h14.631zM2.665 8.729c.253.215.771.104.934-.114l2.143-2.746 3.26 2.238c.29.198.684.136.9-.137l3.514-4.485a.664.664 0 0 0-.114-.935.667.667 0 0 0-.935.114l-3.13 3.993-3.26-2.237a.668.668 0 0 0-.903.14L2.547 7.8c-.225.284-.163.69.117.929h.001z"/>
    </defs>
    <use fill="#CAC0FF" fill-rule="evenodd" xlink:href="#a"/>
</svg>