<svg xmlns="http://www.w3.org/2000/svg" width="15" height="16" viewBox="0 0 15 16">
    <path fill="#CAC0FF" fill-rule="evenodd" d="M6.403 14.91l-.617-1.51a.122.122 0 0 0-.178-.057l-1.387.859c-.9.557-2.026-.26-1.774-1.29l.388-1.584a.122.122 0 0 0-.11-.151l-1.627-.121C.042 10.978-.388 9.655.42 8.97l1.246-1.054a.122.122 0 0 0 0-.186L.42 6.676c-.808-.685-.378-2.008.678-2.086l1.627-.12a.122.122 0 0 0 .11-.152l-.388-1.585C2.195 1.705 3.32.887 4.22 1.444l1.387.86a.122.122 0 0 0 .178-.058l.617-1.51c.401-.98 1.792-.981 2.193 0l.618 1.51a.122.122 0 0 0 .177.057l1.388-.859c.9-.557 2.026.26 1.774 1.29l-.388 1.584a.122.122 0 0 0 .11.151l1.627.12c1.056.08 1.486 1.402.678 2.086L13.334 7.73a.122.122 0 0 0 0 .186L14.58 8.97c.81.686.376 2.008-.678 2.086l-1.627.12a.122.122 0 0 0-.11.152l.388 1.585c.252 1.028-.874 1.846-1.774 1.289l-1.388-.86a.122.122 0 0 0-.177.058l-.618 1.51c-.402.984-1.793.978-2.193 0zm.514-1.972l.583 1.424.582-1.424a1.345 1.345 0 0 1 1.953-.635l1.308.81-.366-1.495a1.345 1.345 0 0 1 1.207-1.66l1.535-.114-1.175-.995a1.345 1.345 0 0 1 0-2.052l1.175-.995-1.535-.114a1.345 1.345 0 0 1-1.207-1.66l.366-1.495-1.308.81a1.345 1.345 0 0 1-1.953-.635L7.5 1.284l-.583 1.424a1.345 1.345 0 0 1-1.952.635l-1.309-.81.366 1.495c.198.808-.378 1.599-1.206 1.66l-1.535.114 1.175.995a1.345 1.345 0 0 1 0 2.052l-1.175.995 1.535.114c.83.061 1.404.854 1.206 1.66l-.366 1.495 1.309-.81a1.345 1.345 0 0 1 1.952.635zm.583-1.203a3.916 3.916 0 0 1-3.911-3.912A3.916 3.916 0 0 1 7.5 3.912a3.916 3.916 0 0 1 3.912 3.911A3.916 3.916 0 0 1 7.5 11.735zm0-6.357a2.447 2.447 0 0 0-2.445 2.445A2.447 2.447 0 0 0 7.5 10.268a2.447 2.447 0 0 0 2.445-2.445A2.447 2.447 0 0 0 7.5 5.378z"/>
</svg>
