<svg xmlns="http://www.w3.org/2000/svg" width="25" height="32" viewBox="0 0 25 32">
    <path fill="#F0EFF6" fill-rule="evenodd" d="M12.576 30.61L2.06 9.935l3.849 2.52v3.084c0 .192.096.372.258.479l5.866 3.845a.585.585 0 0 0 .635.002l5.954-3.846a.57.57 0 0 0 .262-.48v-1.022l4.654 9.015-10.962 7.078zM1.634 23.706l4.603-3.015 4.603 9.048-9.206-6.033zM17.73 13.207v2.021L12.356 18.7l-5.294-3.47v-2.015l4.971 3.258a.59.59 0 0 0 .635.001l5.062-3.268v.001zm-5.934-4.924l.633-.416.643.416-.643.413-.633-.413zM6.51 5.086l4.035 2.644-.116.074a.57.57 0 0 0 .002.956l1.677 1.098c.193.124.44.125.633.001l1.703-1.098a.57.57 0 0 0 0-.958l-1.703-1.1a.58.58 0 0 0-.633.002l-.516.339L7.556 4.4l4.8-3.144 10.876 7.026-10.876 7.023L1.634 8.283 6.51 5.086zm12.548 7.257l5.547-3.582a.57.57 0 0 0 0-.958L12.668.093a.582.582 0 0 0-.635.002L.268 7.805c-.243.16-.35.505-.196.763l5.643 11.093L.268 23.23a.57.57 0 0 0 0 .956l11.684 7.657c.182.107.402.211.61.128.218-.085.649-.403.819-.514.609-.393 1.22-.786 1.829-1.182.823-.53 1.647-1.06 2.47-1.594l2.64-1.705c.78-.502 1.559-1.006 2.34-1.51.425-.274.853-.55 1.279-.827.222-.141.437-.282.656-.422a.574.574 0 0 0 .187-.767c-.064-.114-.11-.236-.17-.35-.113-.215-.221-.43-.332-.644L23.22 20.4c-.448-.868-.895-1.734-1.344-2.6l-1.334-2.586c-.493-.958-.988-1.915-1.484-2.872v.001z"/>
</svg>
