<svg xmlns="http://www.w3.org/2000/svg" width="16" height="16" viewBox="0 0 16 16">
    <path fill="#CAC0FF" fill-rule="nonzero" d="M5.26 6.853c-1.603 0-2.909-1.26-2.909-2.814s1.306-2.814 2.91-2.814c1.603 0 2.909 1.263 2.909 2.814 0 1.55-1.306 2.814-2.91 2.814zm7.4-1.671c1.841 0 3.34 1.703 3.34 3.794v2.436a.664.664 0 0 1-.666.665H11v3.218a.664.664 0 0 1-.666.664H.666A.664.664 0 0 1 0 15.295v-4.348C0 8.983 1.603 7.384 3.576 7.38h3.853c.218 0 .434.02.643.059.454-1.407 1.548-2.257 2.965-2.257h1.623zm2.008 5.57V8.98c0-1.359-.901-2.466-2.008-2.466h-1.623c-.843 0-1.453.508-1.718 1.41a3.57 3.57 0 0 1 1.679 2.827h3.67v.001zm-5 3.882h-.003v-3.687a2.24 2.24 0 0 0-2.24-2.234H3.572a2.24 2.24 0 0 0-2.24 2.234v3.687h8.337-.001zm4.608-10.556c-.366.687-4.382.772-4.862 0-.245-.4.068-.782.196-.954.127-.173.248-.333.254-.584C9.914.769 10.909.068 11.752.006l.117-.003c.944.033 1.914.828 1.956 2.537.007.251.128.41.255.584.13.172.418.54.196.954zM11.2 2.576a2 2 0 0 1-.153.723c.075.004 1.547.004 1.596 0a2.043 2.043 0 0 1-.15-.723c-.023-.879-.356-1.218-.647-1.24-.284.025-.623.364-.646 1.24z"/>
</svg>