<svg xmlns="http://www.w3.org/2000/svg" width="16" height="18" viewBox="0 0 16 18">
    <path fill="#8A85A6" fill-rule="nonzero" d="M6.727 16.417H2.8a1.393 1.393 0 0 1-1.391-1.39V4.521c0-.767.624-1.392 1.391-1.392h2.188v.348a2.09 2.09 0 0 0 2.086 2.087 2.09 2.09 0 0 0 2.087-2.087V3.13h2.192c.767 0 1.391.625 1.391 1.392v5.287a.696.696 0 1 0 1.391 0V4.522a2.786 2.786 0 0 0-2.782-2.783H9.16V.696A.696.696 0 0 0 8.466 0H5.683a.696.696 0 0 0-.696.696v1.043H2.8A2.786 2.786 0 0 0 .017 4.522v10.504A2.786 2.786 0 0 0 2.8 17.81h3.927a.696.696 0 0 0 0-1.392zM6.379 1.391H7.77v2.087a.696.696 0 0 1-1.391 0V1.391zm4.974 7.026a.696.696 0 0 1-.696.696H5.892a.696.696 0 1 1 0-1.391h4.765c.384 0 .696.311.696.695zm0 2.783a.696.696 0 0 1-.696.696h-4.73a.696.696 0 1 1 0-1.392h4.73c.384 0 .696.312.696.696zM4.188 8.417a.696.696 0 1 1-1.392 0 .696.696 0 0 1 1.392 0zm0 2.783a.696.696 0 1 1-1.392 0 .696.696 0 0 1 1.392 0zm11.66 1.099l-3.442 4.809a1.793 1.793 0 0 1-1.417.699c-.457 0-.901-.176-1.234-.493l-.006-.006-2.22-2.167a.696.696 0 0 1 .972-.995l2.216 2.162c.11.103.233.11.298.107a.394.394 0 0 0 .274-.137l3.428-4.79a.696.696 0 0 1 1.132.81z"/>
</svg>
