<svg xmlns="http://www.w3.org/2000/svg" xmlns:xlink="http://www.w3.org/1999/xlink" width="16" height="16" viewBox="0 0 16 16">
    <defs>
        <path id="a" d="M14.668 10.188a8.056 8.056 0 0 0-2.433-.353c-1.489 0-2.962.343-4.385.676-1.414.33-2.746.643-4.082.643-.881 0-1.681-.14-2.432-.43V2.611c.76.239 1.564.353 2.432.353 1.49 0 2.962-.343 4.385-.676 1.414-.33 2.747-.643 4.082-.643.885 0 1.685.14 2.433.43v8.112zm.947-9.15C14.573.552 13.469.317 12.232.317c-1.49 0-2.962.343-4.385.676-1.411.33-2.747.64-4.082.64a6.683 6.683 0 0 1-2.433-.431V.666A.665.665 0 0 0 .666 0 .665.665 0 0 0 0 .666v14.668c0 .369.297.666.666.666a.665.665 0 0 0 .666-.666V12.13c.761.238 1.564.356 2.433.356 1.489 0 2.962-.343 4.385-.676 1.414-.33 2.75-.644 4.082-.644 1.035 0 1.972.167 2.818.598.467.238.95.108.95-.604V1.642a.662.662 0 0 0-.385-.604z"/>
    </defs>
    <use fill="#8A85A6" fill-rule="nonzero" xlink:href="#a"/>
</svg>
