<svg id="svg" version="1.1" width="400" height="228.57142857142858" viewBox="0 0 400 228.57142857142858" xmlns="http://www.w3.org/2000/svg" xmlns:xlink="http://www.w3.org/1999/xlink" ><g id="svgg"><path id="path1" d="M59.381 1.886 C 59.319 3.644,59.279 3.776,58.800 3.844 C 58.517 3.885,58.286 4.013,58.286 4.130 C 58.286 4.247,58.169 4.343,58.027 4.343 C 57.884 4.343,57.582 4.558,57.354 4.820 C 57.116 5.095,56.547 5.350,56.013 5.422 C 55.503 5.490,55.086 5.635,55.086 5.744 C 55.086 5.854,54.931 5.943,54.743 5.943 C 54.554 5.943,54.400 6.046,54.400 6.171 C 54.400 6.297,54.194 6.400,53.943 6.400 C 53.691 6.400,53.486 6.498,53.486 6.618 C 53.486 6.738,53.129 6.903,52.694 6.985 C 52.203 7.077,51.849 7.298,51.764 7.567 C 51.688 7.805,51.535 8.000,51.424 8.000 C 51.160 8.000,50.057 9.103,50.057 9.366 C 50.057 9.478,49.857 9.633,49.612 9.711 C 49.367 9.788,49.103 10.052,49.025 10.297 C 48.947 10.542,48.722 10.743,48.525 10.743 C 48.328 10.743,47.928 11.000,47.637 11.314 C 47.346 11.629,46.996 11.886,46.860 11.886 C 46.505 11.886,45.257 13.214,45.257 13.592 C 45.257 13.768,45.051 13.977,44.800 14.057 C 44.549 14.137,44.343 14.394,44.343 14.628 C 44.343 14.862,44.189 15.207,44.000 15.396 C 43.811 15.584,43.657 15.849,43.657 15.984 C 43.657 16.118,43.567 16.229,43.457 16.229 C 43.347 16.229,43.195 16.540,43.119 16.921 C 43.028 17.372,42.421 18.160,41.376 19.180 C 40.493 20.042,39.771 20.906,39.771 21.101 C 39.771 21.296,39.566 21.520,39.314 21.600 C 38.974 21.708,38.857 21.946,38.857 22.530 C 38.857 22.961,38.765 23.314,38.652 23.314 C 38.539 23.314,38.374 24.034,38.286 24.914 C 38.197 25.794,38.033 26.514,37.920 26.514 C 37.807 26.514,37.714 26.874,37.714 27.314 C 37.714 27.754,37.611 28.114,37.486 28.114 C 37.359 28.114,37.257 28.717,37.257 29.467 C 37.257 30.210,37.159 30.853,37.039 30.895 C 36.919 30.937,36.750 32.591,36.662 34.571 C 36.574 36.551,36.415 38.171,36.308 38.171 C 36.202 38.171,36.114 49.023,36.114 62.286 C 36.114 76.196,36.028 86.400,35.911 86.400 C 35.799 86.400,35.640 86.760,35.558 87.200 C 35.475 87.640,35.310 88.000,35.190 88.000 C 35.070 88.000,34.971 88.183,34.971 88.407 C 34.971 88.630,34.763 88.964,34.508 89.147 C 34.250 89.333,33.984 89.862,33.908 90.341 C 33.832 90.813,33.680 91.200,33.571 91.200 C 33.461 91.200,33.371 91.406,33.371 91.657 C 33.371 91.909,33.269 92.114,33.143 92.114 C 33.017 92.114,32.914 92.224,32.914 92.359 C 32.914 92.587,32.778 92.776,32.068 93.535 C 31.648 93.984,31.120 94.400,30.971 94.400 C 30.897 94.400,30.579 94.657,30.265 94.971 C 29.951 95.286,29.567 95.543,29.411 95.543 C 29.256 95.543,28.981 95.749,28.800 96.000 C 28.619 96.251,28.386 96.457,28.283 96.457 C 27.895 96.457,25.829 98.479,25.829 98.858 C 25.829 99.084,24.721 100.114,24.478 100.114 C 24.352 100.114,23.990 100.373,23.673 100.690 C 23.357 101.007,22.786 101.328,22.406 101.405 C 22.025 101.481,21.714 101.633,21.714 101.743 C 21.714 101.853,21.583 101.943,21.422 101.943 C 21.261 101.943,20.981 102.149,20.800 102.400 C 20.619 102.651,20.344 102.857,20.189 102.857 C 20.033 102.857,19.642 103.140,19.318 103.486 C 18.593 104.261,18.547 104.307,17.771 105.033 C 17.426 105.356,17.143 105.719,17.143 105.839 C 17.143 105.959,16.944 106.057,16.702 106.057 C 16.460 106.057,16.107 106.211,15.918 106.400 C 15.730 106.589,15.465 106.743,15.331 106.743 C 15.196 106.743,15.086 106.839,15.086 106.956 C 15.086 107.073,14.869 107.238,14.603 107.322 C 14.058 107.495,10.743 110.749,10.743 111.111 C 10.743 111.409,10.162 112.000,9.869 112.000 C 9.506 112.000,8.305 113.228,8.131 113.776 C 8.042 114.056,7.873 114.286,7.756 114.286 C 7.639 114.286,7.543 114.440,7.543 114.629 C 7.543 114.817,7.446 114.971,7.328 114.971 C 7.210 114.971,7.044 115.434,6.959 116.000 C 6.875 116.566,6.714 117.029,6.603 117.029 C 6.491 117.029,6.400 117.491,6.400 118.057 C 6.400 118.623,6.491 119.086,6.601 119.086 C 6.712 119.086,6.876 120.063,6.966 121.257 C 7.055 122.451,7.222 123.429,7.336 123.429 C 7.450 123.429,7.543 123.642,7.543 123.902 C 7.543 124.162,7.671 124.519,7.829 124.694 C 8.507 125.450,8.686 125.709,8.686 125.933 C 8.686 126.064,8.884 126.171,9.127 126.171 C 9.371 126.171,9.635 126.380,9.717 126.638 C 9.805 126.913,10.136 127.159,10.526 127.237 C 10.892 127.310,11.247 127.560,11.323 127.799 C 11.398 128.035,11.551 128.229,11.662 128.229 C 11.774 128.229,12.115 128.497,12.421 128.825 C 13.114 129.569,13.288 129.743,14.032 130.436 C 14.360 130.742,14.629 131.083,14.629 131.195 C 14.629 131.307,14.829 131.461,15.074 131.539 C 15.319 131.617,15.583 131.881,15.661 132.126 C 15.739 132.371,16.001 132.571,16.244 132.571 C 16.487 132.571,16.686 132.667,16.686 132.785 C 16.686 132.902,16.905 133.068,17.174 133.153 C 17.443 133.238,18.723 134.376,20.020 135.682 C 21.316 136.989,22.530 138.057,22.716 138.057 C 22.902 138.057,23.120 138.263,23.200 138.514 C 23.280 138.766,23.537 138.971,23.771 138.971 C 24.004 138.971,24.350 139.126,24.539 139.314 C 24.727 139.503,24.954 139.657,25.043 139.657 C 25.131 139.657,25.370 139.848,25.573 140.082 C 25.777 140.315,26.174 140.579,26.457 140.668 C 26.740 140.758,26.971 140.927,26.971 141.044 C 26.971 141.161,27.170 141.257,27.413 141.257 C 27.656 141.257,27.920 141.463,28.000 141.714 C 28.080 141.966,28.307 142.171,28.505 142.171 C 28.703 142.171,29.152 142.454,29.503 142.800 C 29.854 143.146,30.303 143.561,30.499 143.723 C 30.696 143.885,30.857 144.220,30.857 144.466 C 30.857 144.713,30.955 144.914,31.075 144.914 C 31.195 144.914,31.558 145.197,31.882 145.543 C 32.205 145.889,32.572 146.274,32.698 146.400 C 32.824 146.526,33.184 146.886,33.498 147.200 C 33.812 147.514,34.158 147.860,34.266 147.968 C 34.375 148.077,34.732 148.416,35.060 148.722 C 35.634 149.256,35.657 149.377,35.657 151.782 C 35.657 153.299,35.747 154.286,35.886 154.286 C 36.036 154.286,36.114 160.533,36.114 172.571 C 36.114 182.629,36.201 190.857,36.308 190.857 C 36.414 190.857,36.572 192.426,36.658 194.343 C 36.744 196.260,36.914 197.863,37.036 197.905 C 37.158 197.947,37.257 198.590,37.257 199.333 C 37.257 200.083,37.359 200.686,37.486 200.686 C 37.611 200.686,37.714 201.046,37.714 201.486 C 37.714 201.926,37.804 202.286,37.913 202.286 C 38.023 202.286,38.184 203.109,38.272 204.114 C 38.360 205.120,38.527 205.943,38.644 205.943 C 38.761 205.943,38.857 206.200,38.857 206.514 C 38.857 206.829,38.960 207.086,39.086 207.086 C 39.211 207.086,39.314 207.239,39.314 207.427 C 39.314 207.615,40.034 208.483,40.914 209.356 C 41.794 210.229,42.514 211.008,42.514 211.088 C 42.514 211.167,42.669 211.387,42.857 211.576 C 43.046 211.764,43.200 212.117,43.200 212.359 C 43.200 212.602,43.303 212.800,43.429 212.800 C 43.554 212.800,43.657 212.954,43.657 213.143 C 43.657 213.331,43.749 213.486,43.861 213.486 C 43.973 213.486,44.129 213.743,44.208 214.057 C 44.287 214.371,44.452 214.629,44.576 214.629 C 44.699 214.629,44.800 214.827,44.800 215.070 C 44.800 215.313,45.006 215.577,45.257 215.657 C 45.509 215.737,45.714 215.893,45.714 216.005 C 45.714 216.289,46.827 217.371,47.119 217.371 C 47.251 217.371,47.634 217.666,47.970 218.025 C 48.306 218.385,48.810 218.751,49.090 218.840 C 49.371 218.929,49.600 219.158,49.600 219.347 C 49.600 219.790,50.832 221.029,51.272 221.029 C 51.457 221.029,51.667 221.183,51.740 221.371 C 51.812 221.560,52.080 221.714,52.336 221.714 C 52.591 221.714,52.800 221.817,52.800 221.943 C 52.800 222.069,52.954 222.171,53.143 222.171 C 53.331 222.171,53.486 222.274,53.486 222.400 C 53.486 222.526,53.691 222.629,53.943 222.629 C 54.194 222.629,54.400 222.727,54.400 222.847 C 54.400 222.967,54.760 223.133,55.200 223.215 C 55.640 223.298,56.000 223.457,56.000 223.568 C 56.000 223.680,56.154 223.771,56.343 223.771 C 56.531 223.771,56.686 223.874,56.686 224.000 C 56.686 224.126,56.891 224.229,57.143 224.229 C 57.394 224.229,57.600 224.320,57.600 224.432 C 57.600 224.544,57.857 224.701,58.171 224.780 C 58.486 224.858,58.743 225.024,58.743 225.147 C 58.743 225.271,58.897 225.371,59.086 225.371 C 59.358 225.371,59.429 225.702,59.429 226.971 L 59.429 228.571 61.714 228.571 L 64.000 228.571 64.000 227.069 C 64.000 225.521,63.713 224.914,62.981 224.914 C 62.779 224.914,62.555 224.760,62.483 224.571 C 62.410 224.383,62.179 224.229,61.969 224.229 C 61.759 224.229,61.439 224.023,61.258 223.772 C 61.077 223.522,60.592 223.253,60.179 223.176 C 59.766 223.098,59.429 222.943,59.429 222.832 C 59.429 222.720,59.274 222.629,59.086 222.629 C 58.897 222.629,58.743 222.526,58.743 222.400 C 58.743 222.274,58.537 222.171,58.286 222.171 C 58.034 222.171,57.829 222.082,57.829 221.972 C 57.829 221.862,57.417 221.707,56.914 221.627 C 56.411 221.546,56.000 221.379,56.000 221.254 C 56.000 221.130,55.743 221.029,55.429 221.029 C 55.114 221.029,54.857 220.939,54.857 220.829 C 54.857 220.719,54.552 220.568,54.179 220.493 C 53.463 220.350,51.657 218.767,51.657 218.282 C 51.657 217.944,50.784 217.143,50.415 217.143 C 50.274 217.143,50.010 216.937,49.829 216.686 C 49.647 216.434,49.368 216.229,49.207 216.229 C 49.046 216.229,48.914 216.126,48.914 216.000 C 48.914 215.874,48.713 215.771,48.466 215.771 C 48.220 215.771,47.885 215.612,47.723 215.418 C 47.014 214.566,46.365 213.943,46.186 213.943 C 46.080 213.943,45.926 213.583,45.844 213.143 C 45.761 212.703,45.595 212.343,45.475 212.343 C 45.355 212.343,45.257 212.137,45.257 211.886 C 45.257 211.634,45.154 211.429,45.029 211.429 C 44.903 211.429,44.800 211.274,44.800 211.086 C 44.800 210.897,44.697 210.743,44.571 210.743 C 44.446 210.743,44.343 210.534,44.343 210.279 C 44.343 210.023,44.189 209.755,44.000 209.683 C 43.811 209.610,43.657 209.400,43.657 209.216 C 43.657 208.836,43.117 208.229,42.779 208.229 C 42.293 208.229,40.914 206.626,40.914 206.061 C 40.914 205.745,40.811 205.486,40.686 205.486 C 40.560 205.486,40.457 205.126,40.457 204.686 C 40.457 204.246,40.363 203.886,40.248 203.886 C 40.133 203.886,39.967 203.114,39.878 202.171 C 39.790 201.229,39.627 200.457,39.516 200.457 C 39.405 200.457,39.314 199.634,39.314 198.629 C 39.314 197.562,39.219 196.800,39.086 196.800 C 38.948 196.800,38.857 195.848,38.857 194.400 C 38.857 193.077,38.762 192.000,38.645 192.000 C 38.517 192.000,38.404 183.503,38.359 170.476 C 38.301 153.513,38.225 148.932,38.000 148.857 C 37.843 148.805,37.714 148.663,37.714 148.542 C 37.714 148.421,37.457 148.065,37.143 147.751 C 36.829 147.436,36.571 147.074,36.571 146.945 C 36.571 146.690,36.005 146.057,35.777 146.057 C 35.700 146.057,35.389 145.826,35.086 145.543 C 34.784 145.260,34.377 144.896,34.182 144.734 C 33.988 144.572,33.829 144.237,33.829 143.991 C 33.829 143.745,33.730 143.543,33.610 143.543 C 33.318 143.543,32.229 142.440,32.229 142.145 C 32.229 141.832,31.640 141.257,31.320 141.257 C 31.179 141.257,30.826 141.000,30.534 140.686 C 30.243 140.371,29.837 140.114,29.631 140.114 C 29.425 140.114,29.257 140.011,29.257 139.886 C 29.257 139.760,29.103 139.657,28.914 139.657 C 28.726 139.657,28.571 139.565,28.571 139.453 C 28.571 139.341,28.314 139.185,28.000 139.106 C 27.686 139.027,27.429 138.862,27.429 138.739 C 27.429 138.615,27.230 138.514,26.987 138.514 C 26.744 138.514,26.480 138.309,26.400 138.057 C 26.320 137.806,26.060 137.600,25.822 137.600 C 25.584 137.600,25.257 137.441,25.095 137.246 C 24.384 136.393,23.199 135.314,22.971 135.314 C 22.898 135.314,22.683 135.186,22.494 135.029 C 22.138 134.733,22.091 134.685,20.861 133.365 C 20.455 132.928,19.991 132.571,19.830 132.571 C 19.669 132.571,19.344 132.314,19.108 132.000 C 18.872 131.686,18.510 131.429,18.304 131.429 C 18.098 131.429,17.781 131.223,17.600 130.971 C 17.419 130.720,17.139 130.514,16.978 130.514 C 16.817 130.514,16.686 130.418,16.686 130.301 C 16.686 130.184,16.492 130.027,16.256 129.951 C 16.017 129.876,15.767 129.521,15.694 129.154 C 15.617 128.772,15.370 128.433,15.107 128.350 C 14.857 128.270,14.588 128.005,14.511 127.760 C 14.433 127.515,14.278 127.314,14.166 127.314 C 14.055 127.314,13.706 127.057,13.392 126.743 C 13.078 126.429,12.757 126.171,12.680 126.171 C 12.602 126.171,12.395 126.043,12.220 125.886 C 11.464 125.207,11.205 125.029,10.981 125.029 C 10.850 125.029,10.743 124.926,10.743 124.800 C 10.743 124.674,10.539 124.571,10.290 124.571 C 9.998 124.571,9.786 124.369,9.694 124.000 C 9.615 123.686,9.459 123.429,9.347 123.429 C 9.235 123.429,9.143 123.171,9.143 122.857 C 9.143 122.543,9.040 122.286,8.914 122.286 C 8.789 122.286,8.686 121.934,8.686 121.505 C 8.686 121.075,8.582 120.689,8.455 120.647 C 7.927 120.471,8.075 116.648,8.629 116.166 C 8.911 115.919,9.143 115.601,9.143 115.459 C 9.143 115.134,9.976 114.286,10.296 114.286 C 10.631 114.286,13.029 111.871,13.029 111.532 C 13.029 111.238,13.889 110.400,14.191 110.400 C 14.289 110.400,14.434 110.194,14.514 109.943 C 14.594 109.691,14.847 109.486,15.077 109.486 C 15.306 109.486,15.553 109.331,15.626 109.143 C 15.698 108.954,15.966 108.800,16.221 108.800 C 16.477 108.800,16.686 108.697,16.686 108.571 C 16.686 108.446,16.817 108.343,16.978 108.343 C 17.139 108.343,17.419 108.137,17.600 107.886 C 17.781 107.634,18.076 107.429,18.254 107.429 C 18.433 107.429,18.874 107.120,19.234 106.743 C 19.595 106.366,19.979 106.057,20.088 106.057 C 20.197 106.057,20.346 105.757,20.419 105.390 C 20.505 104.963,20.741 104.663,21.076 104.557 C 21.364 104.466,21.766 104.201,21.970 103.967 C 22.173 103.734,22.507 103.543,22.713 103.543 C 22.918 103.543,23.086 103.445,23.086 103.325 C 23.086 103.205,23.446 103.039,23.886 102.956 C 24.326 102.874,24.686 102.715,24.686 102.603 C 24.686 102.491,24.793 102.400,24.925 102.400 C 25.057 102.400,25.679 101.886,26.307 101.257 C 26.936 100.629,27.535 100.114,27.639 100.114 C 27.743 100.114,27.889 99.814,27.962 99.447 C 28.041 99.051,28.285 98.719,28.562 98.632 C 28.819 98.550,29.029 98.388,29.029 98.270 C 29.029 98.153,29.183 98.057,29.371 98.057 C 29.560 98.057,29.714 97.954,29.714 97.829 C 29.714 97.703,29.909 97.600,30.147 97.600 C 30.385 97.600,30.639 97.446,30.711 97.257 C 30.784 97.069,31.029 96.914,31.257 96.914 C 31.484 96.914,31.822 96.695,32.007 96.426 C 32.192 96.158,32.476 95.824,32.640 95.684 C 32.894 95.465,33.443 94.926,34.203 94.148 C 34.311 94.037,34.786 93.587,35.257 93.148 C 35.729 92.710,36.114 92.195,36.114 92.004 C 36.114 91.813,36.212 91.657,36.332 91.657 C 36.453 91.657,36.618 91.297,36.701 90.857 C 36.783 90.417,36.942 90.057,37.054 90.057 C 37.166 90.057,37.257 89.903,37.257 89.714 C 37.257 89.526,37.360 89.371,37.486 89.371 C 37.611 89.371,37.714 89.071,37.714 88.705 C 37.714 88.338,37.843 87.995,38.000 87.943 C 38.226 87.868,38.299 82.494,38.350 62.324 C 38.390 46.014,38.493 36.800,38.635 36.800 C 38.764 36.800,38.857 35.840,38.857 34.514 C 38.857 33.143,38.949 32.229,39.086 32.229 C 39.219 32.229,39.314 31.467,39.314 30.400 C 39.314 29.394,39.407 28.571,39.520 28.571 C 39.633 28.571,39.797 27.851,39.886 26.971 C 39.974 26.091,40.139 25.371,40.252 25.371 C 40.365 25.371,40.457 24.909,40.457 24.343 C 40.457 23.777,40.560 23.314,40.686 23.314 C 40.811 23.314,40.914 23.101,40.914 22.840 C 40.914 22.346,42.066 21.029,42.497 21.029 C 42.861 21.029,43.657 20.167,43.657 19.771 C 43.657 19.583,43.758 19.429,43.881 19.429 C 44.005 19.429,44.170 19.171,44.249 18.857 C 44.328 18.543,44.484 18.286,44.596 18.286 C 44.708 18.286,44.800 18.080,44.800 17.829 C 44.800 17.577,44.903 17.371,45.029 17.371 C 45.154 17.371,45.257 17.217,45.257 17.029 C 45.257 16.840,45.347 16.686,45.457 16.686 C 45.567 16.686,45.719 16.375,45.795 15.996 C 45.944 15.249,47.580 13.486,48.124 13.486 C 48.307 13.486,48.457 13.394,48.457 13.282 C 48.457 13.170,48.714 13.014,49.029 12.935 C 49.343 12.856,49.600 12.690,49.600 12.567 C 49.600 12.444,49.708 12.343,49.839 12.343 C 49.970 12.343,50.335 12.086,50.649 11.771 C 50.964 11.457,51.319 11.200,51.439 11.200 C 51.559 11.200,51.657 10.998,51.657 10.752 C 51.657 10.505,51.816 10.171,52.011 10.009 C 52.206 9.847,52.612 9.483,52.915 9.200 C 53.217 8.917,53.572 8.686,53.704 8.686 C 53.835 8.686,53.943 8.589,53.943 8.471 C 53.943 8.353,54.406 8.187,54.971 8.102 C 55.537 8.018,56.000 7.857,56.000 7.745 C 56.000 7.634,56.154 7.543,56.343 7.543 C 56.531 7.543,56.686 7.452,56.686 7.340 C 56.686 7.229,57.149 7.068,57.714 6.983 C 58.280 6.899,58.743 6.733,58.743 6.615 C 58.743 6.497,58.897 6.400,59.086 6.400 C 59.274 6.400,59.429 6.297,59.429 6.171 C 59.429 6.046,59.634 5.943,59.886 5.943 C 60.137 5.943,60.343 5.848,60.343 5.732 C 60.343 5.617,60.677 5.449,61.085 5.359 C 61.494 5.269,61.995 5.004,62.198 4.769 C 62.401 4.535,62.684 4.343,62.827 4.343 C 62.969 4.343,63.086 4.247,63.086 4.130 C 63.086 4.012,63.291 3.851,63.543 3.771 C 63.949 3.642,64.000 3.426,64.000 1.813 L 64.000 0.000 61.724 -0.000 L 59.447 -0.000 59.381 1.886 M369.829 1.813 C 369.829 3.426,369.879 3.642,370.286 3.771 C 370.537 3.851,370.743 4.012,370.743 4.130 C 370.743 4.247,370.859 4.343,371.002 4.343 C 371.144 4.343,371.427 4.534,371.630 4.767 C 371.834 5.001,372.231 5.265,372.514 5.354 C 372.797 5.443,373.029 5.612,373.029 5.730 C 373.029 5.847,373.183 5.943,373.371 5.943 C 373.560 5.943,373.714 6.046,373.714 6.171 C 373.714 6.297,373.920 6.400,374.171 6.400 C 374.423 6.400,374.629 6.493,374.629 6.607 C 374.629 6.721,375.143 6.885,375.771 6.971 C 376.400 7.058,376.914 7.222,376.914 7.336 C 376.914 7.450,377.223 7.543,377.600 7.543 C 377.977 7.543,378.286 7.635,378.286 7.747 C 378.286 7.859,378.543 8.015,378.857 8.094 C 379.171 8.173,379.429 8.338,379.429 8.461 C 379.429 8.585,379.545 8.686,379.687 8.686 C 379.830 8.686,380.113 8.877,380.316 9.110 C 380.519 9.344,380.917 9.608,381.200 9.697 C 381.483 9.786,381.714 10.020,381.714 10.217 C 381.714 10.612,382.551 11.429,382.956 11.429 C 383.098 11.429,383.362 11.634,383.543 11.886 C 383.724 12.137,383.957 12.343,384.060 12.343 C 384.501 12.343,386.971 14.766,386.971 15.199 C 386.971 15.396,387.126 15.616,387.314 15.689 C 387.503 15.761,387.657 15.992,387.657 16.203 C 387.657 16.413,387.863 16.733,388.114 16.914 C 388.366 17.096,388.571 17.371,388.571 17.526 C 388.571 17.681,388.840 18.058,389.168 18.364 C 389.912 19.057,390.086 19.231,390.779 19.975 C 391.085 20.303,391.422 20.571,391.528 20.571 C 391.634 20.571,391.788 20.931,391.871 21.371 C 391.953 21.811,392.119 22.171,392.239 22.171 C 392.359 22.171,392.457 22.634,392.457 23.200 C 392.457 23.766,392.547 24.229,392.656 24.229 C 392.766 24.229,392.927 25.051,393.015 26.057 C 393.102 27.063,393.270 27.886,393.387 27.886 C 393.504 27.886,393.600 28.400,393.600 29.029 C 393.600 29.657,393.703 30.171,393.829 30.171 C 393.955 30.171,394.057 30.775,394.057 31.524 C 394.057 32.403,394.157 32.910,394.343 32.971 C 394.571 33.047,394.629 49.582,394.629 114.629 C 394.629 179.675,394.571 196.210,394.343 196.286 C 394.154 196.349,394.057 196.877,394.057 197.848 C 394.057 198.673,393.957 199.314,393.829 199.314 C 393.703 199.314,393.600 199.726,393.600 200.229 C 393.600 200.731,393.504 201.143,393.387 201.143 C 393.270 201.143,393.102 201.966,393.015 202.971 C 392.927 203.977,392.766 204.800,392.656 204.800 C 392.547 204.800,392.457 205.263,392.457 205.829 C 392.457 206.394,392.365 206.857,392.253 206.857 C 392.141 206.857,391.983 207.122,391.902 207.445 C 391.821 207.768,391.038 208.749,390.163 209.624 C 389.288 210.500,388.571 211.367,388.571 211.551 C 388.571 211.735,388.469 211.886,388.343 211.886 C 388.217 211.886,388.114 212.084,388.114 212.327 C 388.114 212.570,387.914 212.833,387.669 212.911 C 387.424 212.988,387.154 213.269,387.070 213.535 C 386.831 214.289,384.503 216.686,384.010 216.686 C 383.879 216.686,383.771 216.782,383.771 216.899 C 383.771 217.016,383.549 217.183,383.277 217.269 C 382.787 217.425,381.714 218.362,381.714 218.635 C 381.714 218.818,381.103 219.429,380.920 219.429 C 380.843 219.429,380.522 219.686,380.208 220.000 C 379.894 220.314,379.487 220.571,379.304 220.571 C 379.121 220.571,378.971 220.674,378.971 220.800 C 378.971 220.926,378.817 221.029,378.629 221.029 C 378.440 221.029,378.286 221.120,378.286 221.231 C 378.286 221.342,377.720 221.504,377.029 221.590 C 376.337 221.676,375.771 221.843,375.771 221.959 C 375.771 222.076,375.617 222.171,375.429 222.171 C 375.240 222.171,375.086 222.274,375.086 222.400 C 375.086 222.526,374.880 222.629,374.629 222.629 C 374.377 222.629,374.171 222.723,374.171 222.839 C 374.171 222.955,373.837 223.123,373.429 223.213 C 373.020 223.302,372.520 223.568,372.316 223.802 C 372.113 224.037,371.830 224.229,371.687 224.229 C 371.545 224.229,371.429 224.331,371.429 224.457 C 371.429 224.583,371.290 224.686,371.121 224.686 C 370.275 224.686,369.829 225.505,369.829 227.055 L 369.829 228.571 372.000 228.571 L 374.171 228.571 374.171 227.069 C 374.171 225.500,374.365 225.101,375.268 224.815 C 375.545 224.727,375.771 224.559,375.771 224.442 C 375.771 224.324,375.977 224.229,376.229 224.229 C 376.480 224.229,376.686 224.126,376.686 224.000 C 376.686 223.874,376.840 223.771,377.029 223.771 C 377.217 223.771,377.371 223.680,377.371 223.569 C 377.371 223.457,377.834 223.297,378.400 223.212 C 378.966 223.127,379.429 222.961,379.429 222.843 C 379.429 222.725,379.583 222.629,379.771 222.629 C 379.960 222.629,380.114 222.526,380.114 222.400 C 380.114 222.274,380.320 222.171,380.571 222.171 C 380.823 222.171,381.029 222.080,381.029 221.968 C 381.029 221.856,381.286 221.699,381.600 221.620 C 381.914 221.542,382.171 221.376,382.171 221.253 C 382.171 221.129,382.279 221.029,382.410 221.029 C 382.673 221.029,383.066 220.730,383.871 219.917 C 384.539 219.244,384.729 219.053,385.403 218.386 C 385.700 218.091,386.069 217.717,386.222 217.554 C 386.376 217.391,386.619 217.140,386.762 216.997 C 386.905 216.854,387.263 216.494,387.557 216.197 C 387.852 215.900,388.226 215.533,388.389 215.382 C 388.846 214.959,389.257 214.435,389.257 214.275 C 389.257 214.196,389.720 213.681,390.286 213.131 C 390.851 212.581,391.314 212.020,391.314 211.883 C 391.314 211.747,391.571 211.397,391.886 211.106 C 392.200 210.814,392.457 210.419,392.457 210.227 C 392.457 210.035,392.611 209.818,392.800 209.746 C 392.989 209.674,393.143 209.405,393.143 209.150 C 393.143 208.895,393.246 208.686,393.371 208.686 C 393.497 208.686,393.600 208.429,393.600 208.114 C 393.600 207.800,393.703 207.543,393.829 207.543 C 393.954 207.543,394.057 207.389,394.057 207.200 C 394.057 207.011,394.150 206.857,394.263 206.857 C 394.375 206.857,394.540 206.137,394.629 205.257 C 394.717 204.377,394.882 203.657,394.995 203.657 C 395.108 203.657,395.200 203.349,395.200 202.971 C 395.200 202.594,395.303 202.286,395.429 202.286 C 395.554 202.286,395.657 202.029,395.657 201.714 C 395.657 201.400,395.751 201.143,395.866 201.143 C 395.981 201.143,396.148 200.371,396.236 199.429 C 396.324 198.486,396.487 197.714,396.598 197.714 C 396.709 197.714,396.800 197.251,396.800 196.686 L 396.800 195.657 398.400 195.657 L 400.000 195.657 400.000 114.743 L 400.000 33.829 398.400 33.829 L 396.800 33.829 396.800 32.800 C 396.800 32.234,396.712 31.771,396.605 31.771 C 396.498 31.771,396.345 30.923,396.265 29.887 C 396.185 28.850,396.016 27.967,395.889 27.925 C 395.761 27.882,395.657 27.548,395.657 27.181 C 395.657 26.814,395.554 26.514,395.429 26.514 C 395.303 26.514,395.200 26.257,395.200 25.943 C 395.200 25.629,395.108 25.371,394.995 25.371 C 394.882 25.371,394.717 24.651,394.629 23.771 C 394.540 22.891,394.375 22.171,394.263 22.171 C 394.150 22.171,394.057 22.017,394.057 21.829 C 394.057 21.640,393.954 21.486,393.829 21.486 C 393.703 21.486,393.600 21.273,393.600 21.012 C 393.600 20.752,393.446 20.384,393.257 20.196 C 393.069 20.007,392.914 19.655,392.914 19.412 C 392.914 19.170,392.811 18.971,392.686 18.971 C 392.560 18.971,392.457 18.864,392.457 18.733 C 392.457 18.490,392.120 18.024,391.589 17.532 C 390.392 16.423,390.171 16.180,390.171 15.967 C 390.171 15.835,389.863 15.438,389.486 15.086 C 389.109 14.733,388.800 14.337,388.800 14.204 C 388.800 14.072,388.546 13.728,388.235 13.439 C 387.477 12.736,387.500 12.758,385.150 10.343 C 384.019 9.180,382.993 8.229,382.871 8.229 C 382.749 8.229,382.390 7.969,382.073 7.653 C 381.757 7.336,381.186 7.014,380.806 6.938 C 380.425 6.862,380.114 6.710,380.114 6.600 C 380.114 6.490,379.960 6.400,379.771 6.400 C 379.583 6.400,379.429 6.297,379.429 6.171 C 379.429 6.046,379.223 5.943,378.971 5.943 C 378.720 5.943,378.514 5.853,378.514 5.743 C 378.514 5.634,378.103 5.478,377.600 5.398 C 377.097 5.318,376.686 5.150,376.686 5.026 C 376.686 4.902,376.480 4.800,376.229 4.800 C 375.977 4.800,375.771 4.697,375.771 4.571 C 375.771 4.446,375.661 4.343,375.527 4.343 C 375.392 4.343,375.127 4.189,374.939 4.000 C 374.750 3.811,374.398 3.657,374.155 3.657 C 373.756 3.657,373.714 3.482,373.714 1.829 L 373.714 0.000 371.771 0.000 L 369.829 0.000 369.829 1.813 " stroke="none" fill="#b4b4b4" fill-rule="evenodd"></path><path id="path2" d="M64.000 1.813 C 64.000 3.426,63.949 3.642,63.543 3.771 C 63.291 3.851,63.086 4.012,63.086 4.130 C 63.086 4.247,62.969 4.343,62.827 4.343 C 62.684 4.343,62.401 4.535,62.198 4.769 C 61.995 5.004,61.494 5.269,61.085 5.359 C 60.677 5.449,60.343 5.617,60.343 5.732 C 60.343 5.848,60.137 5.943,59.886 5.943 C 59.634 5.943,59.429 6.046,59.429 6.171 C 59.429 6.297,59.274 6.400,59.086 6.400 C 58.897 6.400,58.743 6.497,58.743 6.615 C 58.743 6.733,58.280 6.899,57.714 6.983 C 57.149 7.068,56.686 7.229,56.686 7.340 C 56.686 7.452,56.531 7.543,56.343 7.543 C 56.154 7.543,56.000 7.634,56.000 7.745 C 56.000 7.857,55.537 8.018,54.971 8.102 C 54.406 8.187,53.943 8.353,53.943 8.471 C 53.943 8.589,53.835 8.686,53.704 8.686 C 53.572 8.686,53.217 8.917,52.915 9.200 C 52.612 9.483,52.206 9.847,52.011 10.009 C 51.816 10.171,51.657 10.505,51.657 10.752 C 51.657 10.998,51.559 11.200,51.439 11.200 C 51.319 11.200,50.964 11.457,50.649 11.771 C 50.335 12.086,49.970 12.343,49.839 12.343 C 49.708 12.343,49.600 12.444,49.600 12.567 C 49.600 12.690,49.343 12.856,49.029 12.935 C 48.714 13.014,48.457 13.170,48.457 13.282 C 48.457 13.394,48.307 13.486,48.124 13.486 C 47.580 13.486,45.944 15.249,45.795 15.996 C 45.719 16.375,45.567 16.686,45.457 16.686 C 45.347 16.686,45.257 16.840,45.257 17.029 C 45.257 17.217,45.154 17.371,45.029 17.371 C 44.903 17.371,44.800 17.577,44.800 17.829 C 44.800 18.080,44.708 18.286,44.596 18.286 C 44.484 18.286,44.328 18.543,44.249 18.857 C 44.170 19.171,44.005 19.429,43.881 19.429 C 43.758 19.429,43.657 19.583,43.657 19.771 C 43.657 20.167,42.861 21.029,42.497 21.029 C 42.066 21.029,40.914 22.346,40.914 22.840 C 40.914 23.101,40.811 23.314,40.686 23.314 C 40.560 23.314,40.457 23.777,40.457 24.343 C 40.457 24.909,40.365 25.371,40.252 25.371 C 40.139 25.371,39.974 26.091,39.886 26.971 C 39.797 27.851,39.633 28.571,39.520 28.571 C 39.407 28.571,39.314 29.394,39.314 30.400 C 39.314 31.467,39.219 32.229,39.086 32.229 C 38.949 32.229,38.857 33.143,38.857 34.514 C 38.857 35.840,38.764 36.800,38.635 36.800 C 38.493 36.800,38.390 46.014,38.350 62.324 C 38.299 82.494,38.226 87.868,38.000 87.943 C 37.843 87.995,37.714 88.338,37.714 88.705 C 37.714 89.071,37.611 89.371,37.486 89.371 C 37.360 89.371,37.257 89.526,37.257 89.714 C 37.257 89.903,37.166 90.057,37.054 90.057 C 36.942 90.057,36.783 90.417,36.701 90.857 C 36.618 91.297,36.453 91.657,36.332 91.657 C 36.212 91.657,36.114 91.813,36.114 92.004 C 36.114 92.195,35.729 92.710,35.257 93.148 C 34.786 93.587,34.311 94.037,34.203 94.148 C 33.443 94.926,32.894 95.465,32.640 95.684 C 32.476 95.824,32.192 96.158,32.007 96.426 C 31.822 96.695,31.484 96.914,31.257 96.914 C 31.029 96.914,30.784 97.069,30.711 97.257 C 30.639 97.446,30.385 97.600,30.147 97.600 C 29.909 97.600,29.714 97.703,29.714 97.829 C 29.714 97.954,29.560 98.057,29.371 98.057 C 29.183 98.057,29.029 98.153,29.029 98.270 C 29.029 98.388,28.819 98.550,28.562 98.632 C 28.285 98.719,28.041 99.051,27.962 99.447 C 27.889 99.814,27.743 100.114,27.639 100.114 C 27.535 100.114,26.936 100.629,26.307 101.257 C 25.679 101.886,25.057 102.400,24.925 102.400 C 24.793 102.400,24.686 102.491,24.686 102.603 C 24.686 102.715,24.326 102.874,23.886 102.956 C 23.446 103.039,23.086 103.205,23.086 103.325 C 23.086 103.445,22.918 103.543,22.713 103.543 C 22.507 103.543,22.173 103.734,21.970 103.967 C 21.766 104.201,21.364 104.466,21.076 104.557 C 20.741 104.663,20.505 104.963,20.419 105.390 C 20.346 105.757,20.197 106.057,20.088 106.057 C 19.979 106.057,19.595 106.366,19.234 106.743 C 18.874 107.120,18.433 107.429,18.254 107.429 C 18.076 107.429,17.781 107.634,17.600 107.886 C 17.419 108.137,17.139 108.343,16.978 108.343 C 16.817 108.343,16.686 108.446,16.686 108.571 C 16.686 108.697,16.477 108.800,16.221 108.800 C 15.966 108.800,15.698 108.954,15.626 109.143 C 15.553 109.331,15.306 109.486,15.077 109.486 C 14.847 109.486,14.594 109.691,14.514 109.943 C 14.434 110.194,14.289 110.400,14.191 110.400 C 13.889 110.400,13.029 111.238,13.029 111.532 C 13.029 111.871,10.631 114.286,10.296 114.286 C 9.976 114.286,9.143 115.134,9.143 115.459 C 9.143 115.601,8.911 115.919,8.629 116.166 C 8.075 116.648,7.927 120.471,8.455 120.647 C 8.582 120.689,8.686 121.075,8.686 121.505 C 8.686 121.934,8.789 122.286,8.914 122.286 C 9.040 122.286,9.143 122.543,9.143 122.857 C 9.143 123.171,9.235 123.429,9.347 123.429 C 9.459 123.429,9.615 123.686,9.694 124.000 C 9.786 124.369,9.998 124.571,10.290 124.571 C 10.539 124.571,10.743 124.674,10.743 124.800 C 10.743 124.926,10.853 125.029,10.988 125.029 C 11.122 125.029,11.376 125.157,11.551 125.314 C 12.237 125.930,12.558 126.171,12.686 126.171 C 12.760 126.171,13.078 126.429,13.392 126.743 C 13.706 127.057,14.055 127.314,14.166 127.314 C 14.278 127.314,14.433 127.515,14.511 127.760 C 14.588 128.005,14.857 128.270,15.107 128.350 C 15.370 128.433,15.617 128.772,15.694 129.154 C 15.767 129.521,16.017 129.876,16.256 129.951 C 16.492 130.027,16.686 130.184,16.686 130.301 C 16.686 130.418,16.817 130.514,16.978 130.514 C 17.139 130.514,17.419 130.720,17.600 130.971 C 17.781 131.223,18.098 131.429,18.304 131.429 C 18.510 131.429,18.872 131.686,19.108 132.000 C 19.344 132.314,19.669 132.571,19.830 132.571 C 19.991 132.571,20.455 132.928,20.861 133.365 C 22.091 134.685,22.138 134.733,22.494 135.029 C 22.683 135.186,22.898 135.314,22.971 135.314 C 23.199 135.314,24.384 136.393,25.095 137.246 C 25.257 137.441,25.584 137.600,25.822 137.600 C 26.060 137.600,26.320 137.806,26.400 138.057 C 26.480 138.309,26.744 138.514,26.987 138.514 C 27.230 138.514,27.429 138.615,27.429 138.739 C 27.429 138.862,27.686 139.027,28.000 139.106 C 28.314 139.185,28.571 139.341,28.571 139.453 C 28.571 139.565,28.726 139.657,28.914 139.657 C 29.103 139.657,29.257 139.760,29.257 139.886 C 29.257 140.011,29.425 140.114,29.631 140.114 C 29.837 140.114,30.243 140.371,30.534 140.686 C 30.826 141.000,31.179 141.257,31.320 141.257 C 31.640 141.257,32.229 141.832,32.229 142.145 C 32.229 142.440,33.318 143.543,33.610 143.543 C 33.730 143.543,33.829 143.745,33.829 143.991 C 33.829 144.237,33.988 144.572,34.182 144.734 C 34.377 144.896,34.784 145.260,35.086 145.543 C 35.389 145.826,35.700 146.057,35.777 146.057 C 36.005 146.057,36.571 146.690,36.571 146.945 C 36.571 147.074,36.829 147.436,37.143 147.751 C 37.457 148.065,37.714 148.421,37.714 148.542 C 37.714 148.663,37.843 148.805,38.000 148.857 C 38.225 148.932,38.301 153.513,38.359 170.476 C 38.404 183.503,38.517 192.000,38.645 192.000 C 38.762 192.000,38.857 193.077,38.857 194.400 C 38.857 195.848,38.948 196.800,39.086 196.800 C 39.219 196.800,39.314 197.562,39.314 198.629 C 39.314 199.634,39.405 200.457,39.516 200.457 C 39.627 200.457,39.790 201.229,39.878 202.171 C 39.967 203.114,40.133 203.886,40.248 203.886 C 40.363 203.886,40.457 204.246,40.457 204.686 C 40.457 205.126,40.560 205.486,40.686 205.486 C 40.811 205.486,40.914 205.745,40.914 206.061 C 40.914 206.626,42.293 208.229,42.779 208.229 C 43.117 208.229,43.657 208.836,43.657 209.216 C 43.657 209.400,43.811 209.610,44.000 209.683 C 44.189 209.755,44.343 210.023,44.343 210.279 C 44.343 210.534,44.446 210.743,44.571 210.743 C 44.697 210.743,44.800 210.897,44.800 211.086 C 44.800 211.274,44.903 211.429,45.029 211.429 C 45.154 211.429,45.257 211.634,45.257 211.886 C 45.257 212.137,45.355 212.343,45.475 212.343 C 45.595 212.343,45.761 212.703,45.844 213.143 C 45.926 213.583,46.080 213.943,46.186 213.943 C 46.365 213.943,47.014 214.566,47.723 215.418 C 47.885 215.612,48.220 215.771,48.466 215.771 C 48.713 215.771,48.914 215.874,48.914 216.000 C 48.914 216.126,49.046 216.229,49.207 216.229 C 49.368 216.229,49.647 216.434,49.829 216.686 C 50.010 216.937,50.274 217.143,50.415 217.143 C 50.784 217.143,51.657 217.944,51.657 218.282 C 51.657 218.767,53.463 220.350,54.179 220.493 C 54.552 220.568,54.857 220.719,54.857 220.829 C 54.857 220.939,55.114 221.029,55.429 221.029 C 55.743 221.029,56.000 221.130,56.000 221.254 C 56.000 221.379,56.411 221.546,56.914 221.627 C 57.417 221.707,57.829 221.862,57.829 221.972 C 57.829 222.082,58.034 222.171,58.286 222.171 C 58.537 222.171,58.743 222.274,58.743 222.400 C 58.743 222.526,58.897 222.629,59.086 222.629 C 59.274 222.629,59.429 222.720,59.429 222.832 C 59.429 222.943,59.766 223.098,60.179 223.176 C 60.592 223.253,61.077 223.522,61.258 223.772 C 61.439 224.023,61.759 224.229,61.969 224.229 C 62.179 224.229,62.410 224.383,62.483 224.571 C 62.555 224.760,62.779 224.914,62.981 224.914 C 63.713 224.914,64.000 225.521,64.000 227.069 L 64.000 228.571 66.971 228.571 L 69.943 228.571 69.943 227.055 C 69.943 225.590,69.499 224.686,68.780 224.686 C 68.682 224.686,68.537 224.480,68.457 224.229 C 68.377 223.977,68.151 223.771,67.954 223.771 C 67.758 223.771,67.257 223.411,66.842 222.971 C 66.427 222.531,65.927 222.171,65.730 222.171 C 65.533 222.171,65.371 222.077,65.371 221.961 C 65.371 221.845,65.063 221.683,64.686 221.600 C 64.309 221.517,64.000 221.355,64.000 221.239 C 64.000 221.123,63.640 221.029,63.200 221.029 C 62.760 221.029,62.400 220.941,62.400 220.833 C 62.400 220.726,61.706 220.573,60.858 220.494 C 60.010 220.414,59.282 220.245,59.239 220.118 C 59.197 219.990,58.965 219.886,58.724 219.886 C 58.483 219.886,58.286 219.783,58.286 219.657 C 58.286 219.531,57.926 219.429,57.486 219.429 C 56.935 219.429,56.686 219.324,56.686 219.093 C 56.686 218.713,55.195 217.143,54.833 217.143 C 54.527 217.143,53.943 216.559,53.943 216.253 C 53.943 215.882,52.626 214.629,52.236 214.629 C 52.043 214.629,51.886 214.527,51.886 214.403 C 51.886 214.278,51.474 214.111,50.971 214.031 C 50.469 213.950,50.057 213.795,50.057 213.685 C 50.057 213.575,49.697 213.486,49.257 213.486 C 48.817 213.486,48.457 213.383,48.457 213.257 C 48.457 213.131,48.265 213.029,48.030 213.029 C 47.582 213.029,47.322 212.132,47.317 210.571 C 47.315 210.163,47.211 209.829,47.086 209.829 C 46.960 209.829,46.857 209.571,46.857 209.257 C 46.857 208.943,46.754 208.686,46.629 208.686 C 46.503 208.686,46.400 208.531,46.400 208.343 C 46.400 208.154,46.297 208.000,46.171 208.000 C 46.046 208.000,45.943 207.791,45.943 207.536 C 45.943 207.280,45.789 207.012,45.600 206.940 C 45.405 206.865,45.257 206.524,45.257 206.147 C 45.257 205.783,45.154 205.486,45.029 205.486 C 44.903 205.486,44.800 205.229,44.800 204.914 C 44.800 204.600,44.702 204.343,44.582 204.343 C 44.462 204.343,44.296 203.983,44.213 203.543 C 44.131 203.103,43.972 202.743,43.860 202.743 C 43.749 202.743,43.657 202.636,43.657 202.505 C 43.657 202.178,42.746 201.127,41.725 200.277 C 41.442 200.041,41.371 199.437,41.371 197.248 C 41.371 195.578,41.282 194.514,41.143 194.514 C 40.992 194.514,40.914 186.819,40.914 171.886 C 40.914 156.952,40.837 149.257,40.686 149.257 C 40.560 149.257,40.457 148.794,40.457 148.229 C 40.457 147.663,40.366 147.200,40.255 147.200 C 40.143 147.200,39.982 146.737,39.898 146.171 C 39.813 145.606,39.647 145.143,39.529 145.143 C 39.411 145.143,39.314 145.039,39.314 144.912 C 39.314 144.580,38.059 143.314,37.730 143.314 C 37.405 143.314,36.800 142.754,36.800 142.451 C 36.800 142.192,36.006 141.257,35.785 141.257 C 35.588 141.257,34.971 140.657,34.971 140.465 C 34.971 140.159,33.156 138.514,32.818 138.514 C 32.619 138.514,32.457 138.411,32.457 138.286 C 32.457 138.160,32.311 138.057,32.133 138.057 C 31.955 138.057,31.775 137.955,31.733 137.831 C 31.691 137.706,30.990 137.535,30.174 137.450 C 28.518 137.277,28.241 137.097,28.010 136.044 C 27.922 135.643,27.755 135.314,27.639 135.314 C 27.523 135.314,27.429 135.160,27.429 134.971 C 27.429 134.783,27.326 134.629,27.200 134.629 C 27.074 134.629,26.971 134.475,26.971 134.288 C 26.971 133.791,26.249 133.029,25.778 133.029 C 25.554 133.029,25.371 132.926,25.371 132.800 C 25.371 132.674,25.217 132.571,25.029 132.571 C 24.840 132.571,24.686 132.469,24.686 132.343 C 24.686 132.217,24.377 132.114,24.000 132.114 C 23.623 132.114,23.314 132.011,23.314 131.886 C 23.314 131.760,23.064 131.657,22.759 131.657 C 22.206 131.657,21.486 131.130,21.486 130.727 C 21.486 130.610,21.292 130.514,21.055 130.514 C 20.719 130.514,20.589 130.287,20.469 129.486 C 20.384 128.920,20.218 128.457,20.100 128.457 C 19.982 128.457,19.886 128.351,19.886 128.221 C 19.886 127.866,18.547 126.629,18.164 126.629 C 17.979 126.629,17.829 126.526,17.829 126.400 C 17.829 126.274,17.674 126.171,17.486 126.171 C 17.297 126.171,17.143 126.069,17.143 125.943 C 17.143 125.817,16.859 125.714,16.512 125.714 C 16.075 125.714,15.671 125.470,15.198 124.919 C 14.822 124.482,14.386 124.122,14.229 124.119 C 14.071 124.117,13.943 123.857,13.943 123.543 C 13.943 123.229,13.840 122.971,13.714 122.971 C 13.589 122.971,13.486 122.817,13.486 122.629 C 13.486 122.440,13.396 122.286,13.286 122.286 C 13.176 122.286,13.022 121.968,12.944 121.579 C 12.795 120.833,11.602 119.543,11.062 119.543 C 10.886 119.543,10.743 119.440,10.743 119.314 C 10.743 119.189,10.548 119.086,10.310 119.086 C 9.817 119.086,9.600 118.660,9.600 117.696 C 9.600 117.086,9.668 117.029,10.400 117.029 C 10.840 117.029,11.200 116.939,11.200 116.829 C 11.200 116.720,11.611 116.564,12.114 116.484 C 12.617 116.403,13.029 116.236,13.029 116.112 C 13.029 115.987,13.190 115.886,13.388 115.886 C 13.841 115.886,14.293 115.440,14.500 114.789 C 14.587 114.512,14.755 114.286,14.873 114.286 C 14.990 114.286,15.086 114.131,15.086 113.943 C 15.086 113.754,15.189 113.600,15.314 113.600 C 15.440 113.600,15.543 113.356,15.543 113.057 C 15.543 111.630,15.803 111.086,16.486 111.086 C 16.847 111.086,17.143 110.996,17.143 110.887 C 17.143 110.777,17.760 110.618,18.514 110.532 C 19.269 110.447,19.886 110.280,19.886 110.160 C 19.886 110.041,19.994 109.943,20.126 109.943 C 20.257 109.943,20.981 109.326,21.733 108.571 C 22.484 107.817,23.204 107.200,23.332 107.200 C 23.618 107.200,24.686 106.154,24.686 105.874 C 24.686 105.438,25.521 104.739,26.229 104.584 C 26.637 104.494,26.971 104.326,26.971 104.210 C 26.971 104.095,27.170 104.000,27.413 104.000 C 27.656 104.000,27.920 103.795,28.000 103.543 C 28.080 103.292,28.395 103.024,28.701 102.947 C 29.007 102.870,29.257 102.716,29.257 102.604 C 29.257 102.492,29.425 102.400,29.630 102.400 C 29.836 102.400,30.170 102.209,30.373 101.976 C 30.577 101.742,30.974 101.478,31.257 101.389 C 31.543 101.298,31.771 101.041,31.771 100.809 C 31.771 100.580,31.926 100.333,32.114 100.260 C 32.303 100.188,32.457 99.920,32.457 99.664 C 32.457 99.409,32.560 99.200,32.686 99.200 C 32.811 99.200,32.914 99.090,32.914 98.955 C 32.914 98.692,33.476 98.057,33.708 98.057 C 33.786 98.057,34.106 97.800,34.421 97.486 C 34.735 97.171,35.142 96.914,35.325 96.914 C 35.508 96.914,35.657 96.811,35.657 96.686 C 35.657 96.560,35.914 96.457,36.229 96.457 C 36.543 96.457,36.800 96.354,36.800 96.229 C 36.800 96.103,36.962 96.000,37.160 96.000 C 37.628 96.000,38.857 94.770,38.857 94.303 C 38.857 94.105,38.960 93.943,39.086 93.943 C 39.211 93.943,39.314 93.797,39.314 93.619 C 39.314 93.441,39.433 93.256,39.577 93.208 C 39.722 93.159,39.889 92.534,39.949 91.817 C 40.008 91.101,40.147 90.514,40.257 90.514 C 40.367 90.514,40.457 89.897,40.457 89.143 C 40.457 88.381,40.559 87.771,40.686 87.771 C 40.837 87.771,40.914 78.743,40.914 61.143 C 40.914 43.543,40.992 34.514,41.143 34.514 C 41.282 34.514,41.371 33.451,41.371 31.782 C 41.371 29.169,41.396 29.026,41.937 28.525 C 43.616 26.966,44.115 26.339,44.262 25.606 C 44.338 25.225,44.490 24.914,44.600 24.914 C 44.710 24.914,44.800 24.657,44.800 24.343 C 44.800 24.029,44.903 23.771,45.029 23.771 C 45.154 23.771,45.257 23.411,45.257 22.971 C 45.257 22.531,45.358 22.171,45.481 22.171 C 45.605 22.171,45.770 21.914,45.849 21.600 C 45.928 21.286,46.084 21.029,46.196 21.029 C 46.308 21.029,46.400 20.874,46.400 20.686 C 46.400 20.497,46.503 20.343,46.629 20.343 C 46.754 20.343,46.857 20.034,46.857 19.657 C 46.857 19.280,46.947 18.971,47.056 18.971 C 47.166 18.971,47.325 18.263,47.410 17.398 C 47.577 15.702,47.758 15.543,49.514 15.543 C 49.813 15.543,50.057 15.440,50.057 15.314 C 50.057 15.189,50.314 15.086,50.629 15.086 C 50.943 15.086,51.200 14.983,51.200 14.857 C 51.200 14.731,51.354 14.629,51.543 14.629 C 51.731 14.629,51.886 14.539,51.886 14.429 C 51.886 14.319,52.186 14.169,52.553 14.095 C 52.949 14.016,53.281 13.772,53.368 13.495 C 53.450 13.239,53.612 13.029,53.730 13.029 C 53.847 13.029,53.943 12.918,53.943 12.784 C 53.943 12.521,54.504 11.886,54.736 11.886 C 55.118 11.886,56.686 10.315,56.686 9.932 C 56.686 9.705,56.938 9.600,57.486 9.600 C 57.926 9.600,58.286 9.497,58.286 9.371 C 58.286 9.246,58.543 9.143,58.857 9.143 C 59.171 9.143,59.429 9.040,59.429 8.914 C 59.429 8.789,59.634 8.686,59.886 8.686 C 60.137 8.686,60.343 8.596,60.343 8.487 C 60.343 8.377,61.166 8.216,62.171 8.128 C 63.177 8.040,64.000 7.873,64.000 7.756 C 64.000 7.639,64.246 7.543,64.547 7.543 C 64.848 7.543,65.153 7.389,65.226 7.200 C 65.298 7.011,65.528 6.857,65.737 6.857 C 66.103 6.857,66.971 6.049,66.971 5.708 C 66.971 5.617,67.277 5.482,67.649 5.407 C 69.201 5.097,70.171 3.686,70.171 1.741 L 70.171 0.000 67.086 0.000 L 64.000 0.000 64.000 1.813 M363.886 1.813 C 363.886 3.481,363.926 3.639,364.389 3.786 C 364.972 3.971,365.486 4.434,365.486 4.774 C 365.486 5.240,367.320 6.870,367.996 7.005 C 368.375 7.081,368.686 7.233,368.686 7.343 C 368.686 7.453,368.943 7.543,369.257 7.543 C 369.571 7.543,369.829 7.632,369.829 7.742 C 369.829 7.851,370.446 8.011,371.200 8.096 C 371.954 8.181,372.571 8.349,372.571 8.468 C 372.571 8.588,372.931 8.686,373.371 8.686 C 373.811 8.686,374.171 8.789,374.171 8.914 C 374.171 9.040,374.531 9.143,374.971 9.143 C 375.411 9.143,375.771 9.246,375.771 9.371 C 375.771 9.497,376.209 9.602,376.743 9.604 C 377.997 9.608,378.185 9.754,378.359 10.855 C 378.439 11.357,378.609 11.803,378.737 11.846 C 378.866 11.889,378.971 12.066,378.971 12.240 C 378.971 12.759,380.226 13.881,380.996 14.050 C 381.391 14.137,381.714 14.302,381.714 14.418 C 381.714 14.534,381.971 14.629,382.286 14.629 C 382.600 14.629,382.857 14.731,382.857 14.857 C 382.857 14.983,383.217 15.086,383.657 15.086 C 384.097 15.086,384.457 15.182,384.457 15.299 C 384.457 15.416,384.663 15.577,384.914 15.657 C 385.281 15.773,385.371 16.003,385.371 16.815 C 385.371 17.373,385.463 17.829,385.574 17.829 C 385.685 17.829,385.846 18.291,385.931 18.857 C 386.016 19.423,386.182 19.886,386.300 19.886 C 386.418 19.886,386.514 20.040,386.514 20.229 C 386.514 20.417,386.610 20.571,386.727 20.571 C 386.845 20.571,387.007 20.781,387.089 21.038 C 387.177 21.315,387.508 21.559,387.904 21.638 C 388.271 21.711,388.571 21.861,388.571 21.971 C 388.571 22.081,388.682 22.171,388.816 22.171 C 389.133 22.171,389.714 22.753,389.714 23.069 C 389.714 23.204,389.817 23.314,389.943 23.314 C 390.069 23.314,390.171 23.513,390.171 23.755 C 390.171 23.998,390.326 24.350,390.514 24.539 C 390.737 24.761,390.857 25.328,390.857 26.155 C 390.857 26.856,390.960 27.429,391.086 27.429 C 391.220 27.429,391.314 28.222,391.314 29.352 C 391.314 30.688,391.402 31.305,391.600 31.371 C 391.828 31.447,391.886 48.279,391.886 114.514 C 391.886 180.749,391.828 197.581,391.600 197.657 C 391.402 197.723,391.314 198.340,391.314 199.676 C 391.314 200.806,391.220 201.600,391.086 201.600 C 390.959 201.600,390.857 202.210,390.857 202.971 C 390.857 203.726,390.756 204.343,390.633 204.343 C 390.510 204.343,390.344 204.600,390.265 204.914 C 390.186 205.229,390.030 205.486,389.918 205.486 C 389.806 205.486,389.714 205.647,389.714 205.845 C 389.714 206.342,389.203 206.805,388.442 206.996 C 387.726 207.175,386.514 208.302,386.514 208.789 C 386.514 208.963,386.405 209.141,386.271 209.186 C 386.137 209.230,385.969 209.702,385.898 210.233 C 385.827 210.765,385.679 211.200,385.570 211.200 C 385.461 211.200,385.371 211.565,385.371 212.010 C 385.371 213.198,384.625 213.841,383.013 214.042 C 382.299 214.131,381.714 214.300,381.714 214.416 C 381.714 214.533,381.560 214.629,381.371 214.629 C 381.183 214.629,381.029 214.731,381.029 214.857 C 381.029 214.983,380.866 215.086,380.668 215.086 C 380.201 215.086,378.971 216.315,378.971 216.782 C 378.971 216.981,378.873 217.143,378.753 217.143 C 378.633 217.143,378.463 217.526,378.375 217.994 C 378.162 219.129,377.813 219.429,376.702 219.429 C 376.190 219.429,375.771 219.531,375.771 219.657 C 375.771 219.783,375.411 219.886,374.971 219.886 C 374.531 219.886,374.171 219.975,374.171 220.085 C 374.171 220.194,373.686 220.338,373.093 220.405 C 372.500 220.472,371.977 220.639,371.931 220.778 C 371.885 220.916,371.393 221.029,370.838 221.029 C 370.283 221.029,369.829 221.120,369.829 221.231 C 369.829 221.343,369.366 221.503,368.800 221.588 C 368.234 221.673,367.771 221.839,367.771 221.957 C 367.771 222.075,367.668 222.171,367.541 222.171 C 367.158 222.171,365.943 223.451,365.943 223.853 C 365.943 224.060,365.840 224.229,365.714 224.229 C 365.589 224.229,365.486 224.383,365.486 224.571 C 365.486 224.760,365.291 224.914,365.053 224.914 C 364.482 224.914,364.343 225.342,364.343 227.104 L 364.343 228.571 367.086 228.571 L 369.829 228.571 369.829 227.055 C 369.829 225.505,370.275 224.686,371.121 224.686 C 371.290 224.686,371.429 224.583,371.429 224.457 C 371.429 224.331,371.545 224.229,371.687 224.229 C 371.830 224.229,372.113 224.037,372.316 223.802 C 372.520 223.568,373.020 223.302,373.429 223.213 C 373.837 223.123,374.171 222.955,374.171 222.839 C 374.171 222.723,374.377 222.629,374.629 222.629 C 374.880 222.629,375.086 222.526,375.086 222.400 C 375.086 222.274,375.240 222.171,375.429 222.171 C 375.617 222.171,375.771 222.076,375.771 221.959 C 375.771 221.843,376.337 221.676,377.029 221.590 C 377.720 221.504,378.286 221.342,378.286 221.231 C 378.286 221.120,378.440 221.029,378.629 221.029 C 378.817 221.029,378.971 220.926,378.971 220.800 C 378.971 220.674,379.121 220.571,379.304 220.571 C 379.487 220.571,379.894 220.314,380.208 220.000 C 380.522 219.686,380.843 219.429,380.920 219.429 C 381.103 219.429,381.714 218.818,381.714 218.635 C 381.714 218.362,382.787 217.425,383.277 217.269 C 383.549 217.183,383.771 217.016,383.771 216.899 C 383.771 216.782,383.879 216.686,384.010 216.686 C 384.503 216.686,386.831 214.289,387.070 213.535 C 387.154 213.269,387.424 212.988,387.669 212.911 C 387.914 212.833,388.114 212.570,388.114 212.327 C 388.114 212.084,388.217 211.886,388.343 211.886 C 388.469 211.886,388.571 211.735,388.571 211.551 C 388.571 211.367,389.288 210.500,390.163 209.624 C 391.038 208.749,391.821 207.768,391.902 207.445 C 391.983 207.122,392.141 206.857,392.253 206.857 C 392.365 206.857,392.457 206.394,392.457 205.829 C 392.457 205.263,392.547 204.800,392.656 204.800 C 392.766 204.800,392.927 203.977,393.015 202.971 C 393.102 201.966,393.270 201.143,393.387 201.143 C 393.504 201.143,393.600 200.731,393.600 200.229 C 393.600 199.726,393.703 199.314,393.829 199.314 C 393.957 199.314,394.057 198.673,394.057 197.848 C 394.057 196.877,394.154 196.349,394.343 196.286 C 394.571 196.210,394.629 179.675,394.629 114.629 C 394.629 49.582,394.571 33.047,394.343 32.971 C 394.157 32.910,394.057 32.403,394.057 31.524 C 394.057 30.775,393.955 30.171,393.829 30.171 C 393.703 30.171,393.600 29.657,393.600 29.029 C 393.600 28.400,393.504 27.886,393.387 27.886 C 393.270 27.886,393.102 27.063,393.015 26.057 C 392.927 25.051,392.766 24.229,392.656 24.229 C 392.547 24.229,392.457 23.766,392.457 23.200 C 392.457 22.634,392.359 22.171,392.239 22.171 C 392.119 22.171,391.953 21.811,391.871 21.371 C 391.788 20.931,391.634 20.571,391.528 20.571 C 391.422 20.571,391.099 20.317,390.810 20.006 C 390.152 19.297,389.846 18.991,389.137 18.332 C 388.826 18.044,388.571 17.681,388.571 17.526 C 388.571 17.371,388.366 17.096,388.114 16.914 C 387.863 16.733,387.657 16.413,387.657 16.203 C 387.657 15.992,387.503 15.761,387.314 15.689 C 387.126 15.616,386.971 15.396,386.971 15.199 C 386.971 14.766,384.501 12.343,384.060 12.343 C 383.957 12.343,383.724 12.137,383.543 11.886 C 383.362 11.634,383.098 11.429,382.956 11.429 C 382.551 11.429,381.714 10.612,381.714 10.217 C 381.714 10.020,381.483 9.786,381.200 9.697 C 380.917 9.608,380.519 9.344,380.316 9.110 C 380.113 8.877,379.830 8.686,379.687 8.686 C 379.545 8.686,379.429 8.585,379.429 8.461 C 379.429 8.338,379.171 8.173,378.857 8.094 C 378.543 8.015,378.286 7.859,378.286 7.747 C 378.286 7.635,377.977 7.543,377.600 7.543 C 377.223 7.543,376.914 7.450,376.914 7.336 C 376.914 7.222,376.400 7.058,375.771 6.971 C 375.143 6.885,374.629 6.721,374.629 6.607 C 374.629 6.493,374.423 6.400,374.171 6.400 C 373.920 6.400,373.714 6.297,373.714 6.171 C 373.714 6.046,373.560 5.943,373.371 5.943 C 373.183 5.943,373.029 5.847,373.029 5.730 C 373.029 5.612,372.797 5.443,372.514 5.354 C 372.231 5.265,371.834 5.001,371.630 4.767 C 371.427 4.534,371.144 4.343,371.002 4.343 C 370.859 4.343,370.743 4.247,370.743 4.130 C 370.743 4.012,370.537 3.851,370.286 3.771 C 369.879 3.642,369.829 3.426,369.829 1.813 L 369.829 0.000 366.857 0.000 L 363.886 0.000 363.886 1.813 " stroke="none" fill="#848484" fill-rule="evenodd"></path><path id="path3" d="M56.000 1.803 L 56.000 3.606 55.200 3.756 C 54.760 3.839,54.400 4.005,54.400 4.125 C 54.400 4.245,54.143 4.343,53.829 4.343 C 53.514 4.343,53.257 4.446,53.257 4.571 C 53.257 4.697,52.949 4.800,52.571 4.800 C 52.194 4.800,51.886 4.898,51.886 5.018 C 51.886 5.138,51.526 5.304,51.086 5.387 C 50.646 5.469,50.286 5.628,50.286 5.740 C 50.286 5.851,50.185 5.943,50.062 5.943 C 49.758 5.943,46.400 9.286,46.400 9.588 C 46.400 9.720,46.294 9.829,46.164 9.829 C 45.677 9.829,43.190 12.562,43.053 13.250 C 42.977 13.631,42.824 13.943,42.714 13.943 C 42.604 13.943,42.514 14.097,42.514 14.286 C 42.514 14.474,42.411 14.629,42.286 14.629 C 42.160 14.629,42.057 14.886,42.057 15.200 C 42.057 15.514,41.954 15.771,41.829 15.771 C 41.703 15.771,41.600 15.977,41.600 16.229 C 41.600 16.483,41.448 16.686,41.257 16.686 C 41.069 16.686,40.914 16.789,40.914 16.914 C 40.914 17.040,40.752 17.143,40.553 17.143 C 40.084 17.143,38.171 19.056,38.171 19.525 C 38.171 19.723,38.069 19.886,37.943 19.886 C 37.817 19.886,37.714 20.040,37.714 20.229 C 37.714 20.417,37.611 20.571,37.486 20.571 C 37.360 20.571,37.257 20.829,37.257 21.143 C 37.257 21.457,37.165 21.714,37.052 21.714 C 36.939 21.714,36.774 22.434,36.686 23.314 C 36.597 24.194,36.433 24.914,36.320 24.914 C 36.207 24.914,36.114 25.274,36.114 25.714 C 36.114 26.154,36.021 26.514,35.907 26.514 C 35.793 26.514,35.627 27.491,35.537 28.686 C 35.447 29.880,35.284 30.857,35.173 30.857 C 35.062 30.857,34.971 31.063,34.971 31.314 C 34.971 31.566,34.869 31.771,34.743 31.771 C 34.617 31.771,34.514 31.926,34.514 32.114 C 34.514 32.303,34.423 32.457,34.312 32.457 C 34.201 32.457,34.039 33.023,33.953 33.714 C 33.866 34.406,33.700 34.971,33.584 34.971 C 33.467 34.971,33.371 35.846,33.371 36.914 C 33.371 38.057,33.277 38.857,33.143 38.857 C 32.992 38.857,32.914 46.895,32.914 62.514 C 32.914 77.385,32.833 86.171,32.696 86.171 C 32.576 86.171,32.410 86.531,32.328 86.971 C 32.245 87.411,32.086 87.771,31.975 87.771 C 31.863 87.771,31.771 88.029,31.771 88.343 C 31.771 88.657,31.669 88.914,31.543 88.914 C 31.417 88.914,31.314 89.171,31.314 89.486 C 31.314 89.800,31.226 90.057,31.118 90.057 C 31.009 90.057,30.857 90.597,30.779 91.256 C 30.701 91.915,30.521 92.493,30.380 92.540 C 30.239 92.587,29.841 92.922,29.494 93.284 C 29.148 93.646,28.645 93.943,28.375 93.943 C 28.106 93.943,27.886 94.046,27.886 94.171 C 27.886 94.297,27.680 94.400,27.429 94.400 C 27.177 94.400,26.971 94.503,26.971 94.629 C 26.971 94.754,26.861 94.857,26.727 94.857 C 26.592 94.857,26.327 95.011,26.139 95.200 C 25.950 95.389,25.598 95.543,25.355 95.543 C 25.072 95.543,24.914 95.701,24.914 95.984 C 24.914 96.226,24.760 96.579,24.571 96.767 C 24.383 96.956,24.229 97.220,24.229 97.355 C 24.229 97.490,24.126 97.600,24.000 97.600 C 23.874 97.600,23.771 97.751,23.771 97.935 C 23.771 98.438,22.482 99.657,21.951 99.657 C 21.695 99.657,21.486 99.748,21.486 99.860 C 21.486 99.971,21.023 100.132,20.457 100.217 C 19.891 100.301,19.429 100.467,19.429 100.585 C 19.429 100.703,19.274 100.800,19.086 100.800 C 18.897 100.800,18.743 100.903,18.743 101.029 C 18.743 101.154,18.541 101.257,18.295 101.257 C 18.048 101.257,17.714 101.416,17.552 101.611 C 17.294 101.920,16.908 102.318,16.008 103.200 C 15.880 103.326,15.416 103.814,14.977 104.286 C 14.538 104.757,14.046 105.143,13.883 105.143 C 13.720 105.143,13.438 105.349,13.257 105.600 C 13.076 105.851,12.801 106.057,12.647 106.057 C 12.492 106.057,11.746 106.674,10.990 107.429 C 10.233 108.183,9.513 108.800,9.389 108.800 C 9.031 108.800,7.543 110.451,7.543 110.847 C 7.543 110.979,7.442 111.086,7.319 111.086 C 7.195 111.086,7.030 111.343,6.951 111.657 C 6.872 111.971,6.716 112.229,6.604 112.229 C 6.492 112.229,6.400 112.434,6.400 112.686 C 6.400 112.937,6.297 113.143,6.171 113.143 C 6.046 113.143,5.943 113.289,5.943 113.467 C 5.943 113.645,5.834 113.827,5.701 113.871 C 5.567 113.916,5.398 114.747,5.325 115.719 C 5.251 116.691,5.103 117.486,4.996 117.486 C 4.888 117.486,4.800 117.743,4.800 118.057 C 4.800 118.371,4.887 118.629,4.993 118.629 C 5.100 118.629,5.251 120.042,5.329 121.769 C 5.411 123.599,5.569 124.942,5.707 124.988 C 5.837 125.031,5.943 125.212,5.943 125.390 C 5.943 125.569,6.046 125.714,6.171 125.714 C 6.297 125.714,6.400 125.873,6.400 126.068 C 6.400 126.538,8.307 128.457,8.775 128.457 C 8.977 128.457,9.143 128.560,9.143 128.686 C 9.143 128.811,9.250 128.914,9.382 128.914 C 9.513 128.914,9.868 129.146,10.171 129.429 C 10.473 129.711,10.880 130.075,11.075 130.238 C 11.269 130.400,11.429 130.734,11.429 130.980 C 11.429 131.227,11.531 131.429,11.657 131.429 C 11.783 131.429,11.886 131.535,11.886 131.666 C 11.886 132.044,13.642 133.714,14.039 133.714 C 14.238 133.714,14.400 133.817,14.400 133.943 C 14.400 134.069,14.554 134.171,14.743 134.171 C 14.931 134.171,15.086 134.274,15.086 134.400 C 15.086 134.526,15.334 134.629,15.637 134.629 C 16.262 134.629,18.590 136.757,18.846 137.564 C 18.932 137.835,19.098 138.057,19.215 138.057 C 19.333 138.057,19.429 138.256,19.429 138.499 C 19.429 138.756,19.643 139.008,19.943 139.103 C 20.226 139.192,20.623 139.456,20.827 139.690 C 21.030 139.923,21.313 140.114,21.455 140.114 C 21.598 140.114,21.714 140.217,21.714 140.343 C 21.714 140.469,21.913 140.571,22.155 140.571 C 22.398 140.571,22.750 140.726,22.939 140.914 C 23.127 141.103,23.369 141.257,23.476 141.257 C 23.583 141.257,23.816 141.459,23.994 141.706 C 24.172 141.953,24.616 142.220,24.982 142.301 C 25.727 142.464,27.429 144.043,27.429 144.571 C 27.429 144.760,27.578 144.914,27.761 144.914 C 28.146 144.914,29.714 146.483,29.714 146.867 C 29.714 146.946,30.274 147.557,30.958 148.225 L 32.201 149.439 32.362 152.548 C 32.451 154.258,32.612 155.657,32.719 155.657 C 32.826 155.657,32.914 163.783,32.914 173.714 C 32.914 185.600,32.992 191.771,33.143 191.771 C 33.270 191.771,33.371 192.381,33.371 193.143 C 33.371 193.897,33.465 194.514,33.579 194.514 C 33.692 194.514,33.856 195.029,33.943 195.657 C 34.029 196.286,34.193 196.800,34.307 196.800 C 34.421 196.800,34.514 197.006,34.514 197.257 C 34.514 197.509,34.617 197.714,34.743 197.714 C 34.869 197.714,34.971 197.869,34.971 198.057 C 34.971 198.246,35.059 198.400,35.167 198.400 C 35.275 198.400,35.433 199.249,35.519 200.286 C 35.605 201.323,35.774 202.206,35.895 202.248 C 36.016 202.290,36.114 202.675,36.114 203.105 C 36.114 203.534,36.207 203.886,36.320 203.886 C 36.433 203.886,36.597 204.606,36.686 205.486 C 36.774 206.366,36.939 207.086,37.052 207.086 C 37.165 207.086,37.257 207.343,37.257 207.657 C 37.257 207.971,37.360 208.229,37.486 208.229 C 37.611 208.229,37.714 208.526,37.714 208.890 C 37.714 209.267,37.862 209.608,38.057 209.683 C 38.246 209.755,38.400 209.985,38.400 210.195 C 38.400 210.608,39.226 211.429,39.642 211.429 C 39.783 211.429,40.047 211.634,40.229 211.886 C 40.410 212.137,40.739 212.343,40.960 212.343 C 41.199 212.343,41.421 212.576,41.506 212.914 C 41.585 213.229,41.741 213.486,41.853 213.486 C 41.965 213.486,42.057 213.743,42.057 214.057 C 42.057 214.371,42.160 214.629,42.286 214.629 C 42.411 214.629,42.514 214.834,42.514 215.086 C 42.514 215.337,42.606 215.543,42.718 215.543 C 42.830 215.543,42.986 215.800,43.065 216.114 C 43.144 216.429,43.310 216.686,43.433 216.686 C 43.556 216.686,43.657 216.796,43.657 216.931 C 43.657 217.065,43.786 217.310,43.943 217.474 C 44.100 217.638,44.380 217.991,44.565 218.258 C 44.750 218.525,45.041 218.743,45.213 218.743 C 45.473 218.743,46.316 219.496,48.702 221.860 C 48.847 222.003,49.216 222.389,49.522 222.717 C 49.828 223.046,50.228 223.314,50.410 223.314 C 50.593 223.314,50.743 223.417,50.743 223.543 C 50.743 223.669,50.949 223.771,51.200 223.771 C 51.451 223.771,51.657 223.874,51.657 224.000 C 51.657 224.126,51.914 224.229,52.229 224.229 C 52.543 224.229,52.800 224.320,52.800 224.431 C 52.800 224.543,53.263 224.703,53.829 224.788 C 54.394 224.873,54.857 225.039,54.857 225.157 C 54.857 225.275,55.011 225.371,55.200 225.371 C 55.472 225.371,55.543 225.702,55.543 226.971 L 55.543 228.571 57.486 228.571 L 59.429 228.571 59.429 226.971 C 59.429 225.702,59.358 225.371,59.086 225.371 C 58.897 225.371,58.743 225.271,58.743 225.147 C 58.743 225.024,58.486 224.858,58.171 224.780 C 57.857 224.701,57.600 224.544,57.600 224.432 C 57.600 224.320,57.394 224.229,57.143 224.229 C 56.891 224.229,56.686 224.126,56.686 224.000 C 56.686 223.874,56.531 223.771,56.343 223.771 C 56.154 223.771,56.000 223.680,56.000 223.568 C 56.000 223.457,55.640 223.298,55.200 223.215 C 54.760 223.133,54.400 222.967,54.400 222.847 C 54.400 222.727,54.194 222.629,53.943 222.629 C 53.691 222.629,53.486 222.526,53.486 222.400 C 53.486 222.274,53.331 222.171,53.143 222.171 C 52.954 222.171,52.800 222.069,52.800 221.943 C 52.800 221.817,52.591 221.714,52.336 221.714 C 52.080 221.714,51.812 221.560,51.740 221.371 C 51.667 221.183,51.457 221.029,51.272 221.029 C 50.832 221.029,49.600 219.790,49.600 219.347 C 49.600 219.158,49.371 218.929,49.090 218.840 C 48.810 218.751,48.306 218.385,47.970 218.025 C 47.634 217.666,47.251 217.371,47.119 217.371 C 46.827 217.371,45.714 216.289,45.714 216.005 C 45.714 215.893,45.509 215.737,45.257 215.657 C 45.006 215.577,44.800 215.313,44.800 215.070 C 44.800 214.827,44.699 214.629,44.576 214.629 C 44.452 214.629,44.287 214.371,44.208 214.057 C 44.129 213.743,43.973 213.486,43.861 213.486 C 43.749 213.486,43.657 213.331,43.657 213.143 C 43.657 212.954,43.554 212.800,43.429 212.800 C 43.303 212.800,43.200 212.602,43.200 212.359 C 43.200 212.117,43.046 211.764,42.857 211.576 C 42.669 211.387,42.514 211.167,42.514 211.088 C 42.514 211.008,41.794 210.229,40.914 209.356 C 40.034 208.483,39.314 207.615,39.314 207.427 C 39.314 207.239,39.211 207.086,39.086 207.086 C 38.960 207.086,38.857 206.829,38.857 206.514 C 38.857 206.200,38.761 205.943,38.644 205.943 C 38.527 205.943,38.360 205.120,38.272 204.114 C 38.184 203.109,38.023 202.286,37.913 202.286 C 37.804 202.286,37.714 201.926,37.714 201.486 C 37.714 201.046,37.611 200.686,37.486 200.686 C 37.359 200.686,37.257 200.083,37.257 199.333 C 37.257 198.590,37.158 197.947,37.036 197.905 C 36.914 197.863,36.744 196.260,36.658 194.343 C 36.572 192.426,36.414 190.857,36.308 190.857 C 36.201 190.857,36.114 182.629,36.114 172.571 C 36.114 160.533,36.036 154.286,35.886 154.286 C 35.747 154.286,35.657 153.299,35.657 151.782 C 35.657 149.377,35.634 149.256,35.060 148.722 C 34.732 148.416,34.361 148.062,34.235 147.937 C 34.109 147.811,33.749 147.451,33.435 147.137 C 33.121 146.822,32.761 146.462,32.635 146.337 C 32.509 146.211,32.156 145.839,31.850 145.511 C 31.544 145.183,31.195 144.914,31.075 144.914 C 30.955 144.914,30.857 144.713,30.857 144.466 C 30.857 144.220,30.696 143.885,30.499 143.723 C 30.303 143.561,29.854 143.146,29.503 142.800 C 29.152 142.454,28.703 142.171,28.505 142.171 C 28.307 142.171,28.080 141.966,28.000 141.714 C 27.920 141.463,27.656 141.257,27.413 141.257 C 27.170 141.257,26.971 141.161,26.971 141.044 C 26.971 140.927,26.740 140.758,26.457 140.668 C 26.174 140.579,25.777 140.315,25.573 140.082 C 25.370 139.848,25.131 139.657,25.043 139.657 C 24.954 139.657,24.727 139.503,24.539 139.314 C 24.350 139.126,24.004 138.971,23.771 138.971 C 23.537 138.971,23.280 138.766,23.200 138.514 C 23.120 138.263,22.902 138.057,22.716 138.057 C 22.530 138.057,21.316 136.989,20.020 135.682 C 18.723 134.376,17.443 133.238,17.174 133.153 C 16.905 133.068,16.686 132.902,16.686 132.785 C 16.686 132.667,16.487 132.571,16.244 132.571 C 16.001 132.571,15.739 132.371,15.661 132.126 C 15.583 131.881,15.319 131.617,15.074 131.539 C 14.829 131.461,14.629 131.307,14.629 131.195 C 14.629 131.083,14.360 130.742,14.032 130.436 C 13.288 129.743,13.114 129.569,12.421 128.825 C 12.115 128.497,11.774 128.229,11.662 128.229 C 11.551 128.229,11.398 128.035,11.323 127.799 C 11.247 127.560,10.892 127.310,10.526 127.237 C 10.136 127.159,9.805 126.913,9.717 126.638 C 9.635 126.380,9.371 126.171,9.127 126.171 C 8.884 126.171,8.686 126.064,8.686 125.933 C 8.686 125.709,8.507 125.450,7.829 124.694 C 7.671 124.519,7.543 124.162,7.543 123.902 C 7.543 123.642,7.450 123.429,7.336 123.429 C 7.222 123.429,7.055 122.451,6.966 121.257 C 6.876 120.063,6.712 119.086,6.601 119.086 C 6.491 119.086,6.400 118.623,6.400 118.057 C 6.400 117.491,6.491 117.029,6.603 117.029 C 6.714 117.029,6.875 116.566,6.959 116.000 C 7.044 115.434,7.210 114.971,7.328 114.971 C 7.446 114.971,7.543 114.817,7.543 114.629 C 7.543 114.440,7.639 114.286,7.756 114.286 C 7.873 114.286,8.042 114.056,8.131 113.776 C 8.305 113.228,9.506 112.000,9.869 112.000 C 10.162 112.000,10.743 111.409,10.743 111.111 C 10.743 110.749,14.058 107.495,14.603 107.322 C 14.869 107.238,15.086 107.073,15.086 106.956 C 15.086 106.839,15.196 106.743,15.331 106.743 C 15.465 106.743,15.730 106.589,15.918 106.400 C 16.107 106.211,16.460 106.057,16.702 106.057 C 16.944 106.057,17.143 105.959,17.143 105.839 C 17.143 105.719,17.426 105.356,17.771 105.033 C 18.547 104.307,18.593 104.261,19.318 103.486 C 19.642 103.140,20.033 102.857,20.189 102.857 C 20.344 102.857,20.619 102.651,20.800 102.400 C 20.981 102.149,21.261 101.943,21.422 101.943 C 21.583 101.943,21.714 101.853,21.714 101.743 C 21.714 101.633,22.025 101.481,22.406 101.405 C 22.786 101.328,23.357 101.007,23.673 100.690 C 23.990 100.373,24.352 100.114,24.478 100.114 C 24.721 100.114,25.829 99.084,25.829 98.858 C 25.829 98.479,27.895 96.457,28.283 96.457 C 28.386 96.457,28.619 96.251,28.800 96.000 C 28.981 95.749,29.256 95.543,29.411 95.543 C 29.567 95.543,29.951 95.286,30.265 94.971 C 30.579 94.657,30.900 94.400,30.977 94.400 C 31.109 94.400,31.336 94.221,32.049 93.554 C 32.583 93.055,32.914 92.594,32.914 92.353 C 32.914 92.221,33.017 92.114,33.143 92.114 C 33.269 92.114,33.371 91.909,33.371 91.657 C 33.371 91.406,33.461 91.200,33.571 91.200 C 33.680 91.200,33.832 90.813,33.908 90.341 C 33.984 89.862,34.250 89.333,34.508 89.147 C 34.763 88.964,34.971 88.630,34.971 88.407 C 34.971 88.183,35.070 88.000,35.190 88.000 C 35.310 88.000,35.475 87.640,35.558 87.200 C 35.640 86.760,35.799 86.400,35.911 86.400 C 36.028 86.400,36.114 76.196,36.114 62.286 C 36.114 49.023,36.202 38.171,36.308 38.171 C 36.415 38.171,36.574 36.551,36.662 34.571 C 36.750 32.591,36.919 30.937,37.039 30.895 C 37.159 30.853,37.257 30.210,37.257 29.467 C 37.257 28.717,37.359 28.114,37.486 28.114 C 37.611 28.114,37.714 27.754,37.714 27.314 C 37.714 26.874,37.807 26.514,37.920 26.514 C 38.033 26.514,38.197 25.794,38.286 24.914 C 38.374 24.034,38.539 23.314,38.652 23.314 C 38.765 23.314,38.857 22.961,38.857 22.530 C 38.857 21.946,38.974 21.708,39.314 21.600 C 39.566 21.520,39.771 21.296,39.771 21.101 C 39.771 20.906,40.493 20.042,41.376 19.180 C 42.421 18.160,43.028 17.372,43.119 16.921 C 43.195 16.540,43.347 16.229,43.457 16.229 C 43.567 16.229,43.657 16.118,43.657 15.984 C 43.657 15.849,43.811 15.584,44.000 15.396 C 44.189 15.207,44.343 14.862,44.343 14.628 C 44.343 14.394,44.549 14.137,44.800 14.057 C 45.051 13.977,45.257 13.768,45.257 13.592 C 45.257 13.214,46.505 11.886,46.860 11.886 C 46.996 11.886,47.346 11.629,47.637 11.314 C 47.928 11.000,48.328 10.743,48.525 10.743 C 48.722 10.743,48.947 10.542,49.025 10.297 C 49.103 10.052,49.367 9.788,49.612 9.711 C 49.857 9.633,50.057 9.478,50.057 9.366 C 50.057 9.103,51.160 8.000,51.424 8.000 C 51.535 8.000,51.688 7.805,51.764 7.567 C 51.849 7.298,52.203 7.077,52.694 6.985 C 53.129 6.903,53.486 6.738,53.486 6.618 C 53.486 6.498,53.691 6.400,53.943 6.400 C 54.194 6.400,54.400 6.297,54.400 6.171 C 54.400 6.046,54.554 5.943,54.743 5.943 C 54.931 5.943,55.086 5.854,55.086 5.744 C 55.086 5.635,55.503 5.490,56.013 5.422 C 56.547 5.350,57.116 5.095,57.354 4.820 C 57.582 4.558,57.884 4.343,58.027 4.343 C 58.169 4.343,58.286 4.247,58.286 4.130 C 58.286 4.013,58.517 3.885,58.800 3.844 C 59.279 3.776,59.319 3.644,59.381 1.886 L 59.447 -0.000 57.724 -0.000 L 56.000 0.000 56.000 1.803 M373.714 1.829 C 373.714 3.482,373.756 3.657,374.155 3.657 C 374.398 3.657,374.750 3.811,374.939 4.000 C 375.127 4.189,375.392 4.343,375.527 4.343 C 375.661 4.343,375.771 4.446,375.771 4.571 C 375.771 4.697,375.977 4.800,376.229 4.800 C 376.480 4.800,376.686 4.902,376.686 5.026 C 376.686 5.150,377.097 5.318,377.600 5.398 C 378.103 5.478,378.514 5.634,378.514 5.743 C 378.514 5.853,378.720 5.943,378.971 5.943 C 379.223 5.943,379.429 6.046,379.429 6.171 C 379.429 6.297,379.583 6.400,379.771 6.400 C 379.960 6.400,380.114 6.490,380.114 6.600 C 380.114 6.710,380.425 6.862,380.806 6.938 C 381.186 7.014,381.757 7.336,382.073 7.653 C 382.390 7.969,382.749 8.229,382.871 8.229 C 382.993 8.229,384.019 9.180,385.150 10.343 C 387.500 12.758,387.477 12.736,388.235 13.439 C 388.546 13.728,388.800 14.072,388.800 14.204 C 388.800 14.337,389.109 14.733,389.486 15.086 C 389.863 15.438,390.171 15.835,390.171 15.967 C 390.171 16.180,390.392 16.423,391.589 17.532 C 392.120 18.024,392.457 18.490,392.457 18.733 C 392.457 18.864,392.560 18.971,392.686 18.971 C 392.811 18.971,392.914 19.170,392.914 19.412 C 392.914 19.655,393.069 20.007,393.257 20.196 C 393.446 20.384,393.600 20.752,393.600 21.012 C 393.600 21.273,393.703 21.486,393.829 21.486 C 393.954 21.486,394.057 21.640,394.057 21.829 C 394.057 22.017,394.150 22.171,394.263 22.171 C 394.375 22.171,394.540 22.891,394.629 23.771 C 394.717 24.651,394.882 25.371,394.995 25.371 C 395.108 25.371,395.200 25.629,395.200 25.943 C 395.200 26.257,395.303 26.514,395.429 26.514 C 395.554 26.514,395.657 26.814,395.657 27.181 C 395.657 27.548,395.761 27.882,395.889 27.925 C 396.016 27.967,396.185 28.850,396.265 29.887 C 396.345 30.923,396.498 31.771,396.605 31.771 C 396.712 31.771,396.800 32.234,396.800 32.800 L 396.800 33.829 398.400 33.829 L 400.000 33.829 400.000 29.600 L 400.000 25.371 398.400 25.371 C 396.846 25.371,396.800 25.355,396.800 24.800 C 396.800 24.486,396.710 24.229,396.601 24.229 C 396.491 24.229,396.332 23.611,396.247 22.857 C 396.161 22.103,395.994 21.486,395.874 21.486 C 395.755 21.486,395.657 21.126,395.657 20.686 C 395.657 20.246,395.554 19.886,395.429 19.886 C 395.303 19.886,395.200 19.629,395.200 19.314 C 395.200 19.000,395.109 18.743,394.997 18.743 C 394.885 18.743,394.730 18.405,394.653 17.993 C 394.576 17.580,394.307 17.094,394.056 16.914 C 393.805 16.733,393.600 16.413,393.600 16.203 C 393.600 15.992,393.446 15.761,393.257 15.689 C 393.069 15.616,392.914 15.396,392.914 15.199 C 392.914 14.803,391.665 13.486,391.289 13.486 C 390.924 13.486,389.714 12.194,389.714 11.804 C 389.714 11.615,389.509 11.394,389.257 11.314 C 389.006 11.234,388.800 11.078,388.800 10.966 C 388.800 10.710,387.701 9.600,387.447 9.600 C 387.342 9.600,387.197 9.300,387.124 8.933 C 387.046 8.544,386.800 8.205,386.535 8.121 C 386.285 8.042,386.016 7.772,385.936 7.522 C 385.852 7.258,385.514 7.011,385.131 6.935 C 384.765 6.862,384.410 6.611,384.334 6.373 C 384.259 6.136,383.999 5.943,383.756 5.943 C 383.513 5.943,383.314 5.845,383.314 5.725 C 383.314 5.605,382.954 5.439,382.514 5.356 C 382.074 5.274,381.714 5.115,381.714 5.003 C 381.714 4.891,381.560 4.800,381.371 4.800 C 381.183 4.800,381.029 4.697,381.029 4.571 C 381.029 4.446,380.720 4.343,380.343 4.343 C 379.966 4.343,379.657 4.250,379.657 4.136 C 379.657 4.022,379.143 3.858,378.514 3.771 L 377.371 3.614 377.371 1.807 L 377.371 0.000 375.543 0.000 L 373.714 0.000 373.714 1.829 M396.800 196.686 C 396.800 197.251,396.709 197.714,396.598 197.714 C 396.487 197.714,396.324 198.486,396.236 199.429 C 396.148 200.371,395.981 201.143,395.866 201.143 C 395.751 201.143,395.657 201.400,395.657 201.714 C 395.657 202.029,395.554 202.286,395.429 202.286 C 395.303 202.286,395.200 202.594,395.200 202.971 C 395.200 203.349,395.108 203.657,394.995 203.657 C 394.882 203.657,394.717 204.377,394.629 205.257 C 394.540 206.137,394.375 206.857,394.263 206.857 C 394.150 206.857,394.057 207.011,394.057 207.200 C 394.057 207.389,393.954 207.543,393.829 207.543 C 393.703 207.543,393.600 207.800,393.600 208.114 C 393.600 208.429,393.497 208.686,393.371 208.686 C 393.246 208.686,393.143 208.895,393.143 209.150 C 393.143 209.405,392.989 209.674,392.800 209.746 C 392.611 209.818,392.457 210.035,392.457 210.227 C 392.457 210.419,392.200 210.814,391.886 211.106 C 391.571 211.397,391.314 211.747,391.314 211.883 C 391.314 212.020,390.851 212.581,390.286 213.131 C 389.720 213.681,389.257 214.196,389.257 214.275 C 389.257 214.435,388.846 214.959,388.389 215.382 C 388.034 215.711,387.195 216.548,386.806 216.960 C 386.653 217.124,386.410 217.374,386.267 217.517 C 386.123 217.661,385.749 218.035,385.435 218.349 C 385.121 218.663,384.761 219.023,384.635 219.149 C 384.509 219.275,384.165 219.621,383.871 219.917 C 383.066 220.730,382.673 221.029,382.410 221.029 C 382.279 221.029,382.171 221.129,382.171 221.253 C 382.171 221.376,381.914 221.542,381.600 221.620 C 381.286 221.699,381.029 221.856,381.029 221.968 C 381.029 222.080,380.823 222.171,380.571 222.171 C 380.320 222.171,380.114 222.274,380.114 222.400 C 380.114 222.526,379.960 222.629,379.771 222.629 C 379.583 222.629,379.429 222.725,379.429 222.843 C 379.429 222.961,378.966 223.127,378.400 223.212 C 377.834 223.297,377.371 223.457,377.371 223.569 C 377.371 223.680,377.217 223.771,377.029 223.771 C 376.840 223.771,376.686 223.874,376.686 224.000 C 376.686 224.126,376.480 224.229,376.229 224.229 C 375.977 224.229,375.771 224.324,375.771 224.442 C 375.771 224.559,375.545 224.727,375.268 224.815 C 374.365 225.101,374.171 225.500,374.171 227.069 L 374.171 228.571 376.000 228.571 L 377.829 228.571 377.829 226.971 C 377.829 225.417,377.845 225.371,378.400 225.371 C 378.714 225.371,378.971 225.278,378.971 225.164 C 378.971 225.050,379.486 224.886,380.114 224.800 C 380.743 224.714,381.257 224.550,381.257 224.436 C 381.257 224.322,381.463 224.229,381.714 224.229 C 381.966 224.229,382.171 224.126,382.171 224.000 C 382.171 223.874,382.326 223.771,382.514 223.771 C 382.703 223.771,382.857 223.669,382.857 223.543 C 382.857 223.417,383.056 223.314,383.298 223.314 C 383.540 223.314,383.893 223.160,384.082 222.971 C 384.270 222.783,384.512 222.629,384.619 222.629 C 384.726 222.629,384.962 222.423,385.143 222.171 C 385.324 221.920,385.588 221.714,385.730 221.714 C 386.130 221.714,386.889 220.969,387.068 220.400 C 387.158 220.117,387.327 219.886,387.444 219.886 C 387.561 219.886,387.657 219.687,387.657 219.444 C 387.657 219.201,387.863 218.937,388.114 218.857 C 388.366 218.777,388.571 218.621,388.571 218.509 C 388.571 218.322,389.181 217.683,390.046 216.962 C 390.241 216.800,390.400 216.466,390.400 216.220 C 390.400 215.927,390.555 215.771,390.848 215.771 C 391.095 215.771,391.429 215.612,391.591 215.417 C 391.753 215.222,392.271 214.664,392.743 214.178 C 393.214 213.691,393.600 213.182,393.600 213.046 C 393.600 212.911,393.703 212.800,393.829 212.800 C 393.954 212.800,394.057 212.594,394.057 212.343 C 394.057 212.091,394.155 211.886,394.275 211.886 C 394.395 211.886,394.561 211.526,394.644 211.086 C 394.726 210.646,394.885 210.286,394.997 210.286 C 395.109 210.286,395.200 210.029,395.200 209.714 C 395.200 209.400,395.303 209.143,395.429 209.143 C 395.554 209.143,395.657 208.886,395.657 208.571 C 395.657 208.257,395.747 208.000,395.856 208.000 C 395.966 208.000,396.125 207.383,396.210 206.629 C 396.296 205.874,396.463 205.257,396.583 205.257 C 396.702 205.257,396.800 204.949,396.800 204.571 L 396.800 203.886 398.400 203.886 L 400.000 203.886 400.000 199.771 L 400.000 195.657 398.400 195.657 L 396.800 195.657 396.800 196.686 " stroke="none" fill="#c4c4c4" fill-rule="evenodd"></path><path id="path4" d="M70.171 1.741 C 70.171 3.686,69.201 5.097,67.649 5.407 C 67.277 5.482,66.971 5.617,66.971 5.708 C 66.971 6.049,66.103 6.857,65.737 6.857 C 65.528 6.857,65.298 7.011,65.226 7.200 C 65.153 7.389,64.848 7.543,64.547 7.543 C 64.246 7.543,64.000 7.639,64.000 7.756 C 64.000 7.873,63.177 8.040,62.171 8.128 C 61.166 8.216,60.343 8.377,60.343 8.487 C 60.343 8.596,60.137 8.686,59.886 8.686 C 59.634 8.686,59.429 8.789,59.429 8.914 C 59.429 9.040,59.171 9.143,58.857 9.143 C 58.543 9.143,58.286 9.246,58.286 9.371 C 58.286 9.497,57.926 9.600,57.486 9.600 C 56.938 9.600,56.686 9.705,56.686 9.932 C 56.686 10.315,55.118 11.886,54.736 11.886 C 54.504 11.886,53.943 12.521,53.943 12.784 C 53.943 12.918,53.847 13.029,53.730 13.029 C 53.612 13.029,53.450 13.239,53.368 13.495 C 53.281 13.772,52.949 14.016,52.553 14.095 C 52.186 14.169,51.886 14.319,51.886 14.429 C 51.886 14.539,51.731 14.629,51.543 14.629 C 51.354 14.629,51.200 14.731,51.200 14.857 C 51.200 14.983,50.943 15.086,50.629 15.086 C 50.314 15.086,50.057 15.189,50.057 15.314 C 50.057 15.440,49.813 15.543,49.514 15.543 C 47.758 15.543,47.577 15.702,47.410 17.398 C 47.325 18.263,47.166 18.971,47.056 18.971 C 46.947 18.971,46.857 19.280,46.857 19.657 C 46.857 20.034,46.754 20.343,46.629 20.343 C 46.503 20.343,46.400 20.497,46.400 20.686 C 46.400 20.874,46.308 21.029,46.196 21.029 C 46.084 21.029,45.928 21.286,45.849 21.600 C 45.770 21.914,45.605 22.171,45.481 22.171 C 45.358 22.171,45.257 22.531,45.257 22.971 C 45.257 23.411,45.154 23.771,45.029 23.771 C 44.903 23.771,44.800 24.029,44.800 24.343 C 44.800 24.657,44.710 24.914,44.600 24.914 C 44.490 24.914,44.338 25.225,44.262 25.606 C 44.142 26.204,43.782 26.720,42.794 27.708 C 42.668 27.834,42.297 28.187,41.968 28.493 C 41.389 29.033,41.371 29.131,41.371 31.782 C 41.371 33.451,41.282 34.514,41.143 34.514 C 40.992 34.514,40.914 43.543,40.914 61.143 C 40.914 78.743,40.837 87.771,40.686 87.771 C 40.559 87.771,40.457 88.381,40.457 89.143 C 40.457 89.897,40.367 90.514,40.257 90.514 C 40.147 90.514,40.008 91.101,39.949 91.817 C 39.889 92.534,39.722 93.159,39.577 93.208 C 39.433 93.256,39.314 93.441,39.314 93.619 C 39.314 93.797,39.211 93.943,39.086 93.943 C 38.960 93.943,38.857 94.105,38.857 94.303 C 38.857 94.770,37.628 96.000,37.160 96.000 C 36.962 96.000,36.800 96.103,36.800 96.229 C 36.800 96.354,36.543 96.457,36.229 96.457 C 35.914 96.457,35.657 96.560,35.657 96.686 C 35.657 96.811,35.508 96.914,35.325 96.914 C 35.142 96.914,34.735 97.171,34.421 97.486 C 34.106 97.800,33.786 98.057,33.708 98.057 C 33.476 98.057,32.914 98.692,32.914 98.955 C 32.914 99.090,32.811 99.200,32.686 99.200 C 32.560 99.200,32.457 99.409,32.457 99.664 C 32.457 99.920,32.303 100.188,32.114 100.260 C 31.926 100.333,31.771 100.580,31.771 100.809 C 31.771 101.041,31.543 101.298,31.257 101.389 C 30.974 101.478,30.577 101.742,30.373 101.976 C 30.170 102.209,29.836 102.400,29.630 102.400 C 29.425 102.400,29.257 102.492,29.257 102.604 C 29.257 102.716,29.007 102.870,28.701 102.947 C 28.395 103.024,28.080 103.292,28.000 103.543 C 27.920 103.795,27.656 104.000,27.413 104.000 C 27.170 104.000,26.971 104.095,26.971 104.210 C 26.971 104.326,26.637 104.494,26.229 104.584 C 25.521 104.739,24.686 105.438,24.686 105.874 C 24.686 106.154,23.618 107.200,23.332 107.200 C 23.204 107.200,22.484 107.817,21.733 108.571 C 20.981 109.326,20.257 109.943,20.126 109.943 C 19.994 109.943,19.886 110.041,19.886 110.160 C 19.886 110.280,19.269 110.447,18.514 110.532 C 17.760 110.618,17.143 110.777,17.143 110.887 C 17.143 110.996,16.847 111.086,16.486 111.086 C 15.803 111.086,15.543 111.630,15.543 113.057 C 15.543 113.356,15.440 113.600,15.314 113.600 C 15.189 113.600,15.086 113.754,15.086 113.943 C 15.086 114.131,14.990 114.286,14.873 114.286 C 14.755 114.286,14.587 114.512,14.500 114.789 C 14.293 115.440,13.841 115.886,13.388 115.886 C 13.190 115.886,13.029 115.987,13.029 116.112 C 13.029 116.236,12.617 116.403,12.114 116.484 C 11.611 116.564,11.200 116.720,11.200 116.829 C 11.200 116.939,10.840 117.029,10.400 117.029 C 9.668 117.029,9.600 117.086,9.600 117.696 C 9.600 118.660,9.817 119.086,10.310 119.086 C 10.548 119.086,10.743 119.189,10.743 119.314 C 10.743 119.440,10.886 119.543,11.062 119.543 C 11.602 119.543,12.795 120.833,12.944 121.579 C 13.022 121.968,13.176 122.286,13.286 122.286 C 13.396 122.286,13.486 122.440,13.486 122.629 C 13.486 122.817,13.589 122.971,13.714 122.971 C 13.840 122.971,13.943 123.229,13.943 123.543 C 13.943 123.857,14.071 124.117,14.229 124.119 C 14.386 124.122,14.822 124.482,15.198 124.919 C 15.671 125.470,16.075 125.714,16.512 125.714 C 16.859 125.714,17.143 125.817,17.143 125.943 C 17.143 126.069,17.297 126.171,17.486 126.171 C 17.674 126.171,17.829 126.274,17.829 126.400 C 17.829 126.526,17.979 126.629,18.164 126.629 C 18.547 126.629,19.886 127.866,19.886 128.221 C 19.886 128.351,19.982 128.457,20.100 128.457 C 20.218 128.457,20.384 128.920,20.469 129.486 C 20.589 130.287,20.719 130.514,21.055 130.514 C 21.292 130.514,21.486 130.610,21.486 130.727 C 21.486 131.130,22.206 131.657,22.759 131.657 C 23.064 131.657,23.314 131.760,23.314 131.886 C 23.314 132.011,23.623 132.114,24.000 132.114 C 24.377 132.114,24.686 132.217,24.686 132.343 C 24.686 132.469,24.840 132.571,25.029 132.571 C 25.217 132.571,25.371 132.674,25.371 132.800 C 25.371 132.926,25.554 133.029,25.778 133.029 C 26.249 133.029,26.971 133.791,26.971 134.288 C 26.971 134.475,27.074 134.629,27.200 134.629 C 27.326 134.629,27.429 134.783,27.429 134.971 C 27.429 135.160,27.523 135.314,27.639 135.314 C 27.755 135.314,27.922 135.643,28.010 136.044 C 28.241 137.097,28.518 137.277,30.174 137.450 C 30.990 137.535,31.691 137.706,31.733 137.831 C 31.775 137.955,31.955 138.057,32.133 138.057 C 32.311 138.057,32.457 138.160,32.457 138.286 C 32.457 138.411,32.619 138.514,32.818 138.514 C 33.156 138.514,34.971 140.159,34.971 140.465 C 34.971 140.657,35.588 141.257,35.785 141.257 C 36.006 141.257,36.800 142.192,36.800 142.451 C 36.800 142.754,37.405 143.314,37.730 143.314 C 38.059 143.314,39.314 144.580,39.314 144.912 C 39.314 145.039,39.411 145.143,39.529 145.143 C 39.647 145.143,39.813 145.606,39.898 146.171 C 39.982 146.737,40.143 147.200,40.255 147.200 C 40.366 147.200,40.457 147.663,40.457 148.229 C 40.457 148.794,40.560 149.257,40.686 149.257 C 40.837 149.257,40.914 156.952,40.914 171.886 C 40.914 186.819,40.992 194.514,41.143 194.514 C 41.282 194.514,41.371 195.578,41.371 197.248 C 41.371 199.437,41.442 200.041,41.725 200.277 C 42.746 201.127,43.657 202.178,43.657 202.505 C 43.657 202.636,43.749 202.743,43.860 202.743 C 43.972 202.743,44.131 203.103,44.213 203.543 C 44.296 203.983,44.462 204.343,44.582 204.343 C 44.702 204.343,44.800 204.600,44.800 204.914 C 44.800 205.229,44.903 205.486,45.029 205.486 C 45.154 205.486,45.257 205.783,45.257 206.147 C 45.257 206.524,45.405 206.865,45.600 206.940 C 45.789 207.012,45.943 207.280,45.943 207.536 C 45.943 207.791,46.046 208.000,46.171 208.000 C 46.297 208.000,46.400 208.154,46.400 208.343 C 46.400 208.531,46.503 208.686,46.629 208.686 C 46.754 208.686,46.857 208.943,46.857 209.257 C 46.857 209.571,46.960 209.829,47.086 209.829 C 47.211 209.829,47.315 210.163,47.317 210.571 C 47.322 212.132,47.582 213.029,48.030 213.029 C 48.265 213.029,48.457 213.131,48.457 213.257 C 48.457 213.383,48.817 213.486,49.257 213.486 C 49.697 213.486,50.057 213.575,50.057 213.685 C 50.057 213.795,50.469 213.950,50.971 214.031 C 51.474 214.111,51.886 214.278,51.886 214.403 C 51.886 214.527,52.043 214.629,52.236 214.629 C 52.626 214.629,53.943 215.882,53.943 216.253 C 53.943 216.559,54.527 217.143,54.833 217.143 C 55.195 217.143,56.686 218.713,56.686 219.093 C 56.686 219.324,56.935 219.429,57.486 219.429 C 57.926 219.429,58.286 219.531,58.286 219.657 C 58.286 219.783,58.483 219.886,58.724 219.886 C 58.965 219.886,59.197 219.990,59.239 220.118 C 59.282 220.245,60.010 220.414,60.858 220.494 C 61.706 220.573,62.400 220.726,62.400 220.833 C 62.400 220.941,62.760 221.029,63.200 221.029 C 63.640 221.029,64.000 221.123,64.000 221.239 C 64.000 221.355,64.309 221.517,64.686 221.600 C 65.063 221.683,65.371 221.845,65.371 221.961 C 65.371 222.077,65.533 222.171,65.730 222.171 C 65.927 222.171,66.427 222.531,66.842 222.971 C 67.257 223.411,67.758 223.771,67.954 223.771 C 68.151 223.771,68.377 223.977,68.457 224.229 C 68.537 224.480,68.682 224.686,68.780 224.686 C 69.499 224.686,69.943 225.590,69.943 227.055 L 69.943 228.571 217.143 228.571 L 364.343 228.571 364.343 227.104 C 364.343 225.342,364.482 224.914,365.053 224.914 C 365.291 224.914,365.486 224.760,365.486 224.571 C 365.486 224.383,365.589 224.229,365.714 224.229 C 365.840 224.229,365.943 224.060,365.943 223.853 C 365.943 223.451,367.158 222.171,367.541 222.171 C 367.668 222.171,367.771 222.075,367.771 221.957 C 367.771 221.839,368.234 221.673,368.800 221.588 C 369.366 221.503,369.829 221.343,369.829 221.231 C 369.829 221.120,370.283 221.029,370.838 221.029 C 371.393 221.029,371.885 220.916,371.931 220.778 C 371.977 220.639,372.500 220.472,373.093 220.405 C 373.686 220.338,374.171 220.194,374.171 220.085 C 374.171 219.975,374.531 219.886,374.971 219.886 C 375.411 219.886,375.771 219.783,375.771 219.657 C 375.771 219.531,376.190 219.429,376.702 219.429 C 377.813 219.429,378.162 219.129,378.375 217.994 C 378.463 217.526,378.633 217.143,378.753 217.143 C 378.873 217.143,378.971 216.981,378.971 216.782 C 378.971 216.315,380.201 215.086,380.668 215.086 C 380.866 215.086,381.029 214.983,381.029 214.857 C 381.029 214.731,381.183 214.629,381.371 214.629 C 381.560 214.629,381.714 214.533,381.714 214.416 C 381.714 214.300,382.299 214.131,383.013 214.042 C 384.625 213.841,385.371 213.198,385.371 212.010 C 385.371 211.565,385.461 211.200,385.570 211.200 C 385.679 211.200,385.827 210.765,385.898 210.233 C 385.969 209.702,386.137 209.230,386.271 209.186 C 386.405 209.141,386.514 208.963,386.514 208.789 C 386.514 208.302,387.726 207.175,388.442 206.996 C 389.203 206.805,389.714 206.342,389.714 205.845 C 389.714 205.647,389.806 205.486,389.918 205.486 C 390.030 205.486,390.186 205.229,390.265 204.914 C 390.344 204.600,390.510 204.343,390.633 204.343 C 390.756 204.343,390.857 203.726,390.857 202.971 C 390.857 202.210,390.959 201.600,391.086 201.600 C 391.220 201.600,391.314 200.806,391.314 199.676 C 391.314 198.340,391.402 197.723,391.600 197.657 C 391.828 197.581,391.886 180.749,391.886 114.514 C 391.886 48.279,391.828 31.447,391.600 31.371 C 391.402 31.305,391.314 30.688,391.314 29.352 C 391.314 28.222,391.220 27.429,391.086 27.429 C 390.960 27.429,390.857 26.856,390.857 26.155 C 390.857 25.328,390.737 24.761,390.514 24.539 C 390.326 24.350,390.171 23.998,390.171 23.755 C 390.171 23.513,390.069 23.314,389.943 23.314 C 389.817 23.314,389.714 23.204,389.714 23.069 C 389.714 22.753,389.133 22.171,388.816 22.171 C 388.682 22.171,388.571 22.081,388.571 21.971 C 388.571 21.861,388.271 21.711,387.904 21.638 C 387.508 21.559,387.177 21.315,387.089 21.038 C 387.007 20.781,386.845 20.571,386.727 20.571 C 386.610 20.571,386.514 20.417,386.514 20.229 C 386.514 20.040,386.418 19.886,386.300 19.886 C 386.182 19.886,386.016 19.423,385.931 18.857 C 385.846 18.291,385.685 17.829,385.574 17.829 C 385.463 17.829,385.371 17.373,385.371 16.815 C 385.371 16.003,385.281 15.773,384.914 15.657 C 384.663 15.577,384.457 15.416,384.457 15.299 C 384.457 15.182,384.097 15.086,383.657 15.086 C 383.217 15.086,382.857 14.983,382.857 14.857 C 382.857 14.731,382.600 14.629,382.286 14.629 C 381.971 14.629,381.714 14.534,381.714 14.418 C 381.714 14.302,381.391 14.137,380.996 14.050 C 380.226 13.881,378.971 12.759,378.971 12.240 C 378.971 12.066,378.866 11.889,378.737 11.846 C 378.609 11.803,378.439 11.357,378.359 10.855 C 378.185 9.754,377.997 9.608,376.743 9.604 C 376.209 9.602,375.771 9.497,375.771 9.371 C 375.771 9.246,375.411 9.143,374.971 9.143 C 374.531 9.143,374.171 9.040,374.171 8.914 C 374.171 8.789,373.811 8.686,373.371 8.686 C 372.931 8.686,372.571 8.588,372.571 8.468 C 372.571 8.349,371.954 8.181,371.200 8.096 C 370.446 8.011,369.829 7.851,369.829 7.742 C 369.829 7.632,369.571 7.543,369.257 7.543 C 368.943 7.543,368.686 7.453,368.686 7.343 C 368.686 7.233,368.375 7.081,367.996 7.005 C 367.320 6.870,365.486 5.240,365.486 4.774 C 365.486 4.434,364.972 3.971,364.389 3.786 C 363.926 3.639,363.886 3.481,363.886 1.813 L 363.886 0.000 217.029 0.000 L 70.171 0.000 70.171 1.741 " stroke="none" fill="#747474" fill-rule="evenodd"></path></g></svg>