<svg xmlns="http://www.w3.org/2000/svg" class="pen" width="12" height="12" viewBox="0 0 12 12">
    <path fill-rule="evenodd" d="M11.67 3.329l-1.081 1.08a.282.282 0 0 1-.398 0L7.589 1.808a.282.282 0 0 1 0-.399L8.669.33a1.127 1.127 0 0 1 1.592 0l1.409 1.408c.44.439.44 1.151 0 1.592zm-5.01-.992L.507 8.492.009 11.34a.563.563 0 0 0 .651.652l2.848-.5 6.155-6.154a.282.282 0 0 0 0-.399L7.061 2.337a.284.284 0 0 0-.4 0zM2.909 7.965a.327.327 0 0 1 0-.464l3.61-3.61a.327.327 0 0 1 .464 0 .327.327 0 0 1 0 .464l-3.61 3.61a.327.327 0 0 1-.464 0zm-.846 1.971h1.125v.851l-1.512.265-.729-.73.265-1.51h.851v1.124z"/>
</svg>
