<svg width="24" height="24" xmlns="http://www.w3.org/2000/svg">

 <g>
  <title>background</title>
  <rect fill="none" id="canvas_background" height="402" width="582" y="-1" x="-1"/>
 </g>
 <g>
  <title>Layer 1</title>
  <path fill="#6647ff" id="svg_1" d="m12,14c1.66,0 2.99,-1.34 2.99,-3l0.01,-6c0,-1.66 -1.34,-3 -3,-3s-3,1.34 -3,3l0,6c0,1.66 1.34,3 3,3zm5.3,-3c0,3 -2.54,5.1 -5.3,5.1s-5.3,-2.1 -5.3,-5.1l-1.7,0c0,3.41 2.72,6.23 6,6.72l0,3.28l2,0l0,-3.28c3.28,-0.48 6,-3.3 6,-6.72l-1.7,0z"/>
  <path id="svg_2" fill="none" d="m18,3l24,0l0,24l-24,0l0,-24z"/>
 </g>
</svg>