<svg xmlns="http://www.w3.org/2000/svg" width="39" height="50" viewBox="0 0 39 50">
    <path fill="#6947FF" fill-rule="nonzero" d="M19.26 47.828L3.154 15.524l5.893 3.938v4.818c0 .3.147.58.395.747l8.984 6.01a.883.883 0 0 0 .972.002l9.117-6.01a.897.897 0 0 0 .403-.75v-1.597l7.127 14.087-16.787 11.06.002-.001zM2.501 37.041l7.05-4.711L16.6 46.468 2.502 37.04l-.001.001zm24.65-16.404v3.157l-8.23 5.424-8.107-5.419v-3.148l7.612 5.09a.89.89 0 0 0 .972.001l7.753-5.105zm-9.088-7.695l.97-.65.983.65-.983.645-.97-.645zM9.97 7.948l6.179 4.13-.177.116a.906.906 0 0 0-.395.748c0 .3.15.58.397.745l2.57 1.716a.86.86 0 0 0 .969.002l2.608-1.715a.895.895 0 0 0 .402-.748.902.902 0 0 0-.402-.75l-2.608-1.718a.872.872 0 0 0-.97.002l-.79.53-6.181-4.129 7.35-4.913 16.656 10.978-16.656 10.973-16.42-10.973 7.467-4.994h.001zm19.216 11.337l8.495-5.595a.9.9 0 0 0 0-1.498L19.4.146a.876.876 0 0 0-.973.002S.42 12.19.411 12.194c-.372.251-.538.79-.3 1.194L8.75 30.72.41 36.294a.896.896 0 0 0-.395.746c0 .3.147.58.395.747l17.892 11.965c.278.167.616.33.935.2.334-.133.993-.63 1.253-.804.932-.613 1.868-1.228 2.8-1.845 1.262-.83 2.523-1.658 3.783-2.492 1.348-.887 2.697-1.774 4.043-2.663 1.195-.785 2.388-1.572 3.583-2.36.652-.429 1.307-.86 1.96-1.292.34-.221.668-.442 1.004-.66a.895.895 0 0 0 .37-.506.909.909 0 0 0-.083-.692c-.099-.179-.168-.37-.262-.548-.172-.334-.338-.67-.508-1.005-.542-1.07-1.082-2.141-1.622-3.21-.687-1.355-1.372-2.709-2.059-4.062l-2.042-4.04a1822.926 1822.926 0 0 0-2.273-4.489l.002.001z"/>
</svg>
